<svg width="24" height="24" viewBox="0 0 24 24" fill="none" xmlns="http://www.w3.org/2000/svg">
<g clip-path="url(#clip0_3300_3267)">
<path d="M4.965 5.09593L8.511 17.5059L11.551 11.4259L17.188 9.17093L4.965 5.09593ZM2.899 2.29993L21.705 8.56793C21.8023 8.60019 21.8874 8.6616 21.9487 8.74383C22.0099 8.82606 22.0444 8.92514 22.0475 9.02763C22.0505 9.13013 22.022 9.23108 21.9657 9.31682C21.9095 9.40255 21.8282 9.46892 21.733 9.50693L13 12.9999L8.575 21.8499C8.52997 21.94 8.45877 22.0145 8.37073 22.0634C8.28268 22.1124 8.1819 22.1336 8.08159 22.1243C7.98128 22.115 7.88611 22.0756 7.80856 22.0113C7.73101 21.947 7.6747 21.8608 7.647 21.7639L2.26 2.91093C2.23505 2.82334 2.23449 2.7306 2.25839 2.64272C2.28228 2.55484 2.32973 2.47516 2.3956 2.41227C2.46147 2.34939 2.54327 2.30568 2.63216 2.28589C2.72105 2.26609 2.81367 2.27094 2.9 2.29993H2.899Z" fill="white"/>
</g>
<defs>
<clipPath id="clip0_3300_3267">
<rect width="24" height="24" fill="white"/>
</clipPath>
</defs>
</svg>
