<svg width="30" height="29" viewBox="0 0 30 29" fill="none" xmlns="http://www.w3.org/2000/svg">
<g clip-path="url(#clip0_3300_3306)">
<path d="M21.0417 3.62492H25.875C26.1955 3.62492 26.5028 3.75222 26.7294 3.97883C26.956 4.20544 27.0833 4.51278 27.0833 4.83325V24.1666C27.0833 24.4871 26.956 24.7944 26.7294 25.021C26.5028 25.2476 26.1955 25.3749 25.875 25.3749H4.12499C3.80452 25.3749 3.49718 25.2476 3.27057 25.021C3.04396 24.7944 2.91666 24.4871 2.91666 24.1666V4.83325C2.91666 4.51278 3.04396 4.20544 3.27057 3.97883C3.49718 3.75222 3.80452 3.62492 4.12499 3.62492H8.95832V1.20825H11.375V3.62492H18.625V1.20825H21.0417V3.62492ZM24.6667 13.2916H5.33332V22.9583H24.6667V13.2916ZM18.625 6.04158H11.375V8.45825H8.95832V6.04158H5.33332V10.8749H24.6667V6.04158H21.0417V8.45825H18.625V6.04158ZM7.74999 15.7083H10.1667V18.1249H7.74999V15.7083ZM13.7917 15.7083H16.2083V18.1249H13.7917V15.7083ZM19.8333 15.7083H22.25V18.1249H19.8333V15.7083Z" fill="#616161"/>
</g>
<defs>
<clipPath id="clip0_3300_3306">
<rect width="29" height="29" fill="white" transform="translate(0.5)"/>
</clipPath>
</defs>
</svg>
