<svg width="30" height="29" viewBox="0 0 30 29" fill="none" xmlns="http://www.w3.org/2000/svg">
<g clip-path="url(#clip0_3300_219)">
<path d="M15 26.5834C8.32638 26.5834 2.91667 21.1737 2.91667 14.5001C2.91667 7.82646 8.32638 2.41675 15 2.41675C21.6736 2.41675 27.0833 7.82646 27.0833 14.5001C27.0833 21.1737 21.6736 26.5834 15 26.5834ZM15 24.1667C17.5638 24.1667 20.0225 23.1483 21.8354 21.3354C23.6482 19.5226 24.6667 17.0638 24.6667 14.5001C24.6667 11.9363 23.6482 9.47757 21.8354 7.66472C20.0225 5.85186 17.5638 4.83341 15 4.83341C12.4362 4.83341 9.97749 5.85186 8.16464 7.66472C6.35179 9.47757 5.33334 11.9363 5.33334 14.5001C5.33334 17.0638 6.35179 19.5226 8.16464 21.3354C9.97749 23.1483 12.4362 24.1667 15 24.1667ZM10.7708 16.9167H17.4167C17.5769 16.9167 17.7306 16.8531 17.8439 16.7398C17.9572 16.6265 18.0208 16.4728 18.0208 16.3126C18.0208 16.1523 17.9572 15.9987 17.8439 15.8854C17.7306 15.7721 17.5769 15.7084 17.4167 15.7084H12.5833C11.7822 15.7084 11.0138 15.3902 10.4473 14.8236C9.88077 14.2571 9.56251 13.4888 9.56251 12.6876C9.56251 11.8864 9.88077 11.118 10.4473 10.5515C11.0138 9.98501 11.7822 9.66675 12.5833 9.66675H13.7917V7.25008H16.2083V9.66675H19.2292V12.0834H12.5833C12.4231 12.0834 12.2694 12.1471 12.1561 12.2604C12.0428 12.3737 11.9792 12.5273 11.9792 12.6876C11.9792 12.8478 12.0428 13.0015 12.1561 13.1148C12.2694 13.2281 12.4231 13.2917 12.5833 13.2917H17.4167C18.2178 13.2917 18.9862 13.61 19.5527 14.1765C20.1192 14.743 20.4375 15.5114 20.4375 16.3126C20.4375 17.1138 20.1192 17.8821 19.5527 18.4486C18.9862 19.0152 18.2178 19.3334 17.4167 19.3334H16.2083V21.7501H13.7917V19.3334H10.7708V16.9167Z" fill="#616161"/>
</g>
<defs>
<clipPath id="clip0_3300_219">
<rect width="29" height="29" fill="white" transform="translate(0.5)"/>
</clipPath>
</defs>
</svg>
