<svg width="16" height="15" viewBox="0 0 16 15" fill="none" xmlns="http://www.w3.org/2000/svg">
<path d="M8 13.75C4.54813 13.75 1.75 10.9519 1.75 7.5C1.75 4.04813 4.54813 1.25 8 1.25C11.4519 1.25 14.25 4.04813 14.25 7.5C14.25 10.9519 11.4519 13.75 8 13.75ZM8 12.5C9.32608 12.5 10.5979 11.9732 11.5355 11.0355C12.4732 10.0979 13 8.82608 13 7.5C13 6.17392 12.4732 4.90215 11.5355 3.96447C10.5979 3.02678 9.32608 2.5 8 2.5C6.67392 2.5 5.40215 3.02678 4.46447 3.96447C3.52678 4.90215 3 6.17392 3 7.5C3 8.82608 3.52678 10.0979 4.46447 11.0355C5.40215 11.9732 6.67392 12.5 8 12.5ZM8.625 7.5H11.125V8.75H7.375V4.375H8.625V7.5Z" fill="#616161"/>
</svg>
