<svg width="102" height="287" viewBox="0 0 102 287" fill="none" xmlns="http://www.w3.org/2000/svg">
<g clip-path="url(#clip0_2_1461)">
<path fill-rule="evenodd" clip-rule="evenodd" d="M18.9 24.0295C18.9 24.0295 11.5795 22.9653 9.64493 30.7178C2.55174 33.3016 4.48631 41.0541 4.48631 41.0541C4.48631 41.0541 0.924122 47.1434 8.00138 50.2638C8.56678 56.503 15.644 55.3687 15.644 55.3687C15.644 55.3687 17.343 60.1898 22.7213 58.2045C28.525 62.7263 39.4617 61.819 43.3454 56.2906C51.0449 62.0495 64.4441 55.0203 62.7632 49.7633C71.7563 49.2176 76.116 39.6623 70.8465 31.5453C74.8944 25.1249 70.2804 21.3354 70.2804 21.3354C70.2804 21.3354 71.554 6.58759 61.3628 4.60224C56.1259 -3.33913 44.8026 3.04243 44.8026 3.04243C44.8026 3.04243 37.3006 1.48262 34.6114 8.00579C26.2287 9.29766 26.6223 13.9139 25.9772 17.7902C18.4752 18.2157 18.9 24.0295 18.9 24.0295Z" fill="#373737"/>
<path fill-rule="evenodd" clip-rule="evenodd" d="M1.68247 74.3541L1.53834 74.1126C-0.470366 70.7527 0.61956 66.3975 3.97319 64.3851L36.6551 44.7739C40.0087 42.7615 44.356 43.8541 46.3647 47.2139L46.5088 47.4555C48.5175 50.8153 47.4276 55.1706 44.074 57.183L11.392 76.7942C8.03842 78.8066 3.69118 77.7139 1.68247 74.3541Z" fill="#FFC999"/>
<path fill-rule="evenodd" clip-rule="evenodd" d="M27.4189 66.4221L43.3805 57.1833C46.7203 55.1792 47.7839 50.7469 45.7433 47.335C43.7034 43.9225 39.3014 42.7701 35.9617 44.7742L20.4678 53.5653L27.4189 66.4221Z" fill="#8E8E8E"/>
<path d="M20.6329 53.9207C20.7199 53.8714 20.8274 53.8921 20.8906 53.9648L20.9148 53.9991L27.7633 66.138L43.3846 57.1824C43.4714 57.1327 43.579 57.1529 43.6425 57.2252L43.6669 57.2594C43.7165 57.3463 43.6964 57.4541 43.6242 57.5177L43.5901 57.5421L27.7886 66.6018C27.7001 66.6525 27.5901 66.6306 27.5271 66.5548L27.5058 66.5239L20.5546 54.203C20.4984 54.1034 20.5335 53.977 20.6329 53.9207Z" fill="#BF5F82"/>
<path fill-rule="evenodd" clip-rule="evenodd" d="M37.4865 260.898C34.3982 260.97 31.804 258.588 31.6086 255.499L27.4311 189.442C27.1304 184.683 30.8402 180.629 35.5983 180.517C40.3564 180.404 44.2526 184.279 44.1757 189.047L43.1038 255.229C43.0539 258.323 40.5747 260.825 37.4865 260.898Z" fill="#FFC999"/>
<path fill-rule="evenodd" clip-rule="evenodd" d="M34.1489 118.816C28.5426 118.948 24.1441 123.678 24.4088 129.29L27.2608 189.627C27.4797 194.274 31.3613 197.897 36.0038 197.787C40.6462 197.677 44.3539 193.876 44.3546 189.224L44.3691 128.82C44.3705 123.201 39.7551 118.684 34.1489 118.816Z" fill="#FFC999"/>
<path fill-rule="evenodd" clip-rule="evenodd" d="M31.7396 264.011L42.5883 264.152L43.4212 246.969L30.9663 246.807L31.7396 264.011Z" fill="#8E8E8E"/>
<path d="M31.0605 249.882L42.5585 250.031C42.7551 250.034 42.9125 250.196 42.91 250.393C42.9076 250.573 42.7717 250.721 42.5976 250.742L42.5492 250.745L31.0513 250.596C30.8546 250.593 30.6972 250.431 30.6997 250.234C30.7021 250.053 30.838 249.906 31.0121 249.885L31.0605 249.882Z" fill="#E1E2E1"/>
<path fill-rule="evenodd" clip-rule="evenodd" d="M30.6675 263.32L42.5937 263.475L42.9138 285.37L16.0398 285.021L16.0176 281.66C16.0135 280.424 16.8941 279.363 18.1074 279.142L25.2685 277.133L28.9609 275.091C30.073 274.475 30.7569 273.3 30.7396 272.027C30.7029 269.292 30.6467 264.652 30.6675 263.32Z" fill="#BF5F82"/>
<path fill-rule="evenodd" clip-rule="evenodd" d="M42.6447 286.08L15.8524 285.732C15.5981 285.729 15.3951 285.52 15.3985 285.265L15.4373 282.255C15.4408 282.001 15.6494 281.797 15.9036 281.8L42.6959 282.148C42.9495 282.152 43.1525 282.361 43.1498 282.616L43.1103 285.626C43.1075 285.88 42.8989 286.084 42.6447 286.08Z" fill="#E1E2E1"/>
<path fill-rule="evenodd" clip-rule="evenodd" d="M15.9038 281.8C15.9281 279.903 17.3229 278.304 19.1965 278.026L25.269 277.123L25.6085 281.86L15.9038 281.8Z" fill="#E1E2E1"/>
<path d="M15.9063 281.618L42.6986 281.966C42.7992 281.968 42.8797 282.05 42.8784 282.151C42.8773 282.239 42.8139 282.312 42.7306 282.328L42.6938 282.331L15.9016 281.983C15.8009 281.982 15.7204 281.899 15.7217 281.798C15.7229 281.71 15.7863 281.637 15.8695 281.621L15.9063 281.618Z" fill="#A3B5D6"/>
<path d="M30.5049 271.197C30.549 271.001 30.7439 270.877 30.9403 270.921L31.0539 270.949C31.183 270.983 31.3574 271.036 31.565 271.11C32.0245 271.274 32.4842 271.487 32.9156 271.755C33.389 272.049 33.7996 272.393 34.1281 272.792C34.3256 273.032 34.1524 273.394 33.8421 273.39C33.5368 273.386 33.0752 273.441 32.5039 273.544L32.3587 273.571C32.1406 273.612 31.9119 273.658 31.6757 273.71L31.3502 273.782L31.0559 273.85L31.1343 273.917C31.4176 274.163 31.6986 274.441 31.9682 274.752L32.1284 274.942C32.2229 275.058 32.3147 275.177 32.4035 275.299C32.5918 275.557 32.381 275.916 32.0642 275.876C31.6639 275.826 31.1881 275.821 30.654 275.854C30.1821 275.883 29.6812 275.942 29.1694 276.022L28.8396 276.076L28.9256 276.132L29.0363 276.208L29.1473 276.29C29.4701 276.537 29.753 276.836 29.9836 277.193C30.0931 277.362 30.0449 277.588 29.8759 277.698C29.707 277.808 29.4813 277.759 29.3719 277.59C29.1883 277.306 28.9632 277.068 28.7051 276.871C28.444 276.671 28.163 276.523 27.8825 276.421C27.7644 276.377 27.6671 276.349 27.5984 276.333L27.5301 276.318C27.1394 276.253 27.1185 275.698 27.5031 275.604L27.703 275.557C27.7473 275.547 27.7969 275.536 27.8514 275.525C28.1229 275.466 28.4212 275.408 28.7376 275.353C29.3803 275.242 30.0135 275.162 30.6088 275.125C30.8247 275.112 31.0327 275.104 31.232 275.103L31.304 275.103L31.2692 275.064C31.0692 274.847 30.8637 274.648 30.6572 274.469L30.5022 274.338C30.4079 274.261 30.3189 274.192 30.2366 274.131L30.0935 274.03C30.0667 274.012 30.0472 273.999 30.0357 273.992C29.7636 273.824 29.8244 273.411 30.1334 273.328L30.5419 273.224C30.8556 273.146 31.1869 273.069 31.5212 272.996C31.7637 272.943 31.999 272.895 32.2242 272.853C32.4518 272.81 32.665 272.774 32.8626 272.744L33.0201 272.722L32.9665 272.679C32.8758 272.608 32.7809 272.539 32.6823 272.473L32.5315 272.376C32.1478 272.137 31.7342 271.946 31.3204 271.798C31.2119 271.76 31.1094 271.726 31.0144 271.697L30.7808 271.634C30.5844 271.589 30.4609 271.394 30.5049 271.197Z" fill="#E1E2E1"/>
<path d="M30.905 267.698C30.8632 267.697 30.8215 267.704 30.782 267.718C30.1064 267.954 29.9059 268.452 30.1902 268.955C30.3134 269.173 30.4977 269.356 30.6871 269.502L30.7779 269.569L30.8358 269.622L31.1868 269.921C31.3024 270.019 31.4257 270.122 31.556 270.23C32.1764 270.742 32.8271 271.254 33.4778 271.733C33.8622 272.016 34.2357 272.279 34.5949 272.518L34.9186 272.73C35.9791 273.41 36.8562 273.834 37.5205 273.944C38.5713 274.118 39.1228 273.486 38.9299 272.227C38.6325 270.283 37.1284 269.025 34.8525 268.313C34.0508 268.063 33.1975 267.895 32.3368 267.795C31.8314 267.737 31.3941 267.709 31.0575 267.7L30.905 267.698ZM30.9223 268.443L30.9624 268.428L31.1506 268.434C31.4493 268.444 31.8249 268.471 32.2528 268.521C33.0714 268.616 33.8812 268.775 34.6353 269.011C36.6738 269.648 37.9628 270.726 38.2094 272.337C38.3309 273.13 38.1727 273.312 37.639 273.224C37.0404 273.125 36.1234 272.659 34.9984 271.91C34.6492 271.677 34.2849 271.421 33.9093 271.144C33.2706 270.675 32.6302 270.17 32.0197 269.666L31.6564 269.363L31.2278 268.996L31.1889 268.966C31.0552 268.871 30.8981 268.725 30.8245 268.595L30.8018 268.553C30.7805 268.505 30.8002 268.488 30.9223 268.443Z" fill="#E1E2E1"/>
<path fill-rule="evenodd" clip-rule="evenodd" d="M77.1665 259.935C80.2319 259.554 82.4506 257.511 82.1935 254.428L76.6884 187.774C76.2921 183.022 72.0301 179.555 67.3073 180.14C62.5838 180.726 59.2946 185.13 60.0665 189.835L71.4751 255.843C71.976 258.896 74.1011 260.315 77.1665 259.935Z" fill="#FFC999"/>
<path fill-rule="evenodd" clip-rule="evenodd" d="M59.7391 118.89C65.3044 118.2 70.346 122.235 70.9024 127.826L76.8848 187.931C77.3456 192.561 74.0343 196.712 69.4251 197.284C64.8173 197.856 60.5948 194.638 59.9151 190.036L51.0876 130.283C50.2665 124.725 54.1737 119.58 59.7391 118.89Z" fill="#FFC999"/>
<path fill-rule="evenodd" clip-rule="evenodd" d="M83.7608 261.844L72.2213 262.088L69.1621 244.914L81.6142 244.634L83.7608 261.844Z" fill="#8E8E8E"/>
<path d="M81.5342 247.709C81.7308 247.705 81.8938 247.861 81.8984 248.058C81.9023 248.238 81.7718 248.391 81.5985 248.418L81.5503 248.422L70.0537 248.682C69.8571 248.686 69.6941 248.53 69.6895 248.333C69.6856 248.153 69.8162 248 69.9894 247.973L70.0377 247.969L81.5342 247.709Z" fill="#E1E2E1"/>
<path fill-rule="evenodd" clip-rule="evenodd" d="M83.9251 261.143L72.001 261.411L74.176 283.309L101.045 282.703L101.035 279.343C101.028 278.107 100.137 277.055 98.9221 276.845L91.7423 274.904L88.0305 272.897C86.9128 272.292 85.9296 271.059 85.5291 269.851C84.7891 267.616 83.9583 262.474 83.9251 261.143Z" fill="#BF5F82"/>
<path fill-rule="evenodd" clip-rule="evenodd" d="M74.451 284.016L101.239 283.413C101.493 283.408 101.694 283.197 101.688 282.942L101.62 279.933C101.615 279.678 101.404 279.476 101.15 279.482L74.363 280.085C74.1087 280.091 73.9078 280.302 73.9132 280.557L73.9805 283.567C73.9867 283.821 74.1967 284.022 74.451 284.016Z" fill="#E1E2E1"/>
<path fill-rule="evenodd" clip-rule="evenodd" d="M101.151 279.482C101.108 277.585 99.6978 275.999 97.8221 275.738L91.7419 274.894L91.4468 279.634L101.151 279.482Z" fill="#E1E2E1"/>
<path d="M101.146 279.299C101.247 279.297 101.33 279.377 101.333 279.478C101.335 279.566 101.274 279.641 101.191 279.66L101.155 279.664L74.3666 280.268C74.2659 280.271 74.1825 280.191 74.1802 280.09C74.1783 280.002 74.2391 279.927 74.3217 279.908L74.3584 279.903L101.146 279.299Z" fill="#A3B5D6"/>
<path d="M86.0116 268.746C86.2076 268.7 86.4037 268.822 86.4496 269.019C86.4955 269.215 86.3738 269.411 86.1779 269.457L86.0379 269.495C85.9195 269.53 85.7868 269.573 85.6435 269.626C85.2337 269.776 84.824 269.97 84.444 270.21C84.2897 270.307 84.1439 270.41 84.0075 270.519L83.9484 270.567L83.9622 270.569C84.1525 270.593 84.3587 270.624 84.5798 270.661L84.7483 270.691C84.979 270.732 85.2202 270.779 85.4688 270.831C85.6896 270.877 85.9088 270.925 86.1222 270.973L86.7079 271.112C86.7626 271.126 86.8073 271.137 86.8406 271.146C87.1504 271.225 87.2151 271.637 86.9446 271.808L86.8878 271.846L86.8258 271.89C86.7239 271.964 86.6096 272.052 86.4858 272.155C86.2317 272.368 85.9772 272.61 85.7314 272.881L85.6867 272.931L85.7634 272.931C85.897 272.93 86.0345 272.933 86.1757 272.938L86.3902 272.947C86.9956 272.979 87.6399 273.056 88.2927 273.163C88.5238 273.201 88.7448 273.241 88.952 273.281L89.4118 273.377C89.4442 273.384 89.4712 273.39 89.4923 273.395C89.8778 273.486 89.8624 274.041 89.4724 274.11L89.4051 274.125C89.3373 274.142 89.2412 274.171 89.1246 274.215C88.8475 274.319 88.57 274.468 88.312 274.667C88.0519 274.868 87.8259 275.111 87.6427 275.4C87.5348 275.57 87.3095 275.621 87.1396 275.513C86.9697 275.404 86.9194 275.179 87.0273 275.009C87.2575 274.646 87.5415 274.34 87.8666 274.089C87.9397 274.033 88.0127 273.98 88.0854 273.931L88.1612 273.881L87.8616 273.835C87.4454 273.773 87.0359 273.725 86.643 273.695L86.3516 273.677C85.8141 273.648 85.3358 273.658 84.934 273.712C84.6176 273.755 84.4034 273.398 84.5893 273.138C84.6808 273.009 84.7757 272.885 84.8736 272.763C85.1859 272.375 85.5172 272.033 85.8516 271.738L85.9227 271.677L85.643 271.614L85.3207 271.546C85.0785 271.495 84.844 271.45 84.6205 271.41L84.3339 271.361C83.8256 271.279 83.4133 271.236 83.1332 271.243C82.823 271.25 82.6464 270.89 82.8416 270.648C83.1689 270.242 83.5801 269.892 84.0552 269.592C84.4824 269.322 84.9376 269.107 85.3927 268.94C85.667 268.839 85.8827 268.777 86.0116 268.746Z" fill="#E1E2E1"/>
<path d="M86.1802 267.379C86.4094 267.209 86.6267 266.999 86.7578 266.746C87.0169 266.246 86.8011 265.766 86.1398 265.542C86.1137 265.533 86.0867 265.527 86.0594 265.524L86.0066 265.523L85.8326 265.527C85.5506 265.538 85.1758 265.565 84.7348 265.616C83.876 265.716 83.0166 265.883 82.2042 266.135C79.8642 266.86 78.3193 268.142 78.0347 270.128C77.8541 271.386 78.4092 272.014 79.4556 271.833C80.1833 271.707 81.1642 271.198 82.3607 270.386C82.7184 270.143 83.0903 269.876 83.4729 269.589C84.1209 269.103 84.769 268.583 85.3867 268.063L85.7544 267.75L86.1802 267.379ZM85.9627 266.254L86.0064 266.272C86.0768 266.303 86.1151 266.33 86.1304 266.348L86.1368 266.357C86.1351 266.353 86.1335 266.366 86.1109 266.409C86.0547 266.518 85.9344 266.642 85.8113 266.742L85.7355 266.8L85.4954 267.009C85.3244 267.159 85.1306 267.325 84.9178 267.504C84.3098 268.016 83.6721 268.528 83.0361 269.005C82.6621 269.285 82.2995 269.545 81.9519 269.781C80.8369 270.538 79.927 271.01 79.3317 271.113C78.8018 271.205 78.6424 271.025 78.7562 270.232C78.9923 268.585 80.3196 267.483 82.4195 266.833C83.185 266.595 84.0015 266.436 84.8188 266.341C85.2805 266.288 85.6638 266.262 85.9324 266.255L85.9627 266.254Z" fill="#E1E2E1"/>
<path fill-rule="evenodd" clip-rule="evenodd" d="M42.1599 16.8284C48.037 17.8621 49.824 13.4061 49.824 13.4061C49.824 13.4061 52.2491 7.1308 52.87 10.9835C53.2005 13.0306 56.3601 10.3143 57.8124 12.4968C58.7901 13.9657 56.3462 15.8587 59.5225 19.7752C61.3628 22.0445 54.1033 23.8549 58.5822 28.0366C58.5822 28.0366 55.3977 33.1416 60.8674 34.8062L61.4467 40.7921C61.7841 44.2762 59.0485 47.291 55.5549 47.2854C52.2235 47.2806 49.5552 44.5198 49.6563 41.1843L49.8773 33.8857C41.3845 33.8857 40.9702 22.1923 42.1599 16.8284Z" fill="#FFC999"/>
<path d="M52.4713 23.0623C52.6136 22.9197 52.8444 22.9197 52.9867 23.0623C53.129 23.2049 53.129 23.4361 52.9867 23.5786C52.7962 23.7695 52.4509 24.0427 51.9653 24.3133C51.0077 24.8469 49.9093 25.1245 48.6999 25.007C48.4996 24.9875 48.3529 24.809 48.3723 24.6083C48.3918 24.4076 48.5699 24.2607 48.7703 24.2801C49.8206 24.3821 50.7748 24.141 51.611 23.6751C51.8576 23.5377 52.0746 23.3907 52.2593 23.2445L52.3552 23.1664C52.4108 23.1196 52.4497 23.0839 52.4713 23.0623Z" fill="#F5222D"/>
<path d="M48.3601 17.1772C48.4956 17.1676 48.6151 17.2586 48.6454 17.3869L48.6528 17.4426L48.6533 17.4544C48.6626 17.7138 48.6161 18.1093 48.4676 18.6237C48.2691 19.3118 47.9251 20.0645 47.4066 20.8708L47.3158 21.0078L47.4607 21.0974C47.9587 21.4043 48.3971 21.6614 48.7768 21.8728L48.9165 21.9499C49.0563 22.0265 49.1792 22.0919 49.2853 22.1465L49.5021 22.2546C49.6392 22.318 49.6991 22.4807 49.6358 22.618C49.5726 22.7553 49.4102 22.8153 49.2731 22.752L49.1966 22.7151L48.9498 22.5892C48.8607 22.5425 48.7622 22.4897 48.6542 22.4305L48.3641 22.269C47.9125 22.0138 47.3868 21.7 46.7853 21.3219C46.653 21.2387 46.617 21.0616 46.7064 20.9332C47.3336 20.0329 47.7301 19.2073 47.9424 18.4716C48.0635 18.0521 48.107 17.7336 48.1078 17.5275L48.1067 17.4695L48.1072 17.4252C48.1191 17.2939 48.2245 17.1869 48.3601 17.1772Z" fill="#DD936F"/>
<path d="M56.3002 17.1111C56.5005 17.1111 56.6629 17.2738 56.6629 17.4745C56.6629 18.8705 55.613 20.0148 54.3025 20.0148C52.9927 20.0148 51.9429 18.8703 51.9429 17.4745C51.9429 17.2738 52.1053 17.1111 52.3056 17.1111C52.5059 17.1111 52.6683 17.2738 52.6683 17.4745C52.6683 18.482 53.4077 19.288 54.3025 19.288C55.198 19.288 55.9374 18.4821 55.9374 17.4745C55.9374 17.2738 56.0998 17.1111 56.3002 17.1111Z" fill="#373737"/>
<path d="M46.7481 17.3606C46.9381 17.3606 47.0922 17.5149 47.0922 17.7053C47.0922 19.085 46.1497 20.2269 44.9515 20.2269C43.7527 20.2269 42.8101 19.0851 42.8101 17.7053C42.8101 17.5149 42.9641 17.3606 43.1541 17.3606C43.3441 17.3606 43.4981 17.5149 43.4981 17.7053C43.4981 18.7302 44.1646 19.5375 44.9515 19.5375C45.7377 19.5375 46.4041 18.7301 46.4041 17.7053C46.4041 17.5149 46.5581 17.3606 46.7481 17.3606Z" fill="#373737"/>
<path d="M52.167 13.116C53.5527 12.6702 55.0185 12.6113 56.403 13.1961C56.6578 13.3037 56.9061 13.4325 57.1469 13.5832C57.3168 13.6896 57.3685 13.9138 57.2623 14.084C57.1562 14.2542 56.9324 14.306 56.7625 14.1997C56.5546 14.0695 56.3406 13.9585 56.1211 13.8658C54.9203 13.3586 53.624 13.4106 52.3888 13.808C52.1809 13.8749 51.9934 13.9464 51.83 14.0175L51.6918 14.0804C51.6688 14.0914 51.6511 14.1002 51.639 14.1067C51.4618 14.2003 51.2424 14.1323 51.1489 13.9548C51.0554 13.7773 51.1233 13.5575 51.3005 13.4638C51.471 13.3737 51.7686 13.2442 52.167 13.116Z" fill="#373737"/>
<path d="M54.9506 32.3253C55.0832 32.2531 55.2492 32.3022 55.3214 32.435C55.3935 32.5679 55.3445 32.7342 55.2119 32.8064C53.4868 33.7468 51.6917 34.221 49.8889 34.2454C49.7379 34.2475 49.6139 34.1265 49.6118 33.9753C49.6098 33.8241 49.7306 33.6998 49.8815 33.6978C51.5952 33.6746 53.3032 33.2233 54.9506 32.3253Z" fill="#DD936F"/>
<path fill-rule="evenodd" clip-rule="evenodd" d="M62.4619 93.2938C68.3938 93.7589 82.4721 131.312 87.7908 144.741C87.0827 147.445 82.7569 152.217 82.7569 152.217C82.7569 152.217 83.2198 154.37 83.5045 155.663C78.4429 159.833 68.6537 162.099 68.6537 162.099L68.6322 163.949C52.9803 171.169 32.0209 164.25 32.0209 164.25C32.0209 164.25 31.6294 163.848 31.9107 162.398C24.8037 162.315 9.58693 153.282 9.58693 153.282L11.7502 148.813L5.49121 142.396C5.49121 142.396 22.3924 111.247 27.5946 102.535C32.1615 94.8856 36.445 92.6836 36.445 92.6836C36.445 92.6836 51.9375 92.4678 62.4619 93.2938Z" fill="#BF5F82"/>
<path d="M35.4482 100.039C35.5122 99.9079 35.6702 99.8537 35.8009 99.9178C35.9186 99.9755 35.9742 100.109 35.9375 100.231L35.9218 100.271L10.1866 152.942L10.4279 153.119L10.6292 153.264C11.1375 153.625 11.7367 154.028 12.4229 154.463C14.3855 155.705 16.6504 156.948 19.187 158.108C23.1306 159.912 27.3621 161.345 31.8304 162.27C31.973 162.3 32.0647 162.439 32.0353 162.582C32.0058 162.725 31.8663 162.817 31.7237 162.787C27.2148 161.854 22.9461 160.409 18.968 158.589C16.4089 157.418 14.1232 156.164 12.1413 154.909C11.5241 154.519 10.9759 154.153 10.4993 153.818L10.324 153.695C10.1792 153.592 10.0499 153.498 9.9364 153.414L9.69206 153.229C9.6062 153.162 9.57172 153.05 9.60113 152.948L9.61769 152.905L35.4482 100.039Z" fill="#373737"/>
<path d="M66.7159 110.743C66.8385 110.697 66.974 110.748 67.0374 110.858L67.0558 110.897L84.0123 155.837C84.056 155.953 84.0136 156.083 83.9104 156.151L83.628 156.331L83.4409 156.446C83.0608 156.678 82.6192 156.937 82.1208 157.216C80.6981 158.011 79.1048 158.806 77.3781 159.547C74.5617 160.757 71.6701 161.706 68.7731 162.293C68.6304 162.322 68.4913 162.229 68.4624 162.086C68.4336 161.943 68.5259 161.804 68.6686 161.775C71.5274 161.196 74.3852 160.258 77.1702 159.062C78.8793 158.328 80.4565 157.541 81.864 156.754L82.2719 156.524C82.5345 156.373 82.7782 156.23 83.0021 156.095L83.2611 155.937L83.4433 155.823L66.5625 111.084C66.5162 110.961 66.5672 110.825 66.6771 110.762L66.7159 110.743Z" fill="#373737"/>
<path d="M55.6981 94.2979C55.8267 94.2722 55.952 94.3447 55.9966 94.4638L56.0106 94.5163L57.2129 100.602C57.569 102.416 57.9474 104.351 58.3441 106.389L59.0946 110.256C60.4691 117.36 61.8333 124.526 63.1306 131.491L63.4827 133.385C63.7326 134.732 63.9781 136.062 64.219 137.374L64.9328 141.281C66.5414 150.135 67.8812 157.862 68.8897 164.172C68.9101 164.299 68.8359 164.422 68.7143 164.463C67.946 164.725 67.1682 164.967 66.3815 165.19C56.9033 167.879 46.7923 167.727 37.2439 165.857C35.855 165.585 34.5902 165.295 33.4671 165.004L33.1644 164.924C32.8049 164.829 32.4829 164.739 32.2003 164.657L31.7085 164.508C31.6963 164.505 31.6854 164.501 31.6758 164.498C31.5626 164.461 31.4897 164.354 31.4933 164.239L31.4983 164.195L43.2997 104.938C43.3282 104.795 43.4671 104.702 43.6099 104.731C43.7384 104.756 43.8263 104.872 43.8218 104.999L43.8168 105.041L32.0619 164.064L32.2117 164.109C32.4771 164.188 32.7822 164.274 33.125 164.367L33.2996 164.413C34.4856 164.729 35.8416 165.044 37.345 165.338C46.8191 167.194 56.8511 167.345 66.2378 164.682C66.8214 164.517 67.3999 164.341 67.9731 164.154L68.3333 164.033L68.0229 162.113C67.0639 156.241 65.8492 149.277 64.4227 141.423L63.8802 138.449C63.582 136.822 63.2766 135.165 62.9643 133.481C61.5631 125.927 60.0761 118.105 58.5769 110.357L56.8919 101.705L55.4913 94.6087C55.4627 94.4656 55.5554 94.3265 55.6981 94.2979Z" fill="#373737"/>
<path d="M49.415 95.3104C49.5459 95.3183 49.649 95.42 49.6624 95.5465L49.6634 95.5894L46.8897 144.872C46.8815 145.018 46.757 145.13 46.6117 145.122C46.4808 145.114 46.3777 145.012 46.3643 144.886L46.3633 144.843L49.1369 95.5597C49.1451 95.4141 49.2696 95.3027 49.415 95.3104Z" fill="#373737"/>
<path d="M42.0368 94.2242C42.08 94.0849 42.2277 94.007 42.3668 94.0503C42.492 94.0892 42.5674 94.213 42.5498 94.3389L42.5404 94.3809L32.1268 127.97C32.0836 128.109 31.9359 128.187 31.7968 128.144C31.6717 128.105 31.5962 127.981 31.6139 127.855L31.6233 127.813L42.0368 94.2242Z" fill="#373737"/>
<path fill-rule="evenodd" clip-rule="evenodd" d="M35.3125 93.2929L35.7594 89.8963C35.7594 89.8963 49.1462 89.9769 62.2766 89.3174C62.6085 90.8258 62.9889 93.5387 62.9889 93.5387C61.8858 92.6307 49.959 95.2838 35.3125 93.2929Z" fill="#BF5F82"/>
<path d="M61.5797 93.275C61.7252 93.2681 61.8486 93.3807 61.8554 93.5265C61.8622 93.6722 61.7498 93.7958 61.6044 93.8026C55.4673 94.0901 49.5165 94.2139 44.2618 94.2037L42.7569 94.197C41.0866 94.185 39.6107 94.1587 38.4666 94.1231L37.6299 94.0926C37.4694 94.0856 37.3268 94.0786 37.2042 94.0717L36.9535 94.0554C36.8815 94.05 36.8235 94.0446 36.7796 94.0393C36.7325 94.0336 36.6988 94.0279 36.6682 94.0188L36.6477 94.0163C36.6229 94.0103 36.6014 93.9871 36.4937 93.8714L36.5336 93.6554C36.5634 93.5144 36.5822 93.5126 36.6525 93.5057C36.7076 93.4867 36.7646 93.487 36.8163 93.503L36.848 93.5153L36.9653 93.5265L37.1483 93.5392C37.3965 93.5545 37.7489 93.5702 38.1823 93.5852L39.1167 93.613C40.3694 93.645 41.9299 93.6669 43.6606 93.6737C49.0525 93.6948 55.2158 93.5731 61.5797 93.275Z" fill="#373737"/>
<path fill-rule="evenodd" clip-rule="evenodd" d="M35.9363 53.5793C34.4777 56.7635 31.7761 62.2441 31.4401 65.8649C30.8948 71.7348 34.7099 76.1033 34.7099 76.1033C34.7099 76.1033 34.748 74.3762 35.1187 89.5856C52.5935 92.6566 63.7346 89.3912 63.7346 89.3912L63.3944 85.3594L67.0571 75.7416C67.0571 75.7416 67.9565 72.2804 71.4993 64.3634C73.9618 58.8592 73.7907 52.0355 73.4574 48.3869C73.3147 46.8243 72.2268 45.5096 70.7191 45.0847C65.4496 43.6006 63.454 43.554 63.454 43.554L62.9579 40.0714C62.8727 39.4751 62.3627 39.0315 61.7613 39.0315H48.9156C48.3641 39.0315 47.8825 39.4063 47.7453 39.9416L46.8044 43.6193L36.7525 44.2087C35.5046 44.4537 36.6652 46.4599 36.5356 47.7274L35.9363 53.5793Z" fill="#8E8E8E"/>
<path d="M59.8565 43.5151C59.9782 43.5151 60.0768 43.614 60.0768 43.7359C60.0768 43.8442 59.9989 43.9344 59.8961 43.9531L59.8565 43.9566H48.2906C48.169 43.9566 48.0703 43.8578 48.0703 43.7359C48.0703 43.6275 48.1483 43.5374 48.251 43.5187L48.2906 43.5151H59.8565Z" fill="#BF5F82"/>
<path d="M63.3725 42.626C63.4695 42.5035 63.6473 42.4829 63.7697 42.5801C63.8797 42.6676 63.9074 42.8207 63.8411 42.9397L63.8155 42.978L51.2796 58.8129C51.1491 58.9777 50.8968 58.9453 50.8064 58.7662L50.7896 58.7256L45.8874 43.8397C45.8384 43.6912 45.919 43.531 46.0673 43.482C46.2007 43.4379 46.3435 43.4989 46.4064 43.6198L46.4243 43.6622L51.1621 58.0495L63.3725 42.626Z" fill="#CCD7EE"/>
<path fill-rule="evenodd" clip-rule="evenodd" d="M47.5585 59.8344C46.2759 62.0016 46.8538 64.7193 48.8493 65.905C50.8449 67.0906 53.5028 66.2944 54.7854 64.1279C56.0679 61.9606 55.4901 59.2422 53.4945 58.0566C51.499 56.8716 48.841 57.6672 47.5585 59.8344Z" fill="#CCD7EE"/>
<path fill-rule="evenodd" clip-rule="evenodd" d="M47.0975 59.8239C45.815 61.9912 46.3928 64.7089 48.3884 65.8945C50.3839 67.0802 53.0419 66.2839 54.3244 64.1167C55.607 61.9495 55.0291 59.2318 53.0336 58.0462C51.038 56.8605 48.3801 57.6567 47.0975 59.8239Z" fill="#E1E2E1"/>
<path fill-rule="evenodd" clip-rule="evenodd" d="M47.9122 60.2015C46.9165 61.8842 47.3648 63.9945 48.9148 64.915C50.4642 65.8354 52.5276 65.2176 53.5233 63.535C54.5197 61.8523 54.0707 59.742 52.5207 58.8215C50.972 57.901 48.9079 58.5189 47.9122 60.2015Z" fill="#FAAD14"/>
<path d="M36.0816 50.3555C36.1897 50.3596 36.2766 50.441 36.2914 50.5446L36.2935 50.5844L36.157 54.2024L36.1298 54.3005L34.2392 57.7255C34.1462 57.8961 34.0695 58.0376 34.0165 58.1372L33.7808 58.5846C33.2531 59.599 32.8772 60.4148 32.58 61.2067C31.9443 62.901 31.6609 64.5435 31.6609 66.6837C31.6609 67.5388 31.8034 68.5139 32.071 69.5858C32.3478 70.6945 32.7499 71.875 33.2444 73.0878C33.5923 73.9409 33.9651 74.7596 34.3379 75.5144L34.4897 75.8181C34.5386 75.9149 34.5859 76.0071 34.6312 76.0945L34.8332 76.4751L34.8605 76.5738L35.2635 88.0144L35.2989 89.3461L35.6532 89.411C43.9818 90.8988 52.0717 90.925 59.2539 90.0563L59.7111 89.9997L60.3382 89.9172C61.0529 89.8198 61.7082 89.7186 62.3003 89.617L62.5501 89.5735C62.722 89.543 62.8807 89.5139 63.0258 89.4863L63.3603 89.4206L62.9705 85.4523L62.9843 85.351L70.9485 64.7166C70.9924 64.6029 71.1199 64.5464 71.2334 64.5904C71.3343 64.6295 71.3901 64.7348 71.3705 64.8376L71.3595 64.8759L63.4139 85.461L63.8186 89.5748C63.8282 89.6721 63.7729 89.7623 63.6859 89.7994L63.6468 89.8119L63.384 89.8664L63.1082 89.92C63.0103 89.9386 62.9062 89.9579 62.7963 89.9779L62.6268 90.0082C61.8 90.1547 60.8428 90.3011 59.7665 90.4377C52.2772 91.3881 43.7835 91.3735 35.0408 89.7482C34.9364 89.7288 34.8607 89.6375 34.8607 89.5311L34.8398 88.5919C34.8115 87.6007 34.7555 85.9228 34.6781 83.7186L34.5405 79.8732L34.4217 76.6422L34.3079 76.4278L34.1699 76.1616C34.098 76.0214 34.0222 75.8707 33.9429 75.7102C33.5657 74.9464 33.1886 74.1183 32.8365 73.2548C32.3345 72.0238 31.9259 70.8241 31.6435 69.693C31.3678 68.5886 31.2202 67.5788 31.2202 66.6837C31.2202 64.4916 31.5126 62.7965 32.1675 61.0513C32.4715 60.2412 32.8541 59.4107 33.389 58.3825L33.7032 57.7888L35.7183 54.1329L35.8531 50.5677C35.8572 50.4594 35.9385 50.3723 36.0419 50.3575L36.0816 50.3555Z" fill="#BF5F82"/>
<path fill-rule="evenodd" clip-rule="evenodd" d="M63.7578 96.4995C64.9738 98.3377 67.1828 99.0493 68.7709 98.1149L99.4337 80.0712C102.184 78.3031 102.669 74.1908 100.51 70.9282C98.3313 67.6364 94.3173 66.4952 91.624 68.4021L64.1021 91.3418C62.7302 92.4844 62.5812 94.7211 63.7578 96.4995Z" fill="#FFC999"/>
<path fill-rule="evenodd" clip-rule="evenodd" d="M24.7596 28.844C26.927 29.6791 28.109 31.9317 27.4425 33.9594L14.5754 73.088C13.2644 76.6408 9.04811 78.3332 5.20045 76.8518C1.31953 75.3566 -0.66909 71.2186 0.798467 67.6915L19.4194 30.6759C20.3472 28.8308 22.6629 28.0367 24.7596 28.844Z" fill="#FFC999"/>
<path fill-rule="evenodd" clip-rule="evenodd" d="M18.5683 27.1909C18.5683 27.1909 17.1195 34.0292 20.5923 36.2929C23.738 38.3435 26.1562 35.4766 26.1562 35.4766C26.1562 35.4766 29.0151 33.0067 30.8887 29.2533C32.1228 26.7806 33.9901 21.8388 32.7699 21.0113C31.1797 19.9333 29.3941 25.6498 28.0534 25.25C26.6787 24.8383 26.9593 23.6298 26.6891 20.6677C26.52 18.8163 27.0847 16.9289 26.6406 15.385C25.7731 12.3674 19.8827 16.7498 18.5683 27.1909Z" fill="#FFC999"/>
<path d="M24.8812 15.5718C24.9284 15.4504 25.065 15.3902 25.1862 15.4375C25.3075 15.4848 25.3675 15.6216 25.3203 15.7431C24.2989 18.371 24.1756 20.7877 24.5758 22.7958C24.611 22.9728 24.6482 23.1323 24.6857 23.2737L24.7138 23.3762C24.7414 23.4735 24.7624 23.5385 24.7736 23.5694C24.8178 23.692 24.7544 23.8272 24.632 23.8715C24.5096 23.9158 24.3746 23.8523 24.3304 23.7297L24.3083 23.6641C24.2995 23.6368 24.2894 23.6042 24.2782 23.5662L24.2606 23.5053C24.2104 23.3283 24.1603 23.122 24.1137 22.8882C23.6969 20.7968 23.8249 18.2897 24.8812 15.5718Z" fill="#DD936F"/>
<path d="M22.6814 17.3716C22.7323 17.2516 22.8706 17.1957 22.9904 17.2466C23.1101 17.2976 23.1659 17.4362 23.115 17.5562L23.0861 17.6274C23.0576 17.6994 23.0189 17.8027 22.9726 17.9351C22.8638 18.2461 22.7547 18.6013 22.6529 18.9942C22.2188 20.6686 22.0511 22.4494 22.3034 24.1997C22.322 24.3287 22.2327 24.4484 22.1039 24.4671C21.9751 24.4857 21.8556 24.3962 21.8371 24.2672C21.5748 22.4476 21.7483 20.6061 22.1968 18.8756C22.3021 18.4696 22.4149 18.1019 22.528 17.7789L22.6293 17.5016C22.6503 17.4469 22.6679 17.4034 22.6814 17.3716Z" fill="#DD936F"/>
<path fill-rule="evenodd" clip-rule="evenodd" d="M25.6774 39.5421L17.6059 34.4107C16.9379 33.9859 16.7404 33.0987 17.1638 32.4295L28.1871 15.0279C28.6105 14.358 29.496 14.1602 30.1647 14.5844L38.2355 19.7157C38.9035 20.1405 39.1017 21.0277 38.6776 21.6969L27.655 39.0992C27.2309 39.7691 26.3454 39.9669 25.6774 39.5421Z" fill="#8E8E8E"/>
<path fill-rule="evenodd" clip-rule="evenodd" d="M59.8282 89.126C59.8282 89.126 63.1354 83.8301 64.6328 83.6247C66.9519 83.306 66.489 88.0764 66.489 88.0764C66.489 88.0764 68.7326 88.8796 68.0023 91.4258C69.3424 93.3945 68.4007 94.7273 68.4007 94.7273C68.4007 94.7273 70.0623 96.0657 68.5954 97.8414C67.1286 99.6164 61.4641 99.456 62.8756 97.2423C60.8592 96.0685 61.8258 94.1761 61.8258 94.1761C61.8258 94.1761 60.2758 92.9697 61.2597 91.1523C59.9051 90.767 59.4887 89.682 59.8282 89.126Z" fill="#FFC999"/>
<path d="M64.8065 87.3964C64.9041 87.3024 65.0591 87.3055 65.1529 87.4032C65.2362 87.4901 65.2431 87.6225 65.175 87.7168L65.146 87.7502L61.4293 91.3293C61.3318 91.4233 61.1767 91.4202 61.083 91.3225C60.9997 91.2356 60.9928 91.1032 61.0608 91.0089L61.0899 90.9755L64.8065 87.3964Z" fill="#DD936F"/>
<path d="M64.5905 83.3824C65.8178 83.1676 66.464 84.1455 66.6849 85.8061C66.7631 86.3943 66.7814 87.0112 66.7618 87.5914L66.7491 87.8733L66.7445 87.943L66.8316 87.9998L66.8925 88.0414C67.1015 88.1864 67.3103 88.3571 67.5059 88.5531C68.2721 89.3214 68.622 90.2437 68.3113 91.2823L68.2781 91.3852L68.2889 91.3998C69.1161 92.543 69.2187 93.5716 68.8639 94.4116L68.8242 94.5008C68.775 94.6059 68.7251 94.6934 68.6792 94.763L68.6666 94.7811L69.1447 96.6813C69.1741 96.7981 69.1145 96.9165 69.0088 96.9646L68.967 96.9792C68.8504 97.0087 68.7323 96.949 68.6843 96.8431L68.6697 96.8013L68.1632 94.7874C68.1435 94.7093 68.1634 94.6265 68.2163 94.5659L68.2533 94.5179C68.2887 94.4676 68.3341 94.3918 68.3807 94.2923C68.7191 93.5699 68.6374 92.6604 67.8084 91.5751C67.7565 91.5071 67.7437 91.4168 67.7747 91.337C68.1346 90.4103 67.8578 89.6004 67.1593 88.9C66.9861 88.7263 66.7997 88.574 66.6136 88.4448L66.5122 88.3767C66.4511 88.337 66.4036 88.3089 66.3735 88.2927C66.2872 88.2461 66.2369 88.1523 66.2457 88.0544L66.2582 87.8773C66.2594 87.8567 66.2607 87.8348 66.2619 87.8116C66.2948 87.1899 66.2841 86.5084 66.1993 85.871C66.0106 84.4522 65.5248 83.7171 64.6748 83.8659C64.5416 83.8892 64.4147 83.7999 64.3914 83.6664C64.3681 83.5329 64.4573 83.4058 64.5905 83.3824Z" fill="#DD936F"/>
<path d="M65.5956 91.7641C65.7134 91.6975 65.8628 91.7392 65.9293 91.8573C65.9884 91.9622 65.962 92.0921 65.8727 92.1665L65.8363 92.1916L61.9464 94.39C61.8286 94.4566 61.6792 94.4149 61.6127 94.2969C61.5536 94.192 61.5799 94.062 61.6693 93.9877L61.7057 93.9626L65.5956 91.7641Z" fill="#DD936F"/>
<path d="M66.6242 95.3037C66.7478 95.2486 66.8926 95.3044 66.9475 95.4282C66.9964 95.5383 66.9578 95.6651 66.8619 95.7306L66.8232 95.7521L62.9749 97.4667C62.8513 97.5218 62.7065 97.4661 62.6516 97.3422C62.6027 97.2322 62.6412 97.1053 62.7372 97.0398L62.7758 97.0183L66.6242 95.3037Z" fill="#DD936F"/>
<path d="M20.8828 53.1981C20.9255 53.0696 21.0643 53.0001 21.1926 53.0429C21.3067 53.081 21.3741 53.1951 21.3577 53.3102L21.3475 53.3533L16.1473 68.9827C16.1045 69.1113 15.9658 69.1808 15.8375 69.1379C15.7234 69.0998 15.6559 68.9858 15.6724 68.8706L15.6826 68.8275L20.8828 53.1981Z" fill="#DD936F"/>
<path fill-rule="evenodd" clip-rule="evenodd" d="M99.7255 79.5984L99.9306 79.3694C102.523 76.4712 102.372 72.1555 99.5939 69.7293L73.3241 46.7903C70.5462 44.3642 66.1928 44.7473 63.6006 47.6455L63.3962 47.8739C60.8041 50.7728 60.9545 55.0885 63.7323 57.5146L90.0021 80.4537C92.7806 82.8798 97.1334 82.4966 99.7255 79.5984Z" fill="#FFC999"/>
<path fill-rule="evenodd" clip-rule="evenodd" d="M77.4628 69.0849L64.1917 58.4105C60.9926 55.8372 60.5554 51.0967 63.2189 47.8771C65.8838 44.6575 70.6807 44.1286 73.8798 46.7019L87.0248 57.2756L77.4628 69.0849Z" fill="#8E8E8E"/>
<path d="M70.4639 47.2101C70.5692 47.1521 70.7015 47.1906 70.7594 47.2961C70.8173 47.4016 70.7789 47.5341 70.6736 47.5921C68.3082 48.8953 66.8941 50.6882 66.2727 52.8531C65.7046 54.8326 65.8316 56.9587 66.389 58.9969C66.4941 59.3809 66.6065 59.7289 66.7188 60.0344L66.817 60.2909L66.8459 60.3611L77.2907 68.9457L86.7154 57.3071C86.7817 57.2253 86.8949 57.2042 86.9846 57.2509L87.0215 57.2752C87.1031 57.3415 87.1243 57.4549 87.0776 57.5449L87.0534 57.5818L77.4914 69.3911C77.4238 69.4745 77.3075 69.4949 77.217 69.4445L77.1844 69.4223L66.5291 60.6646L66.4682 60.5846L66.4351 60.5069C66.4031 60.4297 66.3606 60.3217 66.3104 60.185C66.194 59.8682 66.0778 59.5085 65.9694 59.1121C65.3926 57.0034 65.261 54.8005 65.8545 52.7326C66.5077 50.457 67.9963 48.5696 70.4639 47.2101Z" fill="#BF5F82"/>
<path d="M89.3915 69.3065C89.4909 69.2146 89.6459 69.2208 89.7376 69.3204C89.8192 69.4089 89.8233 69.5414 89.7535 69.6343L89.7238 69.6672L82.9604 75.9217C82.861 76.0136 82.706 76.0074 82.6143 75.9078C82.5327 75.8193 82.5285 75.6868 82.5984 75.5939L82.6281 75.5611L89.3915 69.3065Z" fill="#DD936F"/>
</g>
<defs>
<clipPath id="clip0_2_1461">
<rect width="102" height="287" fill="white"/>
</clipPath>
</defs>
</svg>
