<svg width="135" height="295" viewBox="0 0 135 295" fill="none" xmlns="http://www.w3.org/2000/svg">
<g clip-path="url(#clip0_2_1283)">
<path fill-rule="evenodd" clip-rule="evenodd" d="M74.8586 107.888C69.174 107.708 64.7117 102.961 64.892 97.2862L65.9243 64.7812C66.1046 59.1058 70.8595 54.6512 76.544 54.8312C82.2293 55.0112 86.6916 59.7579 86.5113 65.4326L85.4783 97.9375C85.298 103.613 80.5431 108.068 74.8586 107.888Z" fill="#E1E2E1"/>
<path fill-rule="evenodd" clip-rule="evenodd" d="M56.1971 238.309C52.4892 238.66 49.8896 242.118 50.5953 245.768C51.8027 252.009 53.5362 261.627 54.6461 270.644C55.6407 278.725 54.7133 284.353 56.4195 286.381C58.2587 288.567 61.8114 286.472 64.9104 289.245C68.0095 292.018 70.2499 294.154 78.1918 292.057C87.4793 289.604 79.0681 287.455 74.5326 283.676C66.525 277.004 65.4469 273.726 64.8018 268.571C63.4791 258.013 63.1555 249.842 63.1023 244.503C63.0653 240.819 59.8702 237.962 56.1971 238.309Z" fill="#FFC999"/>
<path fill-rule="evenodd" clip-rule="evenodd" d="M55.2209 278.526C55.2209 278.526 56.6204 280.211 61.3591 283.68C65.0973 286.416 67.5209 288.066 69.448 287.126C72.9661 285.408 75.6941 284.497 75.6941 284.497C75.6941 284.497 79.1124 286.044 81.7119 287.843C84.31 289.642 84.1555 292.806 78.6617 293.939C73.167 295.07 69.969 294.896 64.5283 291.138C59.0869 287.379 56.8849 289.147 55.9613 286.891C54.5182 283.364 55.2209 278.526 55.2209 278.526Z" fill="#373737"/>
<path fill-rule="evenodd" clip-rule="evenodd" d="M37.8364 201.248L26.3388 162.066C24.0651 153.932 29.5072 145.667 37.8873 144.523C45.1413 143.533 51.9268 148.309 53.4305 155.462L61.8808 195.655C61.8808 195.655 64.9171 206.974 52.8956 209.656C41.2051 212.265 37.8364 201.248 37.8364 201.248Z" fill="#373737"/>
<path fill-rule="evenodd" clip-rule="evenodd" d="M37.5943 195.208L50.3858 266.714C50.6909 268.423 52.1976 269.656 53.9363 269.622L66.212 269.376C68.2787 269.335 69.8703 267.539 69.6575 265.484L62.2676 194.161C62.2676 194.161 61.4681 181.99 48.455 183.358C36.3167 184.634 37.5943 195.208 37.5943 195.208Z" fill="#373737"/>
<path fill-rule="evenodd" clip-rule="evenodd" d="M50.2908 270.152L70.4146 269.75C70.841 269.741 71.1713 269.376 71.1365 268.952L70.4309 260.347C70.3991 259.958 70.0703 259.662 69.6794 259.67L48.2935 260.098C47.8251 260.107 47.4829 260.543 47.5879 260.999L49.5556 269.579C49.6332 269.92 49.9399 270.159 50.2908 270.152Z" fill="#BF5F82"/>
<path fill-rule="evenodd" clip-rule="evenodd" d="M48.6867 228.732C45.4178 226.951 41.3241 228.365 39.8633 231.784C37.3657 237.631 33.411 246.57 29.2753 254.663C25.5696 261.916 21.646 266.062 21.9231 268.695C22.2223 271.534 26.3411 271.783 27.3549 275.813C28.3687 279.842 29.0278 282.864 36.785 285.562C45.8574 288.718 40.0916 282.237 38.4512 276.573C35.5554 266.569 36.4983 263.251 38.8532 258.618C43.6769 249.13 47.9892 242.177 50.9382 237.722C52.9725 234.649 51.9262 230.496 48.6867 228.732Z" fill="#FFC999"/>
<path fill-rule="evenodd" clip-rule="evenodd" d="M25.3325 261.516C25.3325 261.516 25.5475 263.694 27.5308 269.216C29.0951 273.573 30.1791 276.294 32.3035 276.591C36.1813 277.133 38.953 277.901 38.953 277.901C38.953 277.901 40.9186 281.093 42.0639 284.036C43.2085 286.98 41.3072 289.515 36.1193 287.384C30.9313 285.252 28.3783 283.322 25.9761 277.168C23.5739 271.013 20.7579 271.248 21.2574 268.862C22.0384 265.133 25.3325 261.516 25.3325 261.516Z" fill="#373737"/>
<path fill-rule="evenodd" clip-rule="evenodd" d="M76.0265 191.98L70.475 151.529C69.2203 143.178 60.869 137.856 52.7527 140.232C45.7271 142.288 41.4901 149.416 43.0455 156.557L51.7921 196.687C51.7921 196.687 53.6557 208.255 65.7252 205.798C77.463 203.408 76.0265 191.98 76.0265 191.98Z" fill="#373737"/>
<path fill-rule="evenodd" clip-rule="evenodd" d="M75.3548 197.965L44.0541 257.449C43.3056 258.871 41.5359 259.523 39.8815 258.986L28.205 255.198C26.238 254.56 25.1954 252.509 25.9469 250.756L52.033 189.862C52.033 189.862 56.0424 179.337 68.1252 184.331C79.3967 188.99 75.3548 197.965 75.3548 197.965Z" fill="#373737"/>
<path fill-rule="evenodd" clip-rule="evenodd" d="M42.6347 261.054L24.0021 253.453C23.6075 253.292 23.4309 252.832 23.6164 252.449L27.3752 244.674C27.5445 244.323 27.9583 244.165 28.3196 244.311L48.1204 252.389C48.5549 252.566 48.7153 253.096 48.4537 253.484L43.5273 260.783C43.3315 261.073 42.9583 261.187 42.6347 261.054Z" fill="#BF5F82"/>
<path fill-rule="evenodd" clip-rule="evenodd" d="M58.3921 176.272L76.0715 159.502C77.5767 158.374 78.3674 156.532 78.1487 154.665L79.6221 133.798L29.1065 134.596L28.849 156.686C28.8331 158.06 29.354 159.38 30.2976 160.38C33.1935 163.444 40.4526 169.536 53.0793 176.094C54.7929 176.984 56.8943 177.488 58.3921 176.272Z" fill="#373737"/>
<path d="M78.3825 139.926C78.539 139.923 78.6684 140.047 78.6717 140.203C78.6745 140.344 78.5742 140.462 78.44 140.487L78.3941 140.492L32.632 141.429C32.4756 141.432 32.3461 141.308 32.3428 141.152C32.34 141.012 32.4404 140.893 32.5745 140.868L32.6204 140.864L78.3825 139.926Z" fill="#373737"/>
<path d="M52.0456 134.233C52.1865 134.231 52.3054 134.331 52.3301 134.465L52.3348 134.511L52.4626 140.74C52.4658 140.896 52.3416 141.025 52.1851 141.029C52.0443 141.031 51.9253 140.931 51.9006 140.797L51.896 140.752L51.7681 134.522C51.7649 134.366 51.8892 134.237 52.0456 134.233Z" fill="#373737"/>
<path fill-rule="evenodd" clip-rule="evenodd" d="M37.3379 21.4206C37.3379 21.4206 34.598 6.30635 53.8033 6.17505C64.5457 6.82122 65.1044 24.5704 65.1044 24.5704C65.1044 24.5704 66.0199 28.26 64.7933 32.1563C63.4189 36.5202 59.4036 38.1422 54.0516 38.8696C44.0503 38.9706 39.7771 33.6714 39.7771 33.6714C39.7771 33.6714 32.9244 34.4976 33.1076 25.8347C33.3322 17.7973 37.3379 21.4206 37.3379 21.4206Z" fill="#FFC999"/>
<path fill-rule="evenodd" clip-rule="evenodd" d="M38.4537 10.8565C38.7116 14.769 35.7426 18.1496 31.8226 18.4063C27.9034 18.663 24.5176 15.6999 24.2597 11.7874C24.0019 7.87498 26.9708 4.49437 30.8908 4.23693C34.8093 3.98023 38.1958 6.94335 38.4537 10.8565Z" fill="#373737"/>
<path fill-rule="evenodd" clip-rule="evenodd" d="M65.0473 25.1261C65.0473 25.1261 67.1133 20.9392 68.1959 16.0376C69.2784 11.136 59.4751 2.11755 58.1805 1.42343C56.8859 0.729312 56.2135 -0.0061236 47.8689 3.65774C22.5579 6.33612 30.106 29.1521 30.106 29.1521C30.106 29.1521 27.2907 31.4809 29.3789 37.1091C31.7774 42.7174 39.7341 42.3965 39.7341 42.3965L39.4201 33.398C39.4201 33.398 36.7481 33.7757 34.5232 30.8052C32.2991 27.8347 33.7969 23.9488 35.0198 23.5571C36.072 22.6557 38.8674 22.8888 39.0861 26.2045C39.1962 27.8738 42.1326 23.9237 42.9595 17.4863C51.7068 15.1989 53.5209 8.89722 53.5209 8.89722C53.5209 8.89722 54.2199 14.7725 52.9844 17.3469C57.5554 15.6444 59.8793 12.9992 58.9283 10.4123C64.366 12.3929 65.0473 25.1261 65.0473 25.1261Z" fill="#373737"/>
<path fill-rule="evenodd" clip-rule="evenodd" d="M39.8073 43.502L39.1504 30.0968L56.6657 29.3533C56.6657 29.3533 57.2007 38.5 57.7911 42.186C69.5872 47.6896 44.1536 54.0753 37.7383 47.4196C35.758 45.3638 39.8073 43.502 39.8073 43.502Z" fill="#FFC999"/>
<path fill-rule="evenodd" clip-rule="evenodd" d="M54.8418 22.9055C54.7369 26.3208 52.2512 29.0162 49.2881 28.9262C46.3265 28.8362 44.0093 25.9941 44.1127 22.5795C44.2176 19.1642 46.7034 16.4681 49.6664 16.5589C52.6288 16.6489 54.946 19.4903 54.8418 22.9055Z" fill="white"/>
<path d="M49.6775 16.1904C46.4982 16.093 43.8541 18.9599 43.7432 22.5684C43.6339 26.176 46.0985 29.1985 49.2767 29.295C52.4562 29.3916 55.1001 26.5253 55.2109 22.917C55.321 19.309 52.8566 16.287 49.6775 16.1904ZM49.655 16.9277C52.4007 17.0111 54.5707 19.6721 54.4724 22.8945C54.3733 26.1172 52.0454 28.6411 49.2992 28.5577C46.5544 28.4743 44.3842 25.8128 44.4818 22.5909C44.5793 19.4191 46.8357 16.9239 49.5245 16.9257L49.655 16.9277Z" fill="#BF5F82"/>
<path fill-rule="evenodd" clip-rule="evenodd" d="M66.7159 21.6686C66.6117 25.0839 64.279 27.7844 61.5051 27.6996C58.7312 27.6155 56.5676 24.7785 56.671 21.3632C56.776 17.9479 59.1087 15.2474 61.8826 15.3323C64.6565 15.4164 66.8208 18.2533 66.7159 21.6686Z" fill="white"/>
<path d="M61.8938 14.9638C58.8971 14.8722 56.4123 17.7479 56.3016 21.3521C56.1924 24.9564 58.497 27.9776 61.4937 28.0684C64.4904 28.16 66.9751 25.2841 67.0851 21.68C67.1958 18.0763 64.8908 15.0547 61.8938 14.9638ZM61.8713 15.7011C64.4222 15.7784 66.4456 18.4309 66.3465 21.6575C66.248 24.8845 64.0669 27.4091 61.5162 27.3311C58.9655 27.2538 56.9424 24.6016 57.0402 21.3746C57.1377 18.1997 59.2508 15.7047 61.748 15.6993L61.8713 15.7011Z" fill="#BF5F82"/>
<path d="M55.8256 23.6551C55.9188 23.5561 56.0677 23.5408 56.1779 23.6121L56.2173 23.6429L58.2915 25.588C58.3928 25.6831 58.4063 25.8358 58.3304 25.9461L58.2977 25.9852L56.3115 27.968C56.2032 28.076 56.0278 28.076 55.9196 27.968C55.8234 27.872 55.8127 27.7229 55.8875 27.6151L55.9196 27.5768L57.7038 25.7956L55.8379 24.0461C55.7387 23.9531 55.7234 23.8045 55.7948 23.6944L55.8256 23.6551Z" fill="#DD936F"/>
<path d="M51.9243 29.2571C51.966 29.0576 52.1616 28.9297 52.3614 28.9712L52.5612 29.01L52.6353 29.0236C52.8548 29.0635 53.0967 29.1034 53.3536 29.1406C53.8888 29.2182 54.4154 29.2737 54.9057 29.2975C55.6263 29.3325 56.2167 29.2957 56.6197 29.1782C56.8155 29.121 57.0207 29.2332 57.0779 29.4287C57.1351 29.6243 57.0227 29.8291 56.8269 29.8862C56.3285 30.0315 55.6654 30.0729 54.8698 30.0343C54.3535 30.0092 53.8043 29.9513 53.2474 29.8706C53.1144 29.8513 52.9852 29.8313 52.8609 29.811L52.3566 29.7221C52.2929 29.71 52.2437 29.7002 52.2107 29.6933C52.0109 29.6518 51.8827 29.4565 51.9243 29.2571Z" fill="#F5222D"/>
<path fill-rule="evenodd" clip-rule="evenodd" d="M54.8164 21.2876C54.8164 21.2876 55.7098 20.6045 56.5817 21.1718L54.8164 21.2876Z" fill="white"/>
<path d="M54.8164 21.2876C54.8164 21.2876 55.7098 20.6045 56.5817 21.1718" stroke="#BF5F82" stroke-width="1.5" stroke-linecap="round" stroke-linejoin="round"/>
<path d="M48.1262 37.9689C48.8661 38.0956 49.7086 38.1806 50.6341 38.228C52.1549 38.3059 53.7854 38.2795 55.3571 38.1881L55.9008 38.1535L56.5415 38.1033C56.6939 38.0891 56.829 38.2008 56.8432 38.3529C56.8575 38.505 56.7456 38.6399 56.5932 38.6541L56.3422 38.6754L55.9396 38.7054C55.7675 38.7174 55.5836 38.7292 55.3893 38.7404C53.799 38.8329 52.1495 38.8596 50.6057 38.7805C49.6597 38.7321 48.7961 38.6449 48.0325 38.5141C47.8817 38.4883 47.7804 38.3453 47.8063 38.1947C47.8296 38.0592 47.9479 37.9638 48.0813 37.9649L48.1262 37.9689Z" fill="#DD936F"/>
<path fill-rule="evenodd" clip-rule="evenodd" d="M51.751 22.2277C51.8064 23.0671 51.479 23.7723 51.0209 23.8018C50.562 23.8321 50.1453 23.1763 50.0906 22.3369C50.0352 21.4974 50.3618 20.793 50.8207 20.7627C51.2788 20.7325 51.6963 21.3882 51.751 22.2277Z" fill="#373737"/>
<path fill-rule="evenodd" clip-rule="evenodd" d="M62.5557 21.6579C62.6104 22.4973 62.2838 23.2025 61.8257 23.232C61.3668 23.2622 60.9501 22.6065 60.8946 21.767C60.84 20.9276 61.1666 20.2231 61.6254 20.1929C62.0836 20.1627 62.5003 20.8184 62.5557 21.6579Z" fill="#373737"/>
<path d="M44.1132 22.5793L39.2925 22.9998" stroke="#BF5F82" stroke-width="1.5" stroke-linecap="round" stroke-linejoin="round"/>
<path fill-rule="evenodd" clip-rule="evenodd" d="M60.9648 45.758L60.1298 45.7256C60.6655 50.7415 41.7395 51.1671 38.9117 45.3103C38.84 45.1613 38.7831 45.0211 38.7366 44.8876L36.4333 44.7976L34.0474 132.001C34.0474 132.001 50.4174 139.293 66.3249 133.633C74.3326 64.1091 60.9648 45.758 60.9648 45.758Z" fill="#8E8E8E"/>
<path d="M40.7878 52.0339C40.8538 51.8923 41.0224 51.8309 41.1643 51.8969L41.2492 51.9348L41.3414 51.9745C41.4905 52.038 41.6659 52.1089 41.866 52.1854C42.4395 52.4046 43.0952 52.624 43.8218 52.829C48.2652 54.0825 52.9558 54.2183 57.3376 52.518C57.6276 52.4054 57.9149 52.285 58.1995 52.1567C58.3421 52.0923 58.51 52.1556 58.5744 52.298C58.6389 52.4403 58.5755 52.6079 58.4329 52.6722C58.139 52.8048 57.8423 52.9291 57.5429 53.0453C53.0295 54.7967 48.2193 54.6575 43.6676 53.3735C42.9241 53.1637 42.2523 52.9388 41.6633 52.7137L41.4273 52.6217C41.3526 52.5919 41.2821 52.5632 41.2157 52.5356L40.9251 52.4098C40.7832 52.3438 40.7217 52.1756 40.7878 52.0339Z" fill="#8E8E8E"/>
<path fill-rule="evenodd" clip-rule="evenodd" d="M57.6273 43.4492C57.6273 43.4492 62.2721 54.5803 62.6608 97.916C62.9697 132.431 61.2968 192.673 61.2968 192.673C61.2968 192.673 76.3441 191.547 79.3966 185.819C82.5444 179.914 82.6301 136.144 82.4299 114.071C82.0671 73.8725 83.3956 64.7796 80.1407 55.7841C76.3892 53.6198 70.4512 50.4369 64.6507 47.2783C63.2416 46.5112 60.7928 44.448 59.898 43.9538C57.464 42.6113 57.6273 43.4492 57.6273 43.4492Z" fill="#E1E2E1"/>
<path d="M79.3334 64.118C79.5357 64.0911 79.7215 64.233 79.7484 64.4349L79.8216 65.006L79.9749 66.2676C80.0268 66.7063 80.0813 67.179 80.1381 67.6844L80.2475 68.6741C80.5026 71.0186 80.7559 73.6081 80.9942 76.3998C81.8839 86.8198 82.3624 97.529 82.213 107.818C82.21 108.022 82.0422 108.184 81.8382 108.182C81.6342 108.179 81.4712 108.011 81.4741 107.807C81.6172 97.9559 81.1829 87.714 80.3625 77.7115L80.258 76.4624C80.0032 73.4776 79.7313 70.7248 79.4584 68.2565L79.3044 66.8952C79.2614 66.5238 79.22 66.1739 79.1804 65.8461L79.016 64.5323C78.989 64.3304 79.1312 64.1449 79.3334 64.118Z" fill="#A3B5D6"/>
<path fill-rule="evenodd" clip-rule="evenodd" d="M17.0077 51.6485C22.9419 48.9709 29.4045 47.9721 33.1686 45.9561C35.579 44.6645 37.5319 42.8979 39.4184 42.3203C50.6359 96.6137 46.0835 164.101 43.1957 195.166C28.9782 196.687 15.1094 185.82 15.1094 185.82C15.1094 185.82 16.132 136.054 18.1316 107.812C19.7941 84.3202 15.4899 52.3331 17.0077 51.6485Z" fill="#E1E2E1"/>
<path d="M39.06 41.8219C39.2305 41.71 39.4596 41.7573 39.5716 41.9276C39.6735 42.0823 39.6436 42.2854 39.5092 42.4051L39.4657 42.4383L33.7065 46.2156L33.6916 46.4959L33.6861 46.6184C33.5984 48.6532 33.6605 51.433 33.9852 54.879C34.4437 59.7456 35.3574 65.086 36.8279 70.8291L36.9876 71.4459C37.259 72.4833 37.5264 73.4956 37.8144 74.5774L39.8996 82.3492C40.9041 86.1146 41.5566 88.6996 42.1328 91.2618C43.3286 96.5798 44.1186 101.585 44.7255 107.973C44.7448 108.175 44.5957 108.355 44.3926 108.375C44.1895 108.394 44.0092 108.245 43.9899 108.042C43.4048 101.884 42.6496 97.023 41.5221 91.9182L41.2997 90.929C40.8283 88.8653 40.2953 86.7364 39.5565 83.9368L38.812 81.1436L37.2956 75.4996C36.9306 74.133 36.6048 72.9015 36.2726 71.6324C34.698 65.6152 33.7281 60.0274 33.2495 54.9481C32.9216 51.4678 32.8588 48.6544 32.9478 46.5868L32.9715 46.1346C32.9764 46.0575 32.9803 46.0049 32.9826 45.9772C32.9905 45.8831 33.0341 45.7963 33.1034 45.734L33.1479 45.6996L39.06 41.8219Z" fill="#A3B5D6"/>
<path d="M57.55 42.5691C57.6489 42.4124 57.8464 42.3554 58.0112 42.4278L58.0595 42.4535L65.264 46.9826C65.3516 47.0377 65.412 47.1268 65.4306 47.2284L65.4689 47.4566L65.541 47.9338C65.5552 48.0329 65.5698 48.1378 65.5848 48.2484L65.6076 48.4188C65.739 49.4143 65.8702 50.6312 65.9926 52.0771L66.0545 52.8346C67.039 65.3297 66.726 83.7871 64.2348 108.995C64.2148 109.198 64.0339 109.346 63.8309 109.326C63.6278 109.306 63.4794 109.125 63.4995 108.922L63.649 107.39C66.0477 82.4998 66.2896 64.3453 65.2563 52.1392L65.2038 51.5384C65.0977 50.3647 64.9863 49.3586 64.875 48.5151L64.7891 47.8978L64.7394 47.5739L64.73 47.5188L57.6658 43.0777C57.5088 42.979 57.4517 42.7818 57.5243 42.6173L57.55 42.5691Z" fill="#A3B5D6"/>
<path d="M17.4778 126.221L30.1621 128.473C30.3273 128.503 30.4497 128.639 30.4652 128.801L30.4666 128.851L29.4284 155.269C29.3319 157.724 27.127 159.544 24.7085 159.199L24.5832 159.179L15.7273 157.646C15.5262 157.611 15.3915 157.42 15.4264 157.219C15.4584 157.035 15.6217 156.907 15.8036 156.914L15.8536 156.919L24.7096 158.452C26.6988 158.797 28.54 157.347 28.6837 155.353L28.69 155.24L29.7153 129.143L17.3484 126.947C17.1642 126.914 17.0364 126.751 17.0439 126.569L17.0493 126.519C17.0821 126.335 17.246 126.208 17.4279 126.215L17.4778 126.221Z" fill="#A3B5D6"/>
<path d="M79.8693 127.25C80.0647 127.192 80.2706 127.302 80.3292 127.497C80.3828 127.676 80.294 127.864 80.1283 127.939L80.0812 127.957L73.7801 129.84L73.1372 157.767C73.1211 158.447 73.7901 158.923 74.4205 158.706L74.4879 158.68L80.6209 156.068C80.8086 155.988 81.0257 156.075 81.1057 156.263C81.1791 156.435 81.1119 156.631 80.9557 156.724L80.9109 156.747L74.7777 159.359C73.6608 159.834 72.428 159.029 72.3984 157.836V157.75L73.048 129.555C73.0512 129.413 73.1356 129.288 73.262 129.229L73.3113 129.211L79.8693 127.25Z" fill="#A3B5D6"/>
<path fill-rule="evenodd" clip-rule="evenodd" d="M118.992 104.438L69.7698 104.9C67.8981 104.916 66.5444 103.12 67.0809 101.33L77.4583 66.6984C77.8078 65.533 78.877 64.7304 80.0947 64.7193L129.319 64.2575C131.19 64.2399 132.543 66.0368 132.006 67.827L121.629 102.459C121.28 103.624 120.211 104.426 118.992 104.438Z" fill="#A3B5D6"/>
<path fill-rule="evenodd" clip-rule="evenodd" d="M121.073 104.438L71.8504 104.9C69.9787 104.916 68.625 103.12 69.1614 101.33L79.5396 66.6984C79.8891 65.533 80.9575 64.7304 82.1753 64.7193L131.399 64.2575C133.27 64.2399 134.624 66.0368 134.087 67.827L123.709 102.459C123.36 103.624 122.291 104.426 121.073 104.438Z" fill="#373737"/>
<path fill-rule="evenodd" clip-rule="evenodd" d="M125.324 89.2948C125.324 89.2948 131.667 86.6024 133.153 87.3622C135.455 88.5394 132.023 92.5537 132.023 92.5537C132.023 92.5537 133.549 94.6965 131.279 96.534C131.25 99.1578 129.554 99.7664 129.554 99.7664C129.554 99.7664 130.215 102.024 127.764 102.701C125.313 103.377 121.152 101.293 122.96 98.5478C121.874 96.2139 123.945 95.117 123.945 95.117C123.945 95.117 123.303 93.0479 125.341 92.0285C124.357 90.8254 124.665 89.5825 125.324 89.2948Z" fill="#F4B784"/>
<path d="M130.927 90.8737C131.077 90.8502 131.217 90.9522 131.241 91.1015C131.262 91.2359 131.181 91.3628 131.056 91.404L131.013 91.4144L125.384 92.2988C125.235 92.3223 125.094 92.2204 125.071 92.071C125.05 91.9367 125.13 91.8098 125.256 91.7686L125.299 91.7582L130.927 90.8737Z" fill="#DD936F"/>
<path d="M123.971 94.8444L128.884 95.3158C129.035 95.3303 129.146 95.4639 129.131 95.6144C129.118 95.7498 129.008 95.8526 128.877 95.8613L128.832 95.8606L123.919 95.3893C123.768 95.3748 123.658 95.2411 123.672 95.0907C123.685 94.9553 123.795 94.8524 123.927 94.8438L123.971 94.8444Z" fill="#DD936F"/>
<path d="M123.011 98.2792L127.581 99.1614C127.729 99.1901 127.827 99.3337 127.798 99.4821C127.772 99.6156 127.653 99.7076 127.521 99.7037L127.477 99.6988L122.907 98.8166C122.759 98.7879 122.661 98.6443 122.69 98.4959C122.716 98.3624 122.835 98.2704 122.967 98.2743L123.011 98.2792Z" fill="#DD936F"/>
<path fill-rule="evenodd" clip-rule="evenodd" d="M8.32427 107.072C2.83039 105.601 -0.430466 99.9644 1.04294 94.48L10.759 58.2824C12.2309 52.7981 17.8785 49.5436 23.3716 51.013C28.8663 52.4831 32.1264 58.1201 30.6544 63.6045L20.9376 99.8021C19.465 105.286 13.8189 108.541 8.32427 107.072Z" fill="#E1E2E1"/>
<path fill-rule="evenodd" clip-rule="evenodd" d="M65.0104 108.49C65.0104 108.49 56.4352 107.612 55.097 102.717C53.8845 98.2833 58.1687 96.5432 58.1687 96.5432C58.1687 96.5432 62.153 94.14 67.2693 93.3669C70.6402 92.8572 77.1486 92.5378 77.6555 94.2691C78.3176 96.5263 70.9306 96.4606 70.8907 98.1712C70.8508 99.9275 72.3767 100.054 75.7498 101.481C77.8587 102.373 80.2883 102.424 81.9309 103.52C85.143 105.663 77.7627 110.878 65.0104 108.49Z" fill="#FFC999"/>
<path d="M71.2195 102.682C71.3127 102.56 71.4867 102.538 71.6081 102.631L71.7025 102.699L71.7402 102.725C71.8553 102.803 71.993 102.891 72.1528 102.986C72.6122 103.26 73.1551 103.534 73.778 103.791C75.8475 104.643 78.2705 105.095 81.0105 104.935C81.1633 104.926 81.2944 105.043 81.3033 105.195C81.3123 105.348 81.1957 105.479 81.0429 105.487C78.2158 105.653 75.7104 105.185 73.5668 104.302C72.918 104.035 72.351 103.749 71.8688 103.462C71.7415 103.386 71.6268 103.314 71.5249 103.247L71.3474 103.126C71.3131 103.101 71.2874 103.082 71.2704 103.069C71.149 102.976 71.1263 102.803 71.2195 102.682Z" fill="#DD936F"/>
<path d="M69.5612 105.401C69.6281 105.263 69.7939 105.206 69.9315 105.273C70.1167 105.363 70.3045 105.449 70.4948 105.531C71.9338 106.15 73.4739 106.532 75.0403 106.72C76.0327 106.839 76.9206 106.868 77.6448 106.843L77.8224 106.836C77.9327 106.831 78.008 106.826 78.0454 106.822C78.1978 106.809 78.3324 106.921 78.346 107.073C78.3596 107.226 78.2471 107.36 78.0946 107.373L77.9156 107.385L77.849 107.389C75.6232 107.496 72.9009 107.17 70.2753 106.039C70.0773 105.953 69.882 105.864 69.6892 105.77C69.5516 105.704 69.4942 105.538 69.5612 105.401Z" fill="#DD936F"/>
<path d="M66.8163 106.931C66.8971 106.801 67.068 106.761 67.1979 106.842L67.2642 106.881C67.3575 106.933 67.5068 107.009 67.7134 107.102C68.1631 107.305 68.7138 107.508 69.3684 107.699C70.7084 108.089 72.2999 108.371 74.1533 108.5C74.306 108.51 74.4211 108.643 74.4105 108.795C74.3999 108.947 74.2676 109.062 74.1149 109.052C72.222 108.92 70.5914 108.631 69.2133 108.23C68.5336 108.032 67.9586 107.82 67.4853 107.606L67.3074 107.524C67.1162 107.433 66.9826 107.36 66.9052 107.312C66.7752 107.231 66.7354 107.061 66.8163 106.931Z" fill="#DD936F"/>
<path fill-rule="evenodd" clip-rule="evenodd" d="M60.5236 91.0981L60.0085 108.701L11.9366 108.775C6.25136 108.61 1.7772 103.874 1.94345 98.1986C2.10897 92.5232 6.85284 88.0568 12.5388 88.2227L60.5236 91.0981Z" fill="#E1E2E1"/>
<path d="M15.7301 87.1691L60.8131 90.7378C60.993 90.752 61.1337 90.8931 61.1515 91.0678L61.1532 91.1162L60.6374 108.72C60.6321 108.903 60.4944 109.051 60.3177 109.075L60.2687 109.078L11.9373 109.144C11.7333 109.144 11.5674 108.979 11.5674 108.775C11.5674 108.589 11.7059 108.434 11.8862 108.41L11.9363 108.406L59.9088 108.341L60.4038 91.4453L15.6717 87.9044C15.4852 87.8896 15.3421 87.7391 15.332 87.5577L15.3326 87.5076C15.3474 87.3214 15.4982 87.1786 15.6799 87.1685L15.7301 87.1691Z" fill="#A3B5D6"/>
<path d="M53.0734 91.8673C53.2604 91.8728 53.4108 92.016 53.43 92.1967L53.4319 92.2468L52.9945 107.194C52.9885 107.398 52.8183 107.558 52.6144 107.552C52.4274 107.547 52.277 107.404 52.2578 107.223L52.2559 107.173L52.6933 92.2252C52.6993 92.0216 52.8694 91.8614 53.0734 91.8673Z" fill="#A3B5D6"/>
</g>
<defs>
<clipPath id="clip0_2_1283">
<rect width="135" height="295" fill="white"/>
</clipPath>
</defs>
</svg>
