<svg width="18" height="18" viewBox="0 0 18 18" fill="none" xmlns="http://www.w3.org/2000/svg">
<path d="M9.00002 17.3333C4.39752 17.3333 0.666687 13.6025 0.666687 8.99996C0.666687 4.39746 4.39752 0.666626 9.00002 0.666626C13.6025 0.666626 17.3334 4.39746 17.3334 8.99996C17.3334 13.6025 13.6025 17.3333 9.00002 17.3333ZM6.08335 10.6666V12.3333H8.16669V14H9.83335V12.3333H10.6667C11.2192 12.3333 11.7491 12.1138 12.1398 11.7231C12.5305 11.3324 12.75 10.8025 12.75 10.25C12.75 9.69743 12.5305 9.16752 12.1398 8.77682C11.7491 8.38612 11.2192 8.16663 10.6667 8.16663H7.33335C7.22285 8.16663 7.11687 8.12273 7.03873 8.04459C6.96059 7.96645 6.91669 7.86047 6.91669 7.74996C6.91669 7.63945 6.96059 7.53347 7.03873 7.45533C7.11687 7.37719 7.22285 7.33329 7.33335 7.33329H11.9167V5.66663H9.83335V3.99996H8.16669V5.66663H7.33335C6.78082 5.66663 6.25092 5.88612 5.86021 6.27682C5.46951 6.66752 5.25002 7.19743 5.25002 7.74996C5.25002 8.30249 5.46951 8.8324 5.86021 9.2231C6.25092 9.6138 6.78082 9.83329 7.33335 9.83329H10.6667C10.7772 9.83329 10.8832 9.87719 10.9613 9.95533C11.0395 10.0335 11.0834 10.1395 11.0834 10.25C11.0834 10.3605 11.0395 10.4664 10.9613 10.5446C10.8832 10.6227 10.7772 10.6666 10.6667 10.6666H6.08335Z" fill="#8E8E8E"/>
</svg>

