<svg width="80" height="80" viewBox="0 0 80 80" fill="none" xmlns="http://www.w3.org/2000/svg">
<path fill-rule="evenodd" clip-rule="evenodd" d="M40 72C48.4869 72 56.6263 68.6286 62.6274 62.6274C68.6286 56.6263 72 48.4869 72 40C72 31.5131 68.6286 23.3737 62.6274 17.3726C56.6263 11.3714 48.4869 8 40 8C31.5131 8 23.3737 11.3714 17.3726 17.3726C11.3714 23.3737 8 31.5131 8 40C8 48.4869 11.3714 56.6263 17.3726 62.6274C23.3737 68.6286 31.5131 72 40 72ZM54.828 34.828C55.5566 34.0736 55.9598 33.0632 55.9507 32.0144C55.9416 30.9656 55.5209 29.9624 54.7793 29.2207C54.0376 28.4791 53.0344 28.0584 51.9856 28.0493C50.9368 28.0402 49.9264 28.4434 49.172 29.172L36 42.344L30.828 37.172C30.0736 36.4434 29.0632 36.0402 28.0144 36.0493C26.9656 36.0584 25.9624 36.4791 25.2207 37.2207C24.4791 37.9624 24.0584 38.9656 24.0493 40.0144C24.0402 41.0632 24.4434 42.0736 25.172 42.828L33.172 50.828C33.9221 51.5779 34.9393 51.9991 36 51.9991C37.0607 51.9991 38.0779 51.5779 38.828 50.828L54.828 34.828Z" fill="#F48FB1"/>
</svg>
