<svg width="24" height="24" viewBox="0 0 24 24" fill="none" xmlns="http://www.w3.org/2000/svg">
<path d="M13 1L13.001 4.062C14.7632 4.28479 16.4013 5.08743 17.6572 6.34351C18.9131 7.5996 19.7155 9.23775 19.938 11H23V13L19.938 13.001C19.7153 14.7631 18.9128 16.401 17.6569 17.6569C16.401 18.9128 14.7631 19.7153 13.001 19.938L13 23H11V19.938C9.23775 19.7155 7.5996 18.9131 6.34351 17.6572C5.08743 16.4013 4.28479 14.7632 4.062 13.001L1 13V11H4.062C4.28459 9.23761 5.08713 7.59934 6.34324 6.34324C7.59934 5.08713 9.23761 4.28459 11 4.062V1H13ZM12 6C10.4087 6 8.88258 6.63214 7.75736 7.75736C6.63214 8.88258 6 10.4087 6 12C6 13.5913 6.63214 15.1174 7.75736 16.2426C8.88258 17.3679 10.4087 18 12 18C13.5913 18 15.1174 17.3679 16.2426 16.2426C17.3679 15.1174 18 13.5913 18 12C18 10.4087 17.3679 8.88258 16.2426 7.75736C15.1174 6.63214 13.5913 6 12 6ZM12 10C12.5304 10 13.0391 10.2107 13.4142 10.5858C13.7893 10.9609 14 11.4696 14 12C14 12.5304 13.7893 13.0391 13.4142 13.4142C13.0391 13.7893 12.5304 14 12 14C11.4696 14 10.9609 13.7893 10.5858 13.4142C10.2107 13.0391 10 12.5304 10 12C10 11.4696 10.2107 10.9609 10.5858 10.5858C10.9609 10.2107 11.4696 10 12 10Z" fill="#616161"/>
</svg>
