<svg width="16" height="15" viewBox="0 0 16 15" fill="none" xmlns="http://www.w3.org/2000/svg">
<g id="Group">
<path id="Vector" d="M2.54169 1.875H13.7917C13.9574 1.875 14.1164 1.94085 14.2336 2.05806C14.3508 2.17527 14.4167 2.33424 14.4167 2.5V12.5C14.4167 12.6658 14.3508 12.8247 14.2336 12.9419C14.1164 13.0592 13.9574 13.125 13.7917 13.125H2.54169C2.37593 13.125 2.21696 13.0592 2.09975 12.9419C1.98254 12.8247 1.91669 12.6658 1.91669 12.5V2.5C1.91669 2.33424 1.98254 2.17527 2.09975 2.05806C2.21696 1.94085 2.37593 1.875 2.54169 1.875ZM13.1667 4.52375L8.21169 8.96125L3.16669 4.51V11.875H13.1667V4.52375ZM3.48606 3.125L8.20481 7.28875L12.8554 3.125H3.48606Z" fill="#8E8E8E"/>
</g>
</svg>
