<svg width="18" height="19" viewBox="0 0 18 19" fill="none" xmlns="http://www.w3.org/2000/svg">
<g id="Group">
<path id="Vector" d="M3 2.75H15C15.1989 2.75 15.3897 2.82902 15.5303 2.96967C15.671 3.11032 15.75 3.30109 15.75 3.5V15.5C15.75 15.6989 15.671 15.8897 15.5303 16.0303C15.3897 16.171 15.1989 16.25 15 16.25H3C2.80109 16.25 2.61032 16.171 2.46967 16.0303C2.32902 15.8897 2.25 15.6989 2.25 15.5V3.5C2.25 3.30109 2.32902 3.11032 2.46967 2.96967C2.61032 2.82902 2.80109 2.75 3 2.75ZM3.75 4.25V14.75H14.25V4.25H3.75ZM5.625 7.25C5.32663 7.25 5.04048 7.13147 4.8295 6.9205C4.61853 6.70952 4.5 6.42337 4.5 6.125C4.5 5.82663 4.61853 5.54048 4.8295 5.3295C5.04048 5.11853 5.32663 5 5.625 5C5.92337 5 6.20952 5.11853 6.4205 5.3295C6.63147 5.54048 6.75 5.82663 6.75 6.125C6.75 6.42337 6.63147 6.70952 6.4205 6.9205C6.20952 7.13147 5.92337 7.25 5.625 7.25ZM4.875 8H6.375V13.625H4.875V8ZM9 8.3225C9.438 7.89875 9.9495 7.625 10.5 7.625C12.0533 7.625 13.125 8.88425 13.125 10.4375V13.625H11.625V10.4375C11.625 10.0894 11.4867 9.75556 11.2406 9.50942C10.9944 9.26328 10.6606 9.125 10.3125 9.125C9.9644 9.125 9.63056 9.26328 9.38442 9.50942C9.13828 9.75556 9 10.0894 9 10.4375V13.625H7.5V8H9V8.3225Z" fill="#616161"/>
</g>
</svg>
