<svg width="16" height="15" viewBox="0 0 16 15" fill="none" xmlns="http://www.w3.org/2000/svg">
<g id="Group">
<path id="Vector" d="M2.70831 1.875H13.9583C14.1241 1.875 14.283 1.94085 14.4003 2.05806C14.5175 2.17527 14.5833 2.33424 14.5833 2.5V12.5C14.5833 12.6658 14.5175 12.8247 14.4003 12.9419C14.283 13.0592 14.1241 13.125 13.9583 13.125H2.70831C2.54255 13.125 2.38358 13.0592 2.26637 12.9419C2.14916 12.8247 2.08331 12.6658 2.08331 12.5V2.5C2.08331 2.33424 2.14916 2.17527 2.26637 2.05806C2.38358 1.94085 2.54255 1.875 2.70831 1.875ZM13.3333 4.52375L8.37831 8.96125L3.33331 4.51V11.875H13.3333V4.52375ZM3.65269 3.125L8.37144 7.28875L13.0221 3.125H3.65269Z" fill="#616161"/>
</g>
</svg>
