<svg width="16" height="15" viewBox="0 0 16 15" fill="none" xmlns="http://www.w3.org/2000/svg">
<g id="Group">
<path id="Vector" d="M1.90188 4.2838L7.68125 0.818805C7.77839 0.760523 7.88953 0.729736 8.00281 0.729736C8.11609 0.729736 8.22724 0.760523 8.32438 0.818805L14.0981 4.28443C14.1445 4.31219 14.1828 4.35148 14.2094 4.39847C14.236 4.44546 14.25 4.49855 14.25 4.55255V12.5001C14.25 12.6658 14.1842 12.8248 14.0669 12.942C13.9497 13.0592 13.7908 13.1251 13.625 13.1251H2.375C2.20924 13.1251 2.05027 13.0592 1.93306 12.942C1.81585 12.8248 1.75 12.6658 1.75 12.5001V4.55193C1.74999 4.49792 1.76397 4.44484 1.79059 4.39785C1.81721 4.35085 1.85555 4.31156 1.90188 4.2838ZM3 5.08318V11.8751H13V5.08255L8.0025 2.08255L3 5.08255V5.08318ZM8.0375 8.56131L11.3475 5.77193L12.1525 6.72818L8.04625 10.1888L3.8525 6.73256L4.6475 5.76755L8.0375 8.56131Z" fill="#616161"/>
</g>
</svg>
