<svg width="16" height="16" viewBox="0 0 16 16" fill="none" xmlns="http://www.w3.org/2000/svg">
<g id="Group">
<path id="Vector" d="M8 14.25C4.54813 14.25 1.75 11.4519 1.75 8C1.75 4.54813 4.54813 1.75 8 1.75C11.4519 1.75 14.25 4.54813 14.25 8C14.25 11.4519 11.4519 14.25 8 14.25ZM4.88313 11.91C5.76784 12.6173 6.8673 13.0018 8 13C9.23125 13 10.3581 12.555 11.2294 11.8175C10.8223 11.3998 10.3357 11.0681 9.79815 10.8418C9.26064 10.6155 8.6832 10.4992 8.1 10.5C7.49537 10.4993 6.89719 10.6243 6.34342 10.867C5.78964 11.1097 5.29236 11.4649 4.88313 11.91ZM4.01 11.0125C4.53528 10.455 5.16917 10.0111 5.87259 9.70795C6.576 9.40483 7.33405 9.24897 8.1 9.25C8.83853 9.24904 9.56998 9.39398 10.2523 9.67649C10.9347 9.959 11.5545 10.3735 12.0763 10.8963C12.6113 10.1432 12.9273 9.25665 12.9891 8.33495C13.0509 7.41324 12.8562 6.49243 12.4266 5.67466C11.9969 4.85689 11.3491 4.17414 10.555 3.70215C9.76088 3.23017 8.85155 2.9874 7.92788 3.00078C7.0042 3.01417 6.10229 3.28318 5.3222 3.77797C4.54211 4.27277 3.91435 4.974 3.50856 5.80388C3.10277 6.63375 2.93481 7.55982 3.02332 8.47934C3.11184 9.39887 3.45336 10.2759 4.01 11.0131V11.0125ZM8 8.625C7.33696 8.625 6.70107 8.36161 6.23223 7.89277C5.76339 7.42393 5.5 6.78804 5.5 6.125C5.5 5.46196 5.76339 4.82607 6.23223 4.35723C6.70107 3.88839 7.33696 3.625 8 3.625C8.66304 3.625 9.29893 3.88839 9.76777 4.35723C10.2366 4.82607 10.5 5.46196 10.5 6.125C10.5 6.78804 10.2366 7.42393 9.76777 7.89277C9.29893 8.36161 8.66304 8.625 8 8.625ZM8 7.375C8.33152 7.375 8.64946 7.2433 8.88388 7.00888C9.1183 6.77446 9.25 6.45652 9.25 6.125C9.25 5.79348 9.1183 5.47554 8.88388 5.24112C8.64946 5.0067 8.33152 4.875 8 4.875C7.66848 4.875 7.35054 5.0067 7.11612 5.24112C6.8817 5.47554 6.75 5.79348 6.75 6.125C6.75 6.45652 6.8817 6.77446 7.11612 7.00888C7.35054 7.2433 7.66848 7.375 8 7.375Z" fill="#616161"/>
</g>
</svg>
