<svg width="16" height="15" viewBox="0 0 16 15" fill="none" xmlns="http://www.w3.org/2000/svg">
<g id="Group">
<path id="Vector" d="M6.52044 6.67625C7.1069 7.70655 7.96014 8.55979 8.99044 9.14625L9.54294 8.3725C9.63179 8.24808 9.76316 8.16055 9.91219 8.12646C10.0612 8.09237 10.2176 8.11408 10.3517 8.1875C11.2356 8.67058 12.2118 8.96111 13.2161 9.04C13.3728 9.05242 13.5191 9.12346 13.6258 9.23895C13.7325 9.35444 13.7917 9.5059 13.7917 9.66313V12.4519C13.7917 12.6066 13.7343 12.7559 13.6307 12.8708C13.527 12.9856 13.3844 13.058 13.2304 13.0737C12.8992 13.1081 12.5654 13.125 12.2292 13.125C6.87919 13.125 2.54169 8.7875 2.54169 3.4375C2.54169 3.10125 2.55856 2.7675 2.59294 2.43625C2.60872 2.28231 2.68105 2.1397 2.79593 2.03602C2.91081 1.93234 3.06007 1.87497 3.21481 1.875H6.00356C6.16079 1.87498 6.31225 1.93422 6.42774 2.04091C6.54323 2.14759 6.61427 2.29389 6.62669 2.45063C6.70558 3.45487 6.99611 4.43105 7.47919 5.315C7.5526 5.4491 7.57432 5.60546 7.54023 5.7545C7.50614 5.90353 7.4186 6.0349 7.29419 6.12375L6.52044 6.67625ZM4.94419 6.26562L6.13169 5.4175C5.79468 4.69006 5.56378 3.91803 5.44606 3.125H3.79794C3.79419 3.22875 3.79231 3.33312 3.79231 3.4375C3.79169 8.0975 7.56919 11.875 12.2292 11.875C12.3336 11.875 12.4379 11.8731 12.5417 11.8687V10.2206C11.7487 10.1029 10.9766 9.87201 10.2492 9.535L9.40106 10.7225C9.0596 10.5898 8.72794 10.4332 8.40856 10.2537L8.37231 10.2331C7.14642 9.53545 6.13124 8.52026 5.43356 7.29437L5.41294 7.25812C5.2335 6.93875 5.07686 6.60709 4.94419 6.26562Z" fill="#8E8E8E"/>
</g>
</svg>
