<svg width="16" height="15" viewBox="0 0 16 15" fill="none" xmlns="http://www.w3.org/2000/svg">
<g id="Group">
<path id="Vector" d="M4.53437 11.875L1.75 14.0625V2.5C1.75 2.33424 1.81585 2.17527 1.93306 2.05806C2.05027 1.94085 2.20924 1.875 2.375 1.875H13.625C13.7908 1.875 13.9497 1.94085 14.0669 2.05806C14.1842 2.17527 14.25 2.33424 14.25 2.5V11.25C14.25 11.4158 14.1842 11.5747 14.0669 11.6919C13.9497 11.8092 13.7908 11.875 13.625 11.875H4.53437ZM4.10188 10.625H13V3.125H3V11.4906L4.10188 10.625ZM7.55813 7.57563L10.21 4.92438L11.0938 5.80813L7.55813 9.34375L5.12687 6.9125L6.01125 6.02875L7.55813 7.57563Z" fill="#F48FB1"/>
</g>
</svg>
