<svg width="16" height="15" viewBox="0 0 16 15" fill="none" xmlns="http://www.w3.org/2000/svg">
<g id="Group">
<path id="Vector" d="M14.5833 8.75H13.3333V4.52375L8.37831 8.96125L3.33331 4.51V11.875H9.58331V13.125H2.70831C2.54255 13.125 2.38358 13.0592 2.26637 12.9419C2.14916 12.8247 2.08331 12.6658 2.08331 12.5V2.5C2.08331 2.33424 2.14916 2.17527 2.26637 2.05806C2.38358 1.94085 2.54255 1.875 2.70831 1.875H13.9583C14.1241 1.875 14.283 1.94085 14.4003 2.05806C14.5175 2.17527 14.5833 2.33424 14.5833 2.5V8.75ZM3.65269 3.125L8.37144 7.28875L13.0221 3.125H3.65269ZM12.7083 13.75L10.4983 11.54L11.3827 10.6562L12.7083 11.9825L14.9183 9.7725L15.8021 10.6562L12.7083 13.75Z" fill="#F48FB1"/>
</g>
</svg>
