<svg width="16" height="15" viewBox="0 0 16 15" fill="none" xmlns="http://www.w3.org/2000/svg">
<g id="Group">
<path id="Vector" d="M8.33334 13.75C4.88147 13.75 2.08334 10.9519 2.08334 7.5C2.08334 4.04813 4.88147 1.25 8.33334 1.25C11.7852 1.25 14.5833 4.04813 14.5833 7.5C14.5833 10.9519 11.7852 13.75 8.33334 13.75ZM8.33334 12.5C9.65943 12.5 10.9312 11.9732 11.8689 11.0355C12.8066 10.0979 13.3333 8.82608 13.3333 7.5C13.3333 6.17392 12.8066 4.90215 11.8689 3.96447C10.9312 3.02678 9.65943 2.5 8.33334 2.5C7.00726 2.5 5.73549 3.02678 4.79781 3.96447C3.86013 4.90215 3.33334 6.17392 3.33334 7.5C3.33334 8.82608 3.86013 10.0979 4.79781 11.0355C5.73549 11.9732 7.00726 12.5 8.33334 12.5ZM6.45834 5.625H7.70834V9.375H6.45834V5.625ZM8.95834 5.625H10.2083V9.375H8.95834V5.625Z" fill="#F48FB1"/>
</g>
</svg>
