<svg width="88" height="346" viewBox="0 0 88 346" fill="none" xmlns="http://www.w3.org/2000/svg">
<g clip-path="url(#clip0_2_1578)">
<path fill-rule="evenodd" clip-rule="evenodd" d="M3.84283 193.131L24.0978 193.168L25.9781 252.009L14.7759 260.806L3.93848 259.586C3.93848 259.586 2.98716 203.344 3.84283 193.131Z" fill="#FF7A46"/>
<path fill-rule="evenodd" clip-rule="evenodd" d="M3.27949 88.0807C3.27949 88.0807 3.70139 106.466 3.92161 115.242C4.12552 123.331 2.38379 165.116 2.38379 165.116L13.3265 165.571C13.3265 165.571 18.4197 139.165 19.3414 126.029C19.9501 117.351 20.4039 88.0473 20.4039 88.0473C20.4039 88.0473 5.87763 83.9625 3.27949 88.0807Z" fill="#FFC999"/>
<path fill-rule="evenodd" clip-rule="evenodd" d="M76.4497 158.775L49.9901 171.546C49.9901 171.546 43.471 173.633 38.8716 170.925C31.6615 166.677 21.6226 158.837 17.0596 156.327C17.7069 139.914 22.9862 131.123 22.9862 131.123L68.4321 131.448C68.4321 131.448 74.3721 136.593 76.4497 158.775Z" fill="#8E8E8E"/>
<path fill-rule="evenodd" clip-rule="evenodd" d="M2.70484 95.0285C2.70484 95.0285 1.84102 68.4191 6.57387 62.2612C12.0482 53.4991 23.9452 53.8565 23.9452 53.8565L22.7017 97.2878C22.7017 97.2878 11.7879 97.6867 2.70484 95.0285Z" fill="#E1E2E1"/>
<path fill-rule="evenodd" clip-rule="evenodd" d="M23.0935 126.322C35.3257 127.154 68.1146 126.986 68.1146 126.986C71.7641 125.676 70.8654 118.105 70.8654 118.105L77.0456 58.3444C77.0456 58.3444 68.9598 53.2816 56.2591 49.4549C42.7768 45.3931 27.0011 49.9813 17.373 55.6121L17.809 73.372C17.809 73.372 18.7996 102.398 22.1645 115.044C18.8834 121.652 23.0935 126.322 23.0935 126.322Z" fill="#E1E2E1"/>
<path fill-rule="evenodd" clip-rule="evenodd" d="M86.9134 91.6301C86.9134 91.6301 87.4969 111.264 82.7136 121.607C81.0357 125.233 78.3804 127.334 73.5208 126.968C62.9822 126.175 55.2871 87.5779 55.2871 87.5779L64.9308 85.9155L71.8554 97.3691L86.9134 91.6301Z" fill="#FFC999"/>
<path fill-rule="evenodd" clip-rule="evenodd" d="M71.3439 153.952C71.3439 153.952 54.6117 157.56 50.9385 168.153C49.0514 173.599 52.6246 201.354 57.1024 233.542C57.8587 238.98 58.2205 242.076 59.008 247.764C62.6249 273.892 65.9838 290.029 68.527 319.708C60.7794 339.403 81.5629 334.928 82.5751 331.505C83.2157 329.339 81.5044 314.477 81.5044 314.477C81.5044 314.477 80.9972 308.182 81.336 297.741C82.0249 276.454 82.8197 248.903 78.8603 230.062C71.3817 194.472 82.3645 184.591 71.3439 153.952Z" fill="#FFC999"/>
<path fill-rule="evenodd" clip-rule="evenodd" d="M21.4557 155.989C15.859 164.463 18.2881 186.839 22.192 226.59C24.9236 254.406 28.8727 305.923 28.8727 305.923C28.8727 305.923 30.5425 320.397 18.2948 324.712C12.8152 326.642 7.55594 334.574 9.10934 336.403C11.6949 339.451 28.2061 335.608 36.4646 327.441C40.4872 327.322 44.7173 326.69 44.4607 323.738C42.3438 299.405 44.6454 282.726 44.9234 258.23C45.0346 248.487 43.2032 237.787 43.2536 229.096C43.4286 198.832 42.7924 166.046 42.7924 166.046C42.7924 166.046 34.7815 135.809 21.4557 155.989Z" fill="#FFC999"/>
<path fill-rule="evenodd" clip-rule="evenodd" d="M75.8349 155.141C75.8349 155.141 58.9144 138.35 45.5938 168.94C47.3251 184.85 51.6694 208.336 51.6694 208.336C51.6694 208.336 65.234 211.842 81.2277 206.355C77.4409 164.227 75.8349 155.141 75.8349 155.141Z" fill="#8E8E8E"/>
<path fill-rule="evenodd" clip-rule="evenodd" d="M46.1284 207.098C33.5448 211.272 18.2682 207.864 18.2682 207.864C17.9553 196.998 14.7336 186.21 17.2916 152.156C35.251 136.764 44.9087 162.243 44.9087 162.243L46.1284 207.098Z" fill="#8E8E8E"/>
<path fill-rule="evenodd" clip-rule="evenodd" d="M83.972 342.509C89.5968 341.774 86.3477 333.661 84.0669 325.098C83.3714 322.487 83.4129 323.208 82.5876 320.837C81.4309 317.511 67.2657 319.056 67.3673 321.559C67.5646 326.382 66.0008 330.633 66.0008 330.633C63.5761 334.375 62.5381 339.691 65.4491 341.63C73.0307 346.682 83.972 342.509 83.972 342.509Z" fill="#BF5F82"/>
<path fill-rule="evenodd" clip-rule="evenodd" d="M45.6573 329.717C45.6573 329.717 32.9499 333.349 28.6804 335.555C24.4095 337.762 11.665 343.656 2.96453 338.088C1.62024 336.683 1.92795 334.984 2.54782 333.659C3.1373 332.399 4.20799 331.432 5.50928 330.939C9.45172 329.451 18.8766 325.913 23.5479 318.491C24.0944 317.622 25.111 317.183 26.1172 317.385C27.3354 317.631 28.9214 318.177 30.0796 319.388C31.0443 320.397 28.5418 324.408 29.5754 324.561C32.416 324.98 37.1429 324.046 40.1303 321.947C42.6321 320.188 43.8385 318.401 43.8385 318.401C43.8385 318.401 46.7866 325.595 45.6573 329.717Z" fill="#BF5F82"/>
<path fill-rule="evenodd" clip-rule="evenodd" d="M32.7021 49.4826C32.7021 49.4826 33.913 53.6867 43.7227 53.907C53.7416 54.1324 56.5577 49.6012 56.5577 49.6012L54.1449 48.572C54.1449 48.572 53.5443 41.5013 53.2129 31.1844C42.2954 27.5979 34.7738 30.8745 34.7738 30.8745C34.7738 30.8745 35.0037 41.5643 35.003 48.5602C35.003 48.5602 33.7365 49.1585 32.7021 49.4826Z" fill="#FFC999"/>
<path fill-rule="evenodd" clip-rule="evenodd" d="M56.0358 23.3628C56.0358 23.3628 56.5859 8.072 45.0523 7.72722C31.1214 7.31199 30.5089 15.1917 29.6703 18.879C28.7791 22.7963 27.9404 39.2341 36.3659 42.6041C39.9405 43.7808 42.1531 44.4363 48.2021 40.8268C57.0026 35.5749 56.0358 23.3628 56.0358 23.3628Z" fill="#FFC999"/>
<path fill-rule="evenodd" clip-rule="evenodd" d="M52.833 34.7428L52.859 26.1802C52.859 26.1802 59.4344 21.9901 60.2752 26.3352C61.1324 30.7655 58.1309 33.8975 55.3444 35.0023C53.553 35.7127 52.833 34.7428 52.833 34.7428Z" fill="#FFC999"/>
<path fill-rule="evenodd" clip-rule="evenodd" d="M50.8409 5.02868C50.8409 5.02868 43.5707 0.311407 40.2445 1.00914C36.9189 1.70687 39.6172 4.22418 39.6172 4.22418C39.6172 4.22418 30.3309 2.891 29.5405 4.99606C28.7508 7.10185 32.1105 8.00423 32.1105 8.00423C32.1105 8.00423 23.1208 10.7714 22.7619 13.4941C22.4023 16.2161 26.6332 15.4991 26.6332 15.4991C26.6332 15.4991 23.5153 19.4638 24.6082 21.7371C25.7011 24.0112 27.7825 23.688 27.7825 23.688L29.3158 26.7176L29.6577 20.2379C29.6577 20.2379 32.869 18.7416 38.7897 15.6919C35.2528 19.526 37.501 19.4756 40.527 18.7868C44.0735 17.9793 48.2094 16.6373 47.9959 16.5386C47.9959 16.5386 48.1975 20.745 51.0485 22.5987C54.5461 24.8721 52.2052 29.7792 53.1135 29.969C54.8619 30.3486 54.5179 25.6225 57.839 24.7171C60.4438 24.4524 60.793 21.2426 60.0389 20.1808C63.4727 19.6195 63.2577 16.0737 58.7399 13.1078C62.5904 12.5035 60.1138 9.00671 54.3429 7.66908C55.9816 1.26494 50.8409 5.02868 50.8409 5.02868Z" fill="#373737"/>
<path d="M41.0572 22.3966C44.1573 20.8765 47.5062 21.1132 48.9767 22.422C49.2061 22.6262 49.2266 22.9778 49.0224 23.2072C48.8182 23.4366 48.4667 23.457 48.2373 23.2528C47.1277 22.2652 44.2641 22.0629 41.5469 23.3952C41.2711 23.5305 40.9379 23.4165 40.8027 23.1408C40.6675 22.865 40.7814 22.5318 41.0572 22.3966Z" fill="#373737"/>
<path d="M36.9147 22.9161C37.0445 22.8731 37.1836 22.9322 37.2449 23.0495L37.2624 23.0908L37.8578 24.8881L37.8715 24.9867L37.5961 31.2606L39.8947 31.7238C40.0287 31.7508 40.1202 31.8709 40.1153 32.0033L40.11 32.0477C40.083 32.1818 39.9628 32.2733 39.8305 32.2684L39.786 32.2631L37.2569 31.7537C37.1388 31.7299 37.0517 31.6328 37.038 31.5164L37.0364 31.472L37.3193 25.0139L36.7401 23.2638C36.6971 23.134 36.7561 22.9949 36.8735 22.9336L36.9147 22.9161Z" fill="#DD936F"/>
<path d="M43.0161 26.5644C44.3597 25.5977 45.6731 25.5906 46.8043 26.1663C47.0861 26.3098 47.2905 26.4557 47.408 26.5608C47.5607 26.6972 47.5738 26.9316 47.4373 27.0842C47.3009 27.2369 47.0665 27.25 46.9138 27.1135L46.8443 27.057C46.7602 26.9936 46.6328 26.911 46.468 26.8272C45.5683 26.3693 44.5492 26.3748 43.4491 27.1663C43.2829 27.2858 43.0512 27.248 42.9316 27.0818C42.8121 26.9156 42.8499 26.684 43.0161 26.5644Z" fill="#373737"/>
<path d="M33.1684 25.9385C33.8195 25.7932 34.4958 25.914 35.1504 26.1985C35.424 26.3174 35.6331 26.4374 35.7572 26.5221C35.9264 26.6375 35.9699 26.8682 35.8545 27.0373C35.739 27.2064 35.5084 27.25 35.3392 27.1345L35.2582 27.083C35.1626 27.0256 35.0247 26.9524 34.8548 26.8786C34.3312 26.651 33.803 26.5566 33.33 26.6622C33.0143 26.7326 32.7298 26.8913 32.4764 27.1559C32.3348 27.3038 32.1001 27.3089 31.9522 27.1672C31.8043 27.0256 31.7993 26.7909 31.9409 26.6431C32.2962 26.272 32.7112 26.0406 33.1684 25.9385Z" fill="#373737"/>
<path fill-rule="evenodd" clip-rule="evenodd" d="M43.7855 33.3164C43.7855 33.3164 39.869 34.304 36.1001 33.828C36.1001 33.828 37.1626 36.0799 39.8097 35.9998C43.1516 35.8982 43.7855 33.3164 43.7855 33.3164Z" fill="white"/>
<path d="M43.7085 33.0122L43.4408 33.0744L43.2768 33.1097C42.926 33.1838 42.529 33.258 42.0944 33.3273C40.2318 33.6242 38.3198 33.7378 36.5416 33.5621C36.4061 33.5487 36.2719 33.5336 36.1391 33.5168C35.8936 33.4858 35.7106 33.738 35.8162 33.9618C35.9598 34.2661 36.2526 34.7051 36.7155 35.1428C37.5223 35.9056 38.5547 36.3515 39.8189 36.3133C41.3423 36.267 42.471 35.7326 43.2484 34.8695C43.7412 34.3224 43.996 33.7732 44.0898 33.3912C44.1462 33.1615 43.9379 32.9544 43.7085 33.0122ZM43.2689 33.7515L43.2156 33.8505C43.0991 34.0552 42.9555 34.2574 42.7823 34.4497C42.1182 35.187 41.1503 35.6452 39.7999 35.6863C38.7134 35.7191 37.8384 35.3412 37.1465 34.687L37.0111 34.5529C36.9239 34.4623 36.8428 34.3697 36.7678 34.2761L36.7143 34.2068L36.4799 34.1863C38.319 34.368 40.2818 34.2514 42.1931 33.9468C42.4158 33.9113 42.6289 33.8745 42.8315 33.8371L43.2689 33.7515Z" fill="#FF7A46"/>
<path d="M34.891 41.9611C34.9806 41.8385 35.1527 41.8118 35.2754 41.9014L35.3446 41.9495C35.4157 41.9969 35.5199 42.0621 35.6561 42.1406C35.9779 42.326 36.3555 42.512 36.7854 42.6859C39.4171 43.7504 42.5399 43.8692 46.0033 42.4257C46.1435 42.3672 46.3046 42.4335 46.363 42.5738C46.4215 42.714 46.3552 42.8751 46.2149 42.9335C42.6093 44.4364 39.338 44.3119 36.5791 43.1959C36.1249 43.0122 35.7246 42.815 35.3814 42.6173L35.2184 42.5208C35.0958 42.4461 35.0061 42.3861 34.9506 42.3455C34.828 42.2559 34.8013 42.0837 34.891 41.9611Z" fill="#DD936F"/>
<path d="M41.1462 37.5651C41.2979 37.5572 41.4273 37.6739 41.4351 37.8256C41.4422 37.9622 41.3484 38.0806 41.2189 38.1086L41.1746 38.1145L39.2927 38.2117C39.141 38.2195 39.0116 38.1028 39.0038 37.9511C38.9967 37.8146 39.0905 37.6961 39.22 37.6681L39.2643 37.6622L41.1462 37.5651Z" fill="#DD936F"/>
<path d="M56.1056 27.8481C56.8797 26.5087 57.7705 26.1986 58.5532 26.5432C58.6588 26.5897 58.7369 26.6381 58.7852 26.6756C58.9052 26.7688 58.9268 26.9417 58.8336 27.0616C58.7507 27.1682 58.6049 27.1972 58.4893 27.1368L58.4476 27.11C58.4329 27.0986 58.3926 27.0736 58.3315 27.0467C57.8098 26.8171 57.2179 27.0231 56.5819 28.1235L56.3709 28.4966C56.2826 28.6575 56.2193 28.7811 56.1776 28.8733L56.1555 28.9234L56.1626 28.9244C56.3192 28.9493 56.4111 28.9744 56.521 29.033L56.5778 29.0652C56.7741 29.1825 56.9325 29.3706 57.0504 29.6403C57.6073 30.9155 56.3665 31.9148 54.8613 31.9459C54.7094 31.949 54.5838 31.8284 54.5806 31.6765C54.5775 31.5246 54.6981 31.399 54.85 31.3958C56.0257 31.3716 56.899 30.6682 56.5462 29.8606C56.4727 29.6923 56.3896 29.5936 56.2956 29.5375C56.243 29.506 56.2014 29.4905 56.1203 29.4754L56.0009 29.4566C55.6923 29.4126 55.5118 29.275 55.5755 28.9391C55.6129 28.742 55.7604 28.4449 56.1056 27.8481Z" fill="#DD936F"/>
<path fill-rule="evenodd" clip-rule="evenodd" d="M72.1568 96.9472L87.4824 95.4256C87.4824 95.4256 87.6485 67.2925 80.514 60.4413C72.2013 52.4585 67.3683 63.0698 67.3683 63.0698C67.3683 63.0698 67.0525 68.9097 68.2129 79.237C69.0523 86.717 69.8886 92.7363 70.2868 95.4872C70.4181 96.3977 71.2426 97.0376 72.1568 96.9472Z" fill="#E1E2E1"/>
<path fill-rule="evenodd" clip-rule="evenodd" d="M65.1924 85.5732C65.1924 85.5732 65.5513 62.7883 60.0177 62.6638C57.5938 59.2151 57.0184 60.9888 57.0184 60.9888C57.0184 60.9888 54.7339 59.3293 54.3283 61.4633C52.0157 61.0548 52.8595 64.4144 54.3053 68.2056C55.4947 71.322 53.856 75.713 52.6066 75.6848C51.3572 75.6567 48.4974 70.6406 45.6731 73.0578C44.2865 74.2456 48.4773 75.4431 49.9959 79.4071C51.5144 83.3702 52.7749 87.6538 56.317 88.9832C59.8605 90.3134 65.1442 87.716 65.1924 85.5732Z" fill="#FFC999"/>
<path d="M59.7917 62.5061C59.8785 62.3814 60.0499 62.3507 60.1746 62.4375C60.2854 62.5147 60.322 62.6587 60.2678 62.7774L60.2432 62.8205C60.2256 62.8457 60.1905 62.9122 60.1525 63.0191C59.9434 63.6079 59.9975 64.4078 60.5163 65.4248L60.5899 65.5648C61.462 67.173 61.767 70.526 61.7042 73.3831C61.6995 73.5892 61.6148 73.8718 61.4204 74.3722L60.8255 75.8423C60.7326 76.0745 60.6502 76.2853 60.5694 76.498C60.0721 77.808 59.7392 78.9407 59.5759 80.0171C59.317 81.7236 59.5231 83.1234 60.2913 84.1826C60.3805 84.3056 60.3531 84.4776 60.2301 84.5668C60.1071 84.656 59.9351 84.6286 59.8459 84.5056C58.9802 83.3119 58.7534 81.7712 59.032 79.9346C59.2021 78.8132 59.5451 77.646 60.0551 76.3027L60.2458 75.8111L60.8195 74.3958L60.976 73.9925C61.0958 73.6699 61.1518 73.4733 61.1542 73.3709C61.2131 70.6909 60.9306 67.4957 60.1707 65.9517L60.1062 65.8269C59.4453 64.6065 59.363 63.5982 59.6341 62.835C59.6892 62.6799 59.7471 62.57 59.7917 62.5061Z" fill="#DD936F"/>
<path d="M56.854 60.7676C56.976 60.6771 57.1483 60.7025 57.2389 60.8245C57.3194 60.9329 57.3082 61.0811 57.2191 61.1763L57.1821 61.2093C57.1743 61.2151 57.1446 61.2473 57.1089 61.3106C56.8895 61.6988 56.9389 62.3716 57.5009 63.4174L57.5708 63.5447C58.1287 64.539 58.532 65.741 58.8168 67.1399C58.9875 67.9787 59.111 68.8606 59.2072 69.8457L59.2425 70.2247C59.2539 70.3528 59.2649 70.4836 59.276 70.6197L59.3845 72.0693L59.4044 72.3152C59.4302 72.6201 59.4538 72.8362 59.4808 73.0063C59.5046 73.1563 59.4022 73.2973 59.2522 73.3211C59.1021 73.3449 58.9612 73.2425 58.9374 73.0925L58.9161 72.9453C58.899 72.8149 58.8829 72.6637 58.8664 72.48L58.8007 71.6356L58.7606 71.0883C58.7272 70.6431 58.696 70.271 58.6596 69.8992C58.5651 68.9316 58.4442 68.0677 58.2777 67.2496C58.0217 65.9921 57.6685 64.9065 57.1945 64.0044L57.091 63.8139C56.3768 62.5405 56.2967 61.6296 56.6299 61.0399C56.7056 60.9059 56.7874 60.8171 56.854 60.7676Z" fill="#DD936F"/>
<path d="M54.298 61.1902C54.449 61.1734 54.585 61.2823 54.6017 61.4333L54.6176 61.5521C54.6229 61.5877 54.6294 61.6293 54.6372 61.6766C54.6701 61.8755 54.7142 62.0977 54.7711 62.3374C54.9337 63.0217 55.1656 63.7058 55.478 64.3418C55.5564 64.5013 55.6389 64.6559 55.7259 64.8052L55.8597 65.0251C56.2821 65.6911 56.5694 66.8765 56.7585 68.4521C56.8595 69.2937 56.9255 70.1939 56.9635 71.0938L56.9773 71.4603C56.9813 71.5786 56.9845 71.6928 56.9872 71.8025L56.9954 72.2957C56.9959 72.4476 56.8732 72.5712 56.7212 72.5717C56.5693 72.5722 56.4457 72.4494 56.4452 72.2975L56.4407 71.9745C56.4356 71.7159 56.4269 71.4276 56.4138 71.117C56.3764 70.2302 56.3114 69.3436 56.2122 68.5176C56.0404 67.0859 55.7832 65.9932 55.4422 65.398L55.3952 65.3199C55.2471 65.0868 55.1103 64.8411 54.9842 64.5844C54.6521 63.9081 54.4073 63.1862 54.2358 62.4645C54.1908 62.2752 54.1534 62.0958 54.1228 61.9289L54.0944 61.7662C54.0732 61.6382 54.0606 61.5455 54.0549 61.4939C54.0382 61.3429 54.147 61.2069 54.298 61.1902Z" fill="#DD936F"/>
<path fill-rule="evenodd" clip-rule="evenodd" d="M22.5586 131.531L23.0984 126.114L68.1305 126.291L68.7104 131.454C68.7104 131.454 27.1506 131.635 22.5586 131.531Z" fill="#8E8E8E"/>
<path d="M40.9795 126.238C41.1177 126.238 41.2321 126.339 41.2532 126.471L41.2565 126.597L41.2587 128.657L41.269 130.681C41.2778 131.988 41.291 133.365 41.3093 134.799L41.3175 135.417C41.3899 140.712 41.5208 145.968 41.7234 150.92L41.7679 151.977C42.1265 160.246 42.6616 166.899 43.401 171.341C43.4262 171.493 43.3238 171.636 43.1723 171.661C43.0209 171.686 42.8776 171.584 42.8524 171.433C42.1219 167.043 41.5914 160.533 41.2321 152.451L41.2123 152.001C40.9992 147.088 40.8588 141.853 40.7779 136.559L40.7457 134.195C40.7336 133.182 40.7241 132.198 40.717 131.25L40.7002 127.652L40.7006 126.515C40.7011 126.361 40.826 126.237 40.9795 126.238Z" fill="#373737"/>
<path d="M47.8016 131.821C47.9397 131.815 48.0586 131.911 48.0859 132.042L48.093 132.12L48.2075 134.847L48.305 137.28C48.3373 138.103 48.3693 138.936 48.4006 139.774L48.4625 141.453C48.4886 142.176 48.5138 142.888 48.5378 143.587L48.6555 147.22C48.8011 152.032 48.8639 155.632 48.8198 157.593C48.776 159.539 47.4671 160.918 45.3485 161.824C44.6076 162.141 43.8165 162.378 43.0257 162.547C42.8044 162.594 42.5957 162.633 42.4027 162.664L42.1343 162.705C42.0589 162.716 42.0017 162.723 41.9646 162.727C41.8118 162.743 41.6749 162.632 41.6588 162.48C41.6426 162.327 41.7533 162.19 41.9061 162.174L42.039 162.157C42.0787 162.152 42.125 162.145 42.1775 162.137C42.3981 162.104 42.6444 162.059 42.9098 162.003C43.6677 161.841 44.4252 161.615 45.1297 161.313C47.0694 160.483 48.2259 159.265 48.2639 157.581L48.271 157.188C48.3012 155.031 48.2265 151.256 48.0707 146.301L48.0056 144.3C47.9746 143.38 47.9416 142.436 47.9067 141.473L47.7815 138.128L47.6079 133.806L47.536 132.111C47.5292 131.957 47.6482 131.828 47.8016 131.821Z" fill="#373737"/>
<path d="M32.8438 169.079L45.8575 172.295C45.95 172.318 46.0233 172.386 46.0537 172.474L46.0652 172.52L51.9159 208.121L52.1621 208.193C52.2375 208.214 52.3177 208.236 52.4026 208.259L52.5337 208.294C53.1766 208.462 53.9269 208.63 54.7771 208.788C62.5008 210.217 71.5777 209.765 81.1285 206.095C81.2718 206.04 81.4327 206.112 81.4878 206.255C81.5429 206.398 81.4713 206.559 81.328 206.614C71.6728 210.325 62.4939 210.781 54.6759 209.334C53.8121 209.175 53.0486 209.003 52.3929 208.832L52.131 208.761C52.0485 208.739 51.9708 208.717 51.8979 208.696L51.6845 208.632C51.6385 208.618 51.6043 208.607 51.5821 208.6C51.4978 208.572 51.4328 208.506 51.4054 208.424L51.3949 208.381L45.5456 172.791L32.7104 169.619C32.5763 169.586 32.4891 169.461 32.4999 169.327L32.5072 169.282C32.5404 169.148 32.6658 169.061 32.7992 169.072L32.8438 169.079Z" fill="#373737"/>
<path fill-rule="evenodd" clip-rule="evenodd" d="M2.00832 336.382C2.00832 336.382 4.01475 340.112 13.6221 339.292C23.2301 338.471 27.5433 334.045 32.575 333.186C41.9295 331.588 45.9334 328.945 45.9334 328.945C45.9334 328.945 46.4666 330.355 45.7288 332.31C44.5899 335.324 35.7122 334.631 30.5656 337.234C26.8419 339.117 23.9197 340.21 17.6616 341.884C11.4043 343.558 3.39488 341.985 2.405 339.889C1.41513 337.794 2.00832 336.382 2.00832 336.382Z" fill="#A3B5D6"/>
<path fill-rule="evenodd" clip-rule="evenodd" d="M13.3549 186.702C13.3549 186.702 4.74935 187.092 4.30521 184.771C2.58572 175.766 2.4834 164.907 2.4834 164.907C2.4834 164.907 3.14257 159.962 6.85959 159.411C10.3683 158.892 13.4476 164.092 15.5223 168.593C18.3213 174.666 16.5322 178.359 16.5529 185.064C16.5589 187.193 16.1607 188.376 13.3549 186.702Z" fill="#FFC999"/>
<path fill-rule="evenodd" clip-rule="evenodd" d="M63.9311 338.736C63.9311 338.736 75.226 344.294 87.1171 338.153C88.0039 341.822 87.123 345.447 75.4329 345.6C69.4551 345.678 66.1414 344.352 64.4375 343.321C62.6802 342.257 63.5262 339.716 63.9311 338.736Z" fill="#A3B5D6"/>
<path d="M45.2303 172.274C45.3685 172.273 45.4847 172.372 45.5081 172.503L45.5124 172.548L46.0048 206.389C46.0063 206.497 45.9446 206.597 45.8467 206.644C43.4003 207.814 40.6333 208.608 37.6046 209.067C32.538 209.835 27.1248 209.636 21.9279 208.84C21.0342 208.703 20.2134 208.557 19.4775 208.41L19.2055 208.355C19.0364 208.321 18.8795 208.287 18.7352 208.256L18.2015 208.134C18.0524 208.097 17.9615 207.946 17.9985 207.797C18.0354 207.648 18.1862 207.557 18.3352 207.594L18.5868 207.653L19.0003 207.744C19.1006 207.766 19.2063 207.788 19.3175 207.811C20.1124 207.974 21.0163 208.138 22.0122 208.29C27.1582 209.079 32.5181 209.276 37.5212 208.518C40.3633 208.087 42.9661 207.357 45.2784 206.296L45.4458 206.217L44.9564 172.557C44.9544 172.418 45.0535 172.302 45.1853 172.279L45.2303 172.274Z" fill="#373737"/>
<path d="M42.6227 173.482C42.7699 173.438 42.9246 173.522 42.9681 173.67C43.0072 173.802 42.943 173.941 42.8224 173.999L42.7802 174.015L32.269 177.12C32.1217 177.163 31.9671 177.079 31.9236 176.932C31.8844 176.799 31.9486 176.661 32.0693 176.602L32.1115 176.586L42.6227 173.482Z" fill="#373737"/>
<path d="M22.5552 131.253L26.1712 131.219L30.8486 131.186C35.8481 131.156 40.9119 131.145 45.7754 131.161L49.311 131.177C57.6896 131.227 64.359 131.36 68.7155 131.594C68.8688 131.603 68.9864 131.734 68.9782 131.887C68.9699 132.04 68.8389 132.158 68.6856 132.15L67.4667 132.089C63.1368 131.893 56.9304 131.778 49.3072 131.733L48.4039 131.728C42.7548 131.698 36.7585 131.707 30.8517 131.742L26.1758 131.775L22.5616 131.809C22.408 131.811 22.2821 131.688 22.2803 131.534C22.2786 131.381 22.4017 131.255 22.5552 131.253Z" fill="#373737"/>
<path d="M62.353 132.573C62.5027 132.539 62.6517 132.633 62.6855 132.783L62.7213 132.933C62.7515 133.058 62.788 133.203 62.8308 133.366C62.9531 133.833 63.1009 134.355 63.2745 134.916C63.7703 136.519 64.3723 138.123 65.0822 139.617C66.7315 143.089 68.6993 145.431 70.9629 146.133C71.1095 146.178 71.1916 146.334 71.1461 146.481C71.1006 146.627 70.9449 146.71 70.7982 146.664C68.3473 145.904 66.2899 143.456 64.5799 139.856C63.8575 138.335 63.2463 136.707 62.7432 135.08C62.5965 134.606 62.4679 134.159 62.3571 133.749L62.2613 133.386L62.1431 132.906C62.1093 132.756 62.2032 132.607 62.353 132.573Z" fill="#373737"/>
<path d="M65.8715 132.288C66.0027 132.208 66.1737 132.25 66.2535 132.381L66.3511 132.548L66.5038 132.822C66.5406 132.889 66.5792 132.961 66.6196 133.037C66.9072 133.577 67.2272 134.223 67.5716 134.977C68.5537 137.125 69.5352 139.697 70.4508 142.693C71.9174 147.491 73.072 152.913 73.7972 158.955L73.9564 160.341C74.2771 163.249 74.6558 167.322 75.082 172.379L75.4305 176.603C75.5194 177.701 75.6096 178.83 75.701 179.989L75.8113 181.394C76.198 186.344 76.5901 191.601 76.9722 196.898L77.4458 203.556L77.7195 207.504C77.7299 207.657 77.6141 207.79 77.4609 207.801C77.3077 207.811 77.1751 207.695 77.1646 207.542L76.5931 199.384L76.3292 195.717C76.0047 191.242 75.6739 186.811 75.3462 182.585L75.0375 178.657L74.6539 173.934C74.1022 167.284 73.6254 162.19 73.245 159.021C72.5238 153.012 71.376 147.623 69.919 142.856C69.0106 139.884 68.0379 137.334 67.0658 135.208C66.8017 134.63 66.5524 134.117 66.3218 133.667L66.1288 133.298C66.05 133.15 65.9784 133.019 65.9145 132.906L65.7783 132.67C65.6985 132.538 65.7402 132.367 65.8715 132.288Z" fill="#373737"/>
<path d="M80.3996 199.831C80.5342 199.757 80.7033 199.806 80.7772 199.941C80.8511 200.075 80.802 200.244 80.6674 200.318C77.9416 201.815 73.8291 202.625 68.6928 202.878C64.8829 203.066 60.8048 202.936 56.8282 202.604L56.137 202.545C55.5741 202.494 55.0444 202.442 54.5523 202.389L53.8149 202.307L53.3073 202.245C53.155 202.225 53.0478 202.086 53.0678 201.933C53.0878 201.781 53.2275 201.674 53.3798 201.694L53.8795 201.755L54.3225 201.805C55.0808 201.889 55.9374 201.972 56.8744 202.05C60.8284 202.379 64.8833 202.509 68.6655 202.323C73.7245 202.074 77.7649 201.278 80.3996 199.831Z" fill="#373737"/>
<path d="M45.3511 200.276C45.4966 200.227 45.6544 200.305 45.7036 200.45C45.7529 200.595 45.6748 200.753 45.5294 200.802C37.6019 203.485 29.7395 203.637 22.7555 202.287C21.8397 202.11 21.024 201.92 20.3184 201.73L20.0364 201.652C19.9474 201.627 19.8635 201.603 19.7848 201.58L19.4432 201.474C19.2976 201.425 19.2191 201.267 19.2679 201.122C19.3167 200.976 19.4743 200.898 19.6199 200.947L19.8321 201.013L20.0615 201.081C20.184 201.116 20.3179 201.154 20.463 201.193C21.156 201.379 21.9587 201.566 22.8611 201.741C29.7575 203.074 37.5251 202.924 45.3511 200.276Z" fill="#373737"/>
<path d="M17.6888 72.1628C17.8935 72.1628 18.0596 72.3285 18.0598 72.5332L18.0656 73.2349C18.0724 73.8087 18.0844 74.4746 18.1029 75.2248L18.128 76.1586C18.1834 78.0555 18.2698 80.1262 18.3936 82.3321C18.8062 89.6841 19.5433 97.0357 20.6852 103.894C21.3224 107.721 22.0708 111.29 22.9382 114.552C22.9658 114.656 22.947 114.767 22.8866 114.856L22.8098 114.974C22.7577 115.058 22.6907 115.17 22.6124 115.308C22.4014 115.68 22.1901 116.102 21.9928 116.564C21.1064 118.643 20.7995 120.777 21.4041 122.75C21.729 123.811 22.3133 124.793 23.1879 125.682L23.2479 125.741L25.5564 125.711C26.2104 125.704 26.911 125.696 27.654 125.689C34.2442 125.626 41.1429 125.612 47.6799 125.675L49.1817 125.691C57.1881 125.785 63.7272 125.994 68.2882 126.341C68.4923 126.356 68.6453 126.534 68.6297 126.738C68.6142 126.943 68.4361 127.096 68.232 127.08L67.4262 127.022C63.0243 126.717 56.9572 126.529 49.6325 126.438L49.173 126.433C42.7013 126.357 35.8152 126.362 29.1861 126.417L25.8956 126.449L23.104 126.485C23.0061 126.486 22.9116 126.449 22.841 126.381C21.7824 125.362 21.0773 124.215 20.6951 122.968C20.031 120.799 20.362 118.498 21.3108 116.273C21.5195 115.784 21.7432 115.337 21.9674 114.942C22.0265 114.838 22.0826 114.743 22.1349 114.657L22.1797 114.583L22.0686 114.16C21.3101 111.229 20.6451 108.062 20.068 104.693L19.9538 104.016C18.807 97.1279 18.0672 89.7506 17.6532 82.3736C17.5291 80.1608 17.4424 78.0834 17.3868 76.18L17.3616 75.243C17.3477 74.678 17.3375 74.1604 17.3303 73.6936L17.3184 72.5339C17.3184 72.3292 17.484 72.1628 17.6888 72.1628Z" fill="#A3B5D6"/>
<path d="M2.34533 94.9396C2.39432 94.7408 2.5952 94.6193 2.79401 94.6683L3.31842 94.7938L4.10739 94.9762C4.31908 95.0244 4.54133 95.0744 4.77353 95.1259C6.32198 95.4697 7.99341 95.8134 9.72519 96.1343C11.9161 96.5402 14.0452 96.8795 16.0521 97.1302C17.2185 97.276 18.3291 97.3898 19.3757 97.4688C19.5798 97.4842 19.7329 97.6622 19.7174 97.8664C19.702 98.0706 19.524 98.2236 19.3198 98.2082C18.2606 98.1282 17.1381 98.0132 15.9602 97.866C13.9377 97.6133 11.7945 97.2717 9.59013 96.8633C8.04266 96.5767 6.54343 96.2718 5.13617 95.9649L4.61284 95.8498C4.14575 95.7461 3.71851 95.6487 3.33605 95.5595L2.61659 95.3883C2.41779 95.3393 2.29634 95.1384 2.34533 94.9396Z" fill="#A3B5D6"/>
<path d="M57.461 53.0694C57.6352 52.9617 57.8636 53.0156 57.9713 53.1897C58.0791 53.3638 58.0252 53.5923 57.8511 53.7C50.4598 58.2717 42.969 58.6567 36.2641 56.5692C35.4388 56.3122 34.7025 56.0366 34.0644 55.7606C33.9298 55.7023 33.8052 55.6465 33.691 55.5935L33.3693 55.4387C33.3233 55.4156 33.2889 55.3978 33.2661 55.3855C33.0857 55.2886 33.0181 55.0638 33.115 54.8835C33.212 54.7031 33.4367 54.6355 33.6171 54.7324L33.801 54.825L34.0037 54.9212C34.112 54.9714 34.2304 55.0245 34.3589 55.08C34.9734 55.346 35.6851 55.6124 36.4845 55.8613C42.9999 57.8898 50.272 57.5159 57.461 53.0694Z" fill="#A3B5D6"/>
<path d="M32.0656 49.508C32.2104 49.3632 32.4451 49.3632 32.5899 49.508L32.6722 49.586C32.698 49.6097 32.7287 49.6375 32.7644 49.6692C32.9163 49.8039 33.0982 49.9548 33.3097 50.1179C33.9172 50.5864 34.6375 51.0559 35.4668 51.4946C41.1437 54.4979 48.2727 54.5138 56.68 49.524C56.856 49.4195 57.0835 49.4775 57.188 49.6536C57.2925 49.8297 57.2345 50.0571 57.0584 50.1616C48.4223 55.2873 41.019 55.2708 35.12 52.15C34.2522 51.6909 33.4967 51.1985 32.8569 50.705C32.6317 50.5314 32.4367 50.3697 32.2724 50.2238L32.1669 50.1286C32.1217 50.087 32.0879 50.0546 32.0656 50.0323C31.9208 49.8875 31.9208 49.6528 32.0656 49.508Z" fill="#A3B5D6"/>
<path d="M87.4475 95.0563C87.6514 95.0372 87.8322 95.1868 87.8514 95.3907C87.869 95.5776 87.7447 95.7451 87.5668 95.7865L87.517 95.7946L71.6086 97.2923C71.4048 97.3115 71.224 97.1618 71.2048 96.958C71.1872 96.7711 71.3115 96.6036 71.4894 96.5622L71.5391 96.5541L87.4475 95.0563Z" fill="#A3B5D6"/>
<path d="M65.0233 86.8408C65.1502 86.7572 65.3208 86.7924 65.4043 86.9193L76.001 103.069C77.6952 105.664 78.8947 107.513 79.4793 108.434C79.5607 108.562 79.5227 108.732 79.3944 108.814C79.2661 108.895 79.0961 108.857 79.0147 108.729L77.738 106.745C76.7316 105.193 75.3022 103.003 73.5298 100.296L70.2322 95.2667L64.9448 87.2218C64.8612 87.0949 64.8964 86.9243 65.0233 86.8408Z" fill="#DD936F"/>
<path d="M25.5953 131.464C25.7465 131.49 25.8474 131.635 25.8207 131.786L25.7373 132.22L25.6483 132.649C25.6006 132.873 25.548 133.109 25.4907 133.356C25.2175 134.531 24.8919 135.707 24.5142 136.805C23.2873 140.375 21.8084 142.376 19.9654 141.907C19.8166 141.869 19.7266 141.718 19.7645 141.569C19.8024 141.42 19.9537 141.33 20.1025 141.368C21.5184 141.728 22.8562 139.918 23.9883 136.625C24.3591 135.546 24.6798 134.388 24.949 133.23L25.0558 132.758C25.0893 132.606 25.1206 132.459 25.1499 132.318L25.2582 131.77C25.2643 131.738 25.2692 131.711 25.2731 131.689C25.2971 131.553 25.4164 131.458 25.5502 131.459L25.5953 131.464Z" fill="#373737"/>
<path fill-rule="evenodd" clip-rule="evenodd" d="M45.5928 128.708C45.5802 129.246 45.01 129.669 44.3182 129.653C43.6272 129.638 43.0755 129.189 43.0881 128.651C43.1007 128.113 43.6702 127.69 44.3627 127.705C45.0538 127.721 45.6047 128.169 45.5928 128.708Z" fill="#373737"/>
<path fill-rule="evenodd" clip-rule="evenodd" d="M10.2285 178.448C10.2285 178.448 7.17432 184.611 6.36463 200.187C6.33794 200.702 6.93779 202.076 7.44867 202.015C8.91457 201.839 9.01541 199.812 9.01541 199.812C9.01541 199.812 8.97833 187.608 11.8226 181.826C12.2735 180.374 10.2285 178.448 10.2285 178.448Z" fill="#BF5F82"/>
<path d="M7.96152 177.078C8.1095 177.082 8.35254 177.115 8.65953 177.203C9.16502 177.348 9.66964 177.599 10.1399 177.983C11.0718 178.743 11.7455 179.92 12.0584 181.578L12.1629 182.169C12.7877 185.531 13.8874 186.802 15.3524 186.834C15.5043 186.837 15.6247 186.963 15.6215 187.115C15.6181 187.267 15.4922 187.387 15.3403 187.384C13.5418 187.345 12.2476 185.812 11.5864 182.073L11.5516 181.871C11.2778 180.234 10.6547 179.113 9.79203 178.409C9.38261 178.075 8.94476 177.857 8.50777 177.732C8.24928 177.657 8.05249 177.631 7.94915 177.628C7.79726 177.625 7.6769 177.499 7.68024 177.347C7.68373 177.195 7.80963 177.075 7.96152 177.078Z" fill="#DD936F"/>
<path d="M16.5393 332.79C16.722 332.736 16.9142 332.84 16.9687 333.023C17.0231 333.205 16.9192 333.398 16.7365 333.452C12.5469 334.701 9.13791 334.703 6.53841 333.951C5.87938 333.761 5.43035 333.567 5.19399 333.432C5.02848 333.337 4.97098 333.127 5.06555 332.961C5.16013 332.796 5.37097 332.738 5.53648 332.833L5.59625 332.864C5.64774 332.89 5.72251 332.926 5.82047 332.968C6.07229 333.076 6.37563 333.186 6.73021 333.288C9.20334 334.004 12.4773 334.001 16.5393 332.79Z" fill="#A3B5D6"/>
<path d="M20.7539 321.835L20.876 321.856C20.9113 321.863 20.9519 321.871 20.9974 321.88C21.1844 321.917 21.3921 321.965 21.6155 322.025C22.254 322.195 22.8928 322.425 23.4921 322.725C24.3484 323.153 25.053 323.689 25.5501 324.35C25.6732 324.513 25.6403 324.746 25.4767 324.869C25.313 324.992 25.0806 324.959 24.9575 324.795C24.5373 324.237 23.9219 323.769 23.1604 323.388C22.6103 323.113 22.0175 322.899 21.4244 322.741C21.2167 322.686 21.0242 322.641 20.852 322.607L20.7031 322.579C20.6779 322.574 20.658 322.571 20.6439 322.569C20.4414 322.538 20.3019 322.35 20.3323 322.147C20.3601 321.961 20.5211 321.829 20.7036 321.831L20.7539 321.835Z" fill="#A3B5D6"/>
<path d="M82.864 332.734C82.86 332.53 83.0228 332.36 83.2275 332.356C83.4152 332.353 83.5729 332.489 83.601 332.67L83.6054 332.72C83.6072 332.906 83.5467 333.171 83.3748 333.487C83.1113 333.971 82.6467 334.443 81.9411 334.871C80.8879 335.511 79.3661 336.015 77.299 336.341C74.2711 336.818 71.5537 336.421 69.2257 335.465C68.6511 335.23 68.1455 334.977 67.7128 334.723C67.4497 334.568 67.2671 334.446 67.1689 334.373C67.0048 334.25 66.9712 334.018 67.0938 333.854C67.2164 333.69 67.4487 333.656 67.6127 333.779L67.6858 333.831C67.7744 333.892 67.909 333.978 68.088 334.083C68.4914 334.32 68.9659 334.557 69.5072 334.779C71.7156 335.686 74.2977 336.063 77.1835 335.609C79.1615 335.296 80.5932 334.823 81.5561 334.238C82.1533 333.875 82.5248 333.498 82.7235 333.133C82.8188 332.958 82.8553 332.828 82.8626 332.757L82.864 332.734Z" fill="#A3B5D6"/>
<path d="M75.9433 324.683C78.2371 324.643 80.0344 324.867 81.174 325.44C81.357 325.532 81.4307 325.755 81.3388 325.938C81.2468 326.121 81.024 326.194 80.841 326.102C79.838 325.598 78.1382 325.386 75.9564 325.425C74.6726 325.447 73.2952 325.555 71.9081 325.719C71.3566 325.785 70.8417 325.855 70.3777 325.925L69.7966 326.018C69.5949 326.054 69.4028 325.919 69.3674 325.717C69.3321 325.515 69.467 325.323 69.6687 325.288L70.1463 325.211L70.2668 325.192C70.7383 325.121 71.2609 325.05 71.8206 324.983C73.2306 324.816 74.6318 324.706 75.9433 324.683Z" fill="#A3B5D6"/>
<path d="M52.9329 34.4866C53.0745 34.5418 53.1445 34.7012 53.0893 34.8428L53.0151 35.0272C52.9556 35.1722 52.8873 35.3335 52.8111 35.5072C52.5935 36.0038 52.3565 36.5005 52.1076 36.9652C51.7112 37.7055 51.3227 38.2942 50.9476 38.6808C50.8409 38.7908 50.7352 38.8844 50.63 38.9607C50.507 39.0499 50.335 39.0225 50.2458 38.8996C50.1566 38.7766 50.184 38.6046 50.3069 38.5153C50.3847 38.459 50.4669 38.3861 50.5527 38.2977C50.8845 37.9557 51.2483 37.4044 51.6226 36.7055C51.864 36.2548 52.095 35.7707 52.3072 35.2864L52.461 34.9271L52.5767 34.6431C52.6319 34.5015 52.7913 34.4315 52.9329 34.4866Z" fill="#DD936F"/>
<path d="M30.7966 22.8065C31.9619 21.8722 33.2309 21.4581 34.8247 21.7828C35.5098 21.9224 36.2295 22.2012 36.9878 22.6293C37.2553 22.7802 37.3497 23.1194 37.1988 23.3869C37.0478 23.6544 36.7086 23.7488 36.4411 23.5979C35.7803 23.2249 35.169 22.988 34.6027 22.8726C33.3683 22.6212 32.4197 22.9307 31.4924 23.6742C31.2528 23.8663 30.9028 23.8278 30.7106 23.5882C30.5185 23.3486 30.557 22.9986 30.7966 22.8065Z" fill="#373737"/>
<path fill-rule="evenodd" clip-rule="evenodd" d="M14.9852 260.809L13.0284 193.244L2.7293 193.012L0.0258789 259.373L14.9852 260.809Z" fill="#FAAD14"/>
</g>
<defs>
<clipPath id="clip0_2_1578">
<rect width="88" height="346" fill="white"/>
</clipPath>
</defs>
</svg>
