<svg width="89" height="315" viewBox="0 0 89 315" fill="none" xmlns="http://www.w3.org/2000/svg">
<g clip-path="url(#clip0_2_1524)">
<path fill-rule="evenodd" clip-rule="evenodd" d="M64.4756 68.6737C52.6209 86.4387 36.671 76.0831 32.6262 71.4611C28.0453 66.2256 22.3016 66.8802 20.5562 60.4818C18.5597 53.1615 24.1439 48.4846 23.0531 45.2122C19.7815 32.5611 28.7813 37.1063 27.3907 29.2894C25.0666 16.2262 27.0708 16.4803 32.6262 7.18525C39.2516 -3.90171 46.2953 1.24859 46.2953 1.24859C46.2953 1.24859 56.0382 -1.10345 60.4006 11.9846C61.19 14.3506 64.3997 15.7652 64.4725 21.7274C64.6576 36.9196 72.8782 38.1212 74.5066 48.4846C76.2071 59.3035 68.4019 62.5658 64.4756 68.6737Z" fill="#373737"/>
<path fill-rule="evenodd" clip-rule="evenodd" d="M58.2605 23.8301C58.8563 20.0735 56.0742 20.4887 56.0742 20.4887C56.0742 20.4887 54.7293 24.3948 54.6294 27.5557C58.558 27.5944 58.2605 23.8301 58.2605 23.8301Z" fill="#F4B784"/>
<path fill-rule="evenodd" clip-rule="evenodd" d="M31.3347 23.8301C30.7397 20.0735 34.2957 20.4887 34.2957 20.4887C34.2957 20.4887 35.6406 24.3948 35.7405 27.5557C31.8119 27.5944 31.3347 23.8301 31.3347 23.8301Z" fill="#F4B784"/>
<path fill-rule="evenodd" clip-rule="evenodd" d="M45.2712 50.415C41.8183 50.415 39.0588 47.5439 38.4204 44.0941L38.9449 30.7837H50.8221L51.3473 44.0941C51.4837 47.5439 48.7234 50.415 45.2712 50.415Z" fill="#F4B784"/>
<path d="M45.6205 31.174C45.7843 31.1631 45.9259 31.2869 45.9368 31.4507C45.9466 31.598 45.8473 31.7274 45.708 31.7598L45.6601 31.7669L44.6274 31.8359C44.4637 31.8468 44.3221 31.7229 44.3112 31.5592C44.3014 31.4119 44.4007 31.2824 44.54 31.2501L44.5879 31.243L45.6205 31.174Z" fill="#DD936F"/>
<path fill-rule="evenodd" clip-rule="evenodd" d="M55.7515 23.0723C54.8017 31.4702 50.9661 36.7057 45.0636 36.7057C39.1602 36.7057 35.0233 30.5739 34.3748 23.0723C33.291 10.5304 39.1602 7.03955 45.0636 7.03955C50.9661 7.03955 57.2026 10.2422 55.7515 23.0723Z" fill="#FFC999"/>
<path fill-rule="evenodd" clip-rule="evenodd" d="M57.0566 13.2933C55.7473 8.21964 53.276 3.11348 45.8588 4.42275C36.9155 -0.37661 23.1171 19.8807 31.4623 20.7569C39.3156 21.5819 38.4061 15.4369 40.0678 11.4029C41.5948 7.69438 44.4047 11.8391 44.4047 11.8391C44.4047 11.8391 45.9572 10.0937 47.7019 10.7483C50.6264 11.8445 47.4586 17.6557 54.875 21.2914C55.7783 21.7338 54.9989 26.7865 55.3119 26.3813C56.7661 24.4902 58.3651 18.3645 57.0566 13.2933Z" fill="#373737"/>
<path d="M36.7647 15.9652L42.0002 16.8879C42.2109 16.925 42.3516 17.1259 42.3145 17.3366C42.2804 17.5297 42.1088 17.664 41.9181 17.6565L41.8658 17.6508L36.6302 16.7281C36.4196 16.691 36.2789 16.4901 36.316 16.2794C36.35 16.0863 36.5217 15.952 36.7123 15.9595L36.7647 15.9652Z" fill="#373737"/>
<path d="M53.0914 16.252C53.3043 16.2306 53.4941 16.3859 53.5155 16.5987C53.5351 16.7938 53.4063 16.9696 53.2207 17.014L53.1687 17.0228L46.868 17.655C46.6551 17.6763 46.4652 17.5211 46.4439 17.3082C46.4243 17.1131 46.5531 16.9373 46.7387 16.8929L46.7906 16.8841L53.0914 16.252Z" fill="#373737"/>
<path d="M42.5417 17.6738C42.6772 17.615 42.8325 17.6651 42.9098 17.7854L42.9325 17.8281L43.732 19.6712C43.744 19.6988 43.7517 19.7281 43.7549 19.7579L43.7563 19.8029L43.4749 25.9697L44.9834 26.6166C45.1191 26.6748 45.1893 26.8221 45.1549 26.9609L45.1394 27.0067C45.0813 27.1424 44.934 27.2126 44.7951 27.1782L44.7493 27.1628L43.0519 26.4353C42.9524 26.3926 42.8851 26.2999 42.8736 26.1945L42.8722 26.1487L43.1594 19.8443L42.3874 18.0646C42.3286 17.9291 42.3787 17.7738 42.4991 17.6965L42.5417 17.6738Z" fill="#DD936F"/>
<path d="M39.3152 19.6194C40.3906 19.6194 41.2295 20.6383 41.2295 21.8614C41.2295 22.0754 41.0561 22.2488 40.8422 22.2488C40.6282 22.2488 40.4548 22.0754 40.4548 21.8614C40.4548 21.0365 39.9259 20.3941 39.3152 20.3941C38.7041 20.3941 38.1756 21.0362 38.1756 21.8614C38.1756 22.0754 38.0022 22.2488 37.7882 22.2488C37.5743 22.2488 37.4009 22.0754 37.4009 21.8614C37.4009 20.638 38.2393 19.6194 39.3152 19.6194Z" fill="#373737"/>
<path d="M49.7854 19.6194C50.8613 19.6194 51.6998 20.638 51.6998 21.8614C51.6998 22.0754 51.5263 22.2488 51.3124 22.2488C51.0985 22.2488 50.925 22.0754 50.925 21.8614C50.925 21.0362 50.3965 20.3941 49.7854 20.3941C49.1743 20.3941 48.6458 21.0362 48.6458 21.8614C48.6458 22.0754 48.4724 22.2488 48.2585 22.2488C48.0445 22.2488 47.8711 22.0754 47.8711 21.8614C47.8711 20.638 48.7095 19.6194 49.7854 19.6194Z" fill="#373737"/>
<path d="M41.698 28.4902C41.758 28.8027 41.924 29.245 42.2535 29.6892C42.8068 30.4351 43.6389 30.887 44.7682 30.887C45.987 30.887 46.8426 30.4667 47.3654 29.7615C47.683 29.333 47.8157 28.9048 47.8445 28.5983C47.8658 28.371 47.6871 28.1747 47.4588 28.1747L46.9006 28.1725C46.0847 28.1664 45.2206 28.1479 44.3425 28.1202L43.2935 28.0831L42.0984 28.0303C41.8474 28.0173 41.6506 28.2433 41.698 28.4902ZM42.6501 28.8601L42.6362 28.8305L43.2631 28.8572C43.4326 28.8638 43.6075 28.8704 43.7869 28.8767L44.3185 28.8945C45.0255 28.9168 45.7237 28.9333 46.3959 28.9421L46.9462 28.9477L46.9354 28.9745C46.8844 29.0859 46.8207 29.1954 46.743 29.3001C46.3681 29.8059 45.7444 30.1122 44.7682 30.1122C43.8937 30.1122 43.2878 29.7832 42.8757 29.2276C42.7881 29.1096 42.7132 28.9859 42.6501 28.8601Z" fill="#C44343"/>
<path d="M45.641 32.1775C45.805 32.1775 45.9381 32.3105 45.9381 32.4746C45.9381 32.6223 45.8303 32.7448 45.6892 32.7678L45.641 32.7717H44.114C43.9499 32.7717 43.8169 32.6387 43.8169 32.4746C43.8169 32.3269 43.9246 32.2044 44.0658 32.1814L44.114 32.1775H45.641Z" fill="#DD936F"/>
<path fill-rule="evenodd" clip-rule="evenodd" d="M56.5259 26.4905C56.4585 26.2767 56.1548 26.2829 56.0967 26.499C55.5792 28.411 54.3738 33.559 56.3718 33.6799C58.6247 33.817 57.1388 28.442 56.5259 26.4905Z" fill="white"/>
<path fill-rule="evenodd" clip-rule="evenodd" d="M33.8882 26.4905C33.8208 26.2767 33.5171 26.2829 33.459 26.499C32.9415 28.411 31.7361 33.559 33.7341 33.6799C35.9869 33.817 34.501 28.442 33.8882 26.4905Z" fill="white"/>
<path fill-rule="evenodd" clip-rule="evenodd" d="M4.03095 91.9601C0.89412 89.8676 0.0411607 85.5354 2.08564 82.0863L18.5112 53.2762C21.2358 48.6822 25.3248 46.3541 29.5029 49.1423C33.6329 51.8972 32.9651 58.0221 29.8755 62.3016L13.9706 89.8606C11.5945 93.1516 7.20651 94.0782 4.03095 91.9601Z" fill="#FFC999"/>
<path fill-rule="evenodd" clip-rule="evenodd" d="M22.8203 74.5556L11.0415 65.1761L18.2394 52.088C21.762 45.7144 26.1035 46.0321 31.6094 46.985L31.3577 47.253C35.8239 49.9103 36.0571 57.5668 33.3216 61.9858L22.8203 74.5556Z" fill="#8E8E8E"/>
<path fill-rule="evenodd" clip-rule="evenodd" d="M26.4931 96.8886L27.5506 104.592C27.5506 104.592 7.50871 97.6385 2.82245 91.9196C-4.78216 82.64 10.6665 80.2314 10.6665 80.2314L26.4931 96.8886Z" fill="#FFC999"/>
<path d="M9.95084 80.9089C11.5444 80.9089 13.0208 81.8369 14.3486 83.3742C14.8089 83.9072 15.2184 84.4775 15.5727 85.0478C15.6657 85.1975 15.75 85.3394 15.8251 85.4713L15.9554 85.7069C15.9803 85.7534 15.9988 85.789 16.0107 85.8129C16.0578 85.907 16.0196 86.0215 15.9255 86.0686C15.8313 86.1156 15.7168 86.0775 15.6698 85.9833L15.6187 85.8855L15.5635 85.784C15.4745 85.6228 15.3694 85.4428 15.2489 85.2489C14.9045 84.6945 14.5063 84.1401 14.0601 83.6234C12.7976 82.1616 11.4111 81.2901 9.95084 81.2901C9.84558 81.2901 9.76025 81.2048 9.76025 81.0995C9.76025 80.9943 9.84558 80.9089 9.95084 80.9089Z" fill="#DD936F"/>
<path d="M10.8142 64.9946C10.9031 64.883 11.0574 64.8542 11.1787 64.9194L11.2225 64.9483L22.7725 74.1456L23.7919 72.8486C23.88 72.7364 24.0341 72.7067 24.1559 72.7711L24.1998 72.7996C24.312 72.8878 24.3417 73.0419 24.2773 73.1636L24.2487 73.2076L23.0487 74.7346C22.9602 74.8472 22.8052 74.8766 22.6833 74.8113L22.6393 74.7823L10.8605 65.4028C10.735 65.3028 10.7143 65.1201 10.8142 64.9946Z" fill="#373737"/>
<path fill-rule="evenodd" clip-rule="evenodd" d="M85.7488 91.9756C88.7795 89.732 89.4194 85.3626 87.2084 82.0189L70.6976 53.803C67.7522 49.3484 62.247 47.4674 58.21 50.4562C54.2202 53.4102 55.187 59.4956 58.4827 63.6187L75.7178 90.3649C78.2526 93.5359 82.6809 94.247 85.7488 91.9756Z" fill="#FFC999"/>
<path fill-rule="evenodd" clip-rule="evenodd" d="M65.8991 75.1798L77.6786 65.8003L70.48 52.713C67.9033 48.1987 61.1609 45.6879 57.5608 49.0602L57.3625 47.8772C52.8955 50.5345 52.663 58.191 55.3986 62.61L65.8991 75.1798Z" fill="#8E8E8E"/>
<path fill-rule="evenodd" clip-rule="evenodd" d="M39.8733 233.494C39.8872 233.295 38.2301 282.743 38.4106 286.289C38.9017 295.966 40.0816 297.238 35.0491 300.072C33.76 300.797 31.7248 300.158 29.7508 302.623C24.3472 309.37 16.1514 313.454 14.9026 309.803C14.0395 306.366 26.9936 294.604 27.9736 287.359C28.9916 279.834 20.7641 221.57 25.6603 217.082C30.5565 212.595 35.9989 192.9 39.8733 233.494Z" fill="#FFC999"/>
<path fill-rule="evenodd" clip-rule="evenodd" d="M38.4444 301.144C38.4444 301.144 39.8529 295.801 38.4405 289.422C38.4405 289.422 34.2896 293.628 30.7166 298.184C26.5897 303.444 25.5377 303.755 25.5377 303.755C20.1023 305.764 18.6899 302.666 18.6899 302.666C18.6899 302.666 15.8824 306.7 10.423 311.173C5.5345 315.179 25.3331 314.9 27.7743 309.766C30.2154 304.634 33.6257 301.53 33.6257 301.53L35.5725 309.011L37.452 308.859L38.4444 301.144Z" fill="#373737"/>
<path fill-rule="evenodd" clip-rule="evenodd" d="M44.4749 197.01L44.746 269.064L13.1841 267.853C13.1841 267.853 13.0446 235.4 13.9441 196.638C13.9441 196.638 12.9935 173.945 28.9898 173.945C44.9854 173.945 44.4749 197.01 44.4749 197.01Z" fill="#E1E2E1"/>
<path fill-rule="evenodd" clip-rule="evenodd" d="M14.0795 193.426C14.886 162.182 16.4029 123.628 19.2469 116.803C19.2469 116.803 22.737 112.681 33.2073 119.225C45.4152 126.855 44.3089 137.984 44.3089 137.984L44.4623 194.497C44.2129 198.629 43.7806 211.46 27.8261 211.46C12.121 211.46 14.0617 194.106 14.0795 193.426Z" fill="#E1E2E1"/>
<path fill-rule="evenodd" clip-rule="evenodd" d="M49.8595 233.614C49.8456 233.415 51.5027 282.864 51.3222 286.41C50.8311 296.087 49.6511 297.358 54.6837 300.192C55.9728 300.918 58.008 300.279 59.982 302.743C65.3856 309.491 73.5814 313.575 74.8302 309.923C75.6932 306.486 62.7392 294.725 61.7592 287.48C60.7412 279.954 68.9687 221.69 64.0725 217.202C59.1763 212.715 53.7339 193.021 49.8595 233.614Z" fill="#FFC999"/>
<path fill-rule="evenodd" clip-rule="evenodd" d="M51.2879 301.264C51.2879 301.264 49.8795 295.921 51.2918 289.542C51.2918 289.542 55.4427 293.748 59.0157 298.304C63.1426 303.564 64.1947 303.876 64.1947 303.876C69.6301 305.884 71.0424 302.787 71.0424 302.787C71.0424 302.787 73.85 306.82 79.3094 311.294C84.1978 315.299 64.3992 315.02 61.9581 309.887C59.5169 304.754 56.1066 301.651 56.1066 301.651L54.1598 309.131L52.2796 308.979L51.2879 301.264Z" fill="#373737"/>
<path fill-rule="evenodd" clip-rule="evenodd" d="M46.0324 197.13L45.7612 269.185L77.3231 267.974C77.3231 267.974 77.4626 235.521 76.5631 196.759C76.5631 196.759 77.5137 174.066 61.5174 174.066C45.5218 174.066 46.0324 197.13 46.0324 197.13Z" fill="#E1E2E1"/>
<path fill-rule="evenodd" clip-rule="evenodd" d="M76.5254 196.917C75.7189 165.672 74.202 127.119 71.358 120.293C71.358 120.293 67.868 116.17 57.3977 122.715C45.1897 130.344 46.2952 141.474 46.2952 141.474L46.1426 197.987C46.392 202.119 46.8243 214.95 62.7788 214.95C78.4839 214.95 76.5424 197.597 76.5254 196.917Z" fill="#E1E2E1"/>
<path fill-rule="evenodd" clip-rule="evenodd" d="M73.1024 128.8C73.1024 128.8 72.179 110.913 60.2057 101.579L28.2045 101.461C28.2045 101.461 17.1865 111.282 17.1865 129.672C17.1865 129.672 22.7823 130.752 29.2814 134.981C33.5206 137.739 38.2596 141.524 45.6659 141.524C53.217 141.524 57.1789 138.087 61.4685 135.271C67.8375 131.091 73.1024 128.8 73.1024 128.8Z" fill="#E1E2E1"/>
<path fill-rule="evenodd" clip-rule="evenodd" d="M28.0454 101.759L60.3115 101.579L58.8892 96.8157L29.6824 96.849L28.0454 101.759Z" fill="#E1E2E1"/>
<path d="M59.2966 96.5518C59.4607 96.5518 59.5937 96.6848 59.5937 96.8489C59.5937 96.9966 59.486 97.1191 59.3448 97.1421L59.2966 97.146H29.2361C29.072 97.146 28.939 97.013 28.939 96.8489C28.939 96.7012 29.0467 96.5787 29.1879 96.5557L29.2361 96.5518H59.2966Z" fill="#DD936F"/>
<path d="M59.285 101.212C59.4455 101.212 59.5756 101.342 59.5756 101.502C59.5756 101.647 59.4702 101.767 59.3322 101.789L59.285 101.793H29.0293C28.8688 101.793 28.7388 101.663 28.7388 101.502C28.7388 101.358 28.8441 101.238 28.9822 101.216L29.0293 101.212H59.285Z" fill="#A3B5D6"/>
<path d="M44.6479 96.4441C44.7923 96.4441 44.9121 96.5494 44.9347 96.6875L44.9385 96.7346V139.975C44.9385 140.135 44.8084 140.265 44.6479 140.265C44.5035 140.265 44.3837 140.16 44.3612 140.022L44.3574 139.975V96.7346C44.3574 96.5742 44.4875 96.4441 44.6479 96.4441Z" fill="#A3B5D6"/>
<path fill-rule="evenodd" clip-rule="evenodd" d="M65.0268 48.4224C59.0599 46.0874 54.62 47.9971 52.6662 46.2416C51.5111 45.2027 51.6095 40.9805 51.6095 40.9805H37.2005C37.2005 40.9805 37.5104 44.7967 36.3561 45.8356C34.4022 47.5911 29.8144 45.8271 24.4317 48.7439C19.3487 51.4973 21.1368 60.8566 23.464 67.1093C24.0017 68.5549 23.0736 71.2796 23.9722 73.29C24.8771 75.312 26.2515 77.7617 26.7969 79.0702C28.5888 83.3698 28.2208 88.0019 29.3767 91.9033C29.3767 91.9033 27.5352 95.4662 30.4419 96.9126H58.3673C61.8543 95.3206 59.4325 91.9033 59.4325 91.9033C60.5365 88.1801 59.8656 85.1772 61.5018 79.724C61.8295 78.634 63.059 76.9056 64.1079 74.5985C65.7441 70.9992 64.9803 67.5455 65.1987 66.6732C67.1107 59.0267 70.2003 50.4475 65.0268 48.4224Z" fill="#8E8E8E"/>
<path d="M39.6183 47.333L50.0544 47.7957C50.2147 47.8028 50.3389 47.9385 50.3318 48.0988C50.3254 48.243 50.2148 48.358 50.0759 48.3744L50.0287 48.3761L39.5926 47.9135C39.4323 47.9064 39.3081 47.7707 39.3152 47.6104C39.3216 47.4661 39.4322 47.3511 39.5711 47.3347L39.6183 47.333Z" fill="#373737"/>
<path d="M25.6733 58.5502C25.7422 58.4053 25.9155 58.3436 26.0604 58.4125C26.2053 58.4813 26.267 58.6546 26.1981 58.7995L26.1045 59.0075L26.009 59.2302C25.9758 59.3091 25.9414 59.3927 25.9058 59.4807L25.8516 59.6161C25.589 60.2786 25.3262 61.0295 25.0808 61.8536C24.192 64.8387 23.7626 67.9515 24.0434 70.9721C24.2685 73.3915 25.0616 75.3513 26.9978 78.5302L27.1531 78.7837L27.1918 78.8856L27.562 80.9659L27.8022 82.3009C27.9225 82.966 28.0425 83.6256 28.161 84.2715L28.6793 87.0575C29.1348 89.4662 29.4754 91.1418 29.6578 91.8286C29.6772 91.9017 29.6674 91.9796 29.6303 92.0455C28.5629 93.9448 29.3376 96.3642 30.3817 96.6102L30.4422 96.622L58.3855 96.6217L58.474 96.5657L58.5265 96.5295C58.6849 96.4171 58.8442 96.2759 58.993 96.1043C59.7798 95.1973 59.9707 93.8765 59.1663 92.0186C59.1431 91.965 59.1366 91.9057 59.1476 91.8483L59.4547 90.2334C59.9525 87.5857 60.3801 85.1594 60.7407 82.9788L60.9122 81.9288C61.0088 81.3292 61.0947 80.7826 61.1698 80.2907L61.3338 79.1863C61.34 79.1415 61.3567 79.0988 61.3824 79.0615C63.7195 75.6747 64.7461 72.9948 64.909 70.0018C65.0569 67.2728 64.558 64.5587 63.6349 62.0044C63.3505 61.2175 63.0459 60.5048 62.7416 59.8795L62.6181 59.6306C62.5783 59.552 62.5399 59.4777 62.503 59.4079L62.341 59.1127C62.2597 58.9745 62.3058 58.7964 62.4441 58.715C62.5824 58.6336 62.7604 58.6798 62.8418 58.818L62.9286 58.9725L62.9602 59.0306C63.0337 59.1668 63.1138 59.3212 63.1992 59.4931L63.2641 59.6253C63.577 60.2684 63.8896 60.9999 64.1813 61.8069C65.1291 64.4293 65.6417 67.2184 65.4892 70.0333C65.3244 73.0618 64.309 75.7789 62.0421 79.126L61.8996 79.3342L61.7811 80.1362C61.6732 80.8489 61.5416 81.6855 61.3853 82.6398L61.1659 83.9604C60.7867 86.2102 60.3399 88.7025 59.8226 91.413L59.7346 91.8716L59.7733 91.9632C60.5547 93.8794 60.353 95.3497 59.5103 96.3915L59.432 96.4851C59.1209 96.8436 58.8073 97.066 58.5863 97.1737C58.5599 97.1866 58.5317 97.1953 58.5029 97.1997L58.4591 97.203L30.3991 97.1998C28.8895 96.9732 27.9221 94.2205 29.0003 91.9969L29.0666 91.8649L28.972 91.4674C28.7746 90.6054 28.4817 89.1393 28.1132 87.1911L27.8243 85.6488L27.4705 83.7258C27.351 83.0712 27.2304 82.4056 27.1102 81.7373L26.6294 79.0408L26.4998 78.8294C24.5746 75.6682 23.7437 73.6567 23.4846 71.2241L23.4649 71.0259C23.1764 67.9225 23.6156 64.7386 24.524 61.6878C24.7744 60.8467 25.0428 60.0798 25.3115 59.402L25.4213 59.1302C25.4567 59.0442 25.491 58.9627 25.5239 58.886L25.6433 58.615C25.6557 58.5878 25.6657 58.5662 25.6733 58.5502Z" fill="#373737"/>
<path d="M61.0544 69.5093C61.2148 69.5093 61.3449 69.6393 61.3449 69.7998C61.3449 69.9442 61.2395 70.064 61.1015 70.0865L61.0544 70.0903H26.5903C26.4299 70.0903 26.2998 69.9602 26.2998 69.7998C26.2998 69.6554 26.4052 69.5356 26.5432 69.5131L26.5903 69.5093H61.0544Z" fill="#373737"/>
<path fill-rule="evenodd" clip-rule="evenodd" d="M61.1999 96.0471L59.5288 104.054C59.5288 104.054 81.0675 98.2178 86.4014 92.5593C95.0588 83.3758 79.0222 79.7207 79.0222 79.7207L61.1999 96.0471Z" fill="#FFC999"/>
<path fill-rule="evenodd" clip-rule="evenodd" d="M57.1531 95.1932C57.1531 95.1932 60.3953 90.366 61.7959 90.2196C63.9667 89.9934 63.3926 94.417 63.3926 94.417C63.3926 94.417 65.4588 95.232 64.7019 97.5786C65.8919 99.4503 64.9738 100.662 64.9738 100.662C64.9738 100.662 66.4822 101.956 65.0614 103.565C63.6413 105.172 59.7367 105.612 59.7491 102.835C57.9045 101.682 58.8629 99.9515 58.8629 99.9515C58.8629 99.9515 57.4544 98.7817 58.4259 97.1207C57.1755 96.7225 56.8192 95.6999 57.1531 95.1932Z" fill="#FFC999"/>
<path d="M61.8711 93.7619C61.9493 93.6914 62.0698 93.6977 62.1403 93.7759C62.2006 93.843 62.2046 93.9411 62.1553 94.0121L62.1262 94.0451L58.554 97.2625C58.4758 97.3329 58.3553 97.3266 58.2848 97.2484C58.2244 97.1814 58.2204 97.0833 58.2698 97.0123L58.2989 96.9793L61.8711 93.7619Z" fill="#DD936F"/>
<path d="M61.8135 90.0299C62.9406 90.1335 63.5172 90.9842 63.6686 92.2917C63.7338 92.8548 63.7149 93.4532 63.6443 94.0288L63.6205 94.2075L63.6024 94.3245L63.74 94.4218C63.924 94.5577 64.1078 94.7166 64.2798 94.8978C64.9682 95.6231 65.2713 96.4754 64.9663 97.4164L64.9169 97.554L64.9455 97.5952C65.6567 98.652 65.728 99.5832 65.3942 100.336L65.3522 100.426C65.3089 100.513 65.2651 100.588 65.2242 100.649L65.1797 100.711L65.5715 102.51C65.5911 102.6 65.5437 102.689 65.4626 102.725L65.4259 102.737C65.3359 102.757 65.2469 102.709 65.2111 102.628L65.1991 102.591L64.7877 100.703C64.7744 100.641 64.7919 100.578 64.8347 100.532C64.8746 100.489 64.9417 100.396 65.0106 100.257C65.3442 99.5831 65.2876 98.7253 64.547 97.6895C64.5083 97.6354 64.5006 97.565 64.5268 97.5038C64.9002 96.629 64.6543 95.846 64.0033 95.1602C63.8477 94.9963 63.6805 94.8518 63.5135 94.7284C63.4142 94.6551 63.3381 94.6057 63.297 94.5818C63.2266 94.5409 63.19 94.4599 63.2058 94.38L63.2229 94.2851C63.2356 94.2085 63.2508 94.1061 63.266 93.9824C63.3333 93.4343 63.3512 92.8644 63.29 92.3356C63.1569 91.1861 62.6871 90.4929 61.7786 90.4094C61.6738 90.3998 61.5966 90.307 61.6063 90.2022C61.6159 90.0974 61.7087 90.0202 61.8135 90.0299Z" fill="#DD936F"/>
<path d="M62.4667 97.8542C62.56 97.8055 62.6752 97.8416 62.7239 97.9349C62.7666 98.0165 62.7442 98.1149 62.6755 98.1708L62.6432 98.1921L58.9517 100.12C58.8584 100.169 58.7433 100.133 58.6945 100.04C58.6519 99.958 58.6742 99.8597 58.743 99.8037L58.7752 99.7825L62.4667 97.8542Z" fill="#DD936F"/>
<path d="M63.3152 101.18C63.4127 101.14 63.5239 101.187 63.5636 101.284C63.5983 101.37 63.5667 101.465 63.4929 101.515L63.4588 101.533L59.8215 103.012C59.724 103.051 59.6128 103.004 59.5732 102.907C59.5385 102.822 59.5701 102.726 59.6438 102.677L59.6779 102.659L63.3152 101.18Z" fill="#DD936F"/>
<path d="M78.7688 81.5332C78.874 81.5332 78.9594 81.6185 78.9594 81.7238C78.9594 81.829 78.874 81.9144 78.7688 81.9144C77.3029 81.9144 75.766 82.7914 74.261 84.2595C73.7296 84.7779 73.2404 85.334 72.8052 85.89C72.653 86.0846 72.5184 86.2651 72.403 86.4268L72.2636 86.6275C72.2056 86.7153 72.0873 86.7394 71.9995 86.6813C71.9117 86.6232 71.8876 86.505 71.9457 86.4172L72.0525 86.2623L72.0927 86.2055C72.2113 86.0392 72.3492 85.8542 72.5051 85.6551C72.9501 85.0865 73.4503 84.5179 73.9949 83.9867C75.5643 82.4557 77.1808 81.5332 78.7688 81.5332Z" fill="#DD936F"/>
<path d="M77.4976 65.573C77.6231 65.4731 77.8059 65.4938 77.9058 65.6193C77.9947 65.7309 77.9881 65.8877 77.8974 65.9914L77.8595 66.0276L66.0799 75.4071C65.9678 75.4963 65.8102 75.4893 65.7066 75.3976L65.6705 75.3592L64.4712 73.8323C64.3721 73.7061 64.3941 73.5235 64.5203 73.4244C64.6324 73.3363 64.7892 73.3438 64.8923 73.4352L64.9282 73.4734L65.9464 74.7702L77.4976 65.573Z" fill="#373737"/>
<path fill-rule="evenodd" clip-rule="evenodd" d="M32.532 95.1932C32.532 95.1932 29.2898 90.366 27.8891 90.2196C25.7184 89.9934 26.2924 94.417 26.2924 94.417C26.2924 94.417 24.2263 95.232 24.9824 97.5786C23.7932 99.4503 24.7113 100.662 24.7113 100.662C24.7113 100.662 23.2029 101.956 24.6237 103.565C26.0438 105.172 29.9483 105.612 29.9359 102.835C31.7798 101.682 30.8214 99.9515 30.8214 99.9515C30.8214 99.9515 32.2299 98.7817 31.2584 97.1207C32.5095 96.7225 32.8651 95.6999 32.532 95.1932Z" fill="#FFC999"/>
<path d="M27.5456 93.7759C27.606 93.7089 27.7031 93.6947 27.7789 93.7364L27.8147 93.7619L31.3862 96.9793C31.4644 97.0497 31.4707 97.1702 31.4002 97.2484C31.3398 97.3155 31.2427 97.3297 31.1669 97.288L31.131 97.2625L27.5596 94.0451C27.4814 93.9746 27.4751 93.8541 27.5456 93.7759Z" fill="#DD936F"/>
<path d="M27.8716 90.0299C27.9764 90.0202 28.0692 90.0974 28.0788 90.2022C28.0885 90.307 28.0113 90.3998 27.9065 90.4094C26.9981 90.4929 26.5282 91.1861 26.3951 92.3356C26.3339 92.8644 26.3519 93.4343 26.4192 93.9824L26.4523 94.2229C26.4626 94.2898 26.472 94.3428 26.4793 94.38C26.4951 94.4599 26.4585 94.5409 26.3881 94.5818C26.3471 94.6057 26.2709 94.6551 26.1715 94.7285C26.0045 94.8519 25.8372 94.9965 25.6816 95.1604C25.0306 95.8462 24.7845 96.6291 25.1576 97.5039C25.1837 97.5651 25.176 97.6354 25.1374 97.6895C24.3968 98.7252 24.3404 99.5829 24.6742 100.257C24.7433 100.396 24.8104 100.489 24.8504 100.532C24.8846 100.568 24.9027 100.617 24.9017 100.666L24.8974 100.703L24.486 102.591C24.4636 102.694 24.3621 102.759 24.2592 102.737C24.1693 102.717 24.1081 102.637 24.1092 102.549L24.1136 102.51L24.5052 100.711L24.5008 100.706C24.4621 100.654 24.4194 100.588 24.3761 100.509L24.3327 100.426C23.9519 99.6574 23.9993 98.6942 24.7389 97.5952L24.7671 97.554L24.7593 97.5345C24.4037 96.5862 24.6652 95.725 25.3211 94.9893L25.4051 94.898C25.5772 94.7167 25.761 94.5578 25.9451 94.4219L26.0826 94.3245L26.0607 94.1801L26.0408 94.0288C25.9702 93.4532 25.9513 92.8548 26.0165 92.2917C26.1679 90.9842 26.7445 90.1335 27.8716 90.0299Z" fill="#DD936F"/>
<path d="M26.9616 97.9349C27.0043 97.8533 27.0978 97.8154 27.183 97.8399L27.2188 97.8542L30.9103 99.7825C31.0036 99.8312 31.0397 99.9464 30.991 100.04C30.9484 100.121 30.8549 100.159 30.7697 100.135L30.7338 100.12L27.0423 98.1921C26.949 98.1433 26.9129 98.0282 26.9616 97.9349Z" fill="#DD936F"/>
<path d="M26.121 101.284C26.1557 101.199 26.2451 101.152 26.3323 101.169L26.3693 101.18L30.0074 102.659C30.1049 102.698 30.1518 102.809 30.1122 102.907C30.0775 102.992 29.9881 103.039 29.9009 103.023L29.8639 103.012L26.2258 101.533C26.1283 101.493 26.0814 101.382 26.121 101.284Z" fill="#DD936F"/>
</g>
<defs>
<clipPath id="clip0_2_1524">
<rect width="89" height="315" fill="white"/>
</clipPath>
</defs>
</svg>
