<svg width="126" height="320" viewBox="0 0 126 320" fill="none" xmlns="http://www.w3.org/2000/svg">
<g clip-path="url(#clip0_2_1691)">
<path fill-rule="evenodd" clip-rule="evenodd" d="M82.7409 105.916L74.6343 86.1252L89.8699 77.1155C89.8699 77.1155 105.475 104.358 102.289 110.455C98.2683 118.147 89.2081 118.17 82.7409 105.916Z" fill="#FFC999"/>
<path fill-rule="evenodd" clip-rule="evenodd" d="M15.6222 318.049C6.27687 322.06 1.43087 316.403 1.43087 316.403C1.43087 316.403 1.15154 314.414 2.77711 312.179C4.81071 309.38 9.37517 308.36 14.7586 302.996C18.8946 298.875 21.5988 292.488 21.5988 292.488C24.5771 288.031 34.1982 293.252 34.1982 293.252C34.1982 293.252 34.4205 302.42 34.2611 307.667C34.2611 307.667 33.9335 310.558 26.7497 311.638C21.3735 312.445 21.2192 315.646 15.6222 318.049Z" fill="#BF5F82"/>
<path fill-rule="evenodd" clip-rule="evenodd" d="M71.2258 290.45C71.2258 290.45 70.9092 303.825 72.0002 307.34C75.1124 310.81 77.8253 309.173 81.9488 312.62C86.0724 316.067 94.7377 321.768 102.465 315.696C103.384 311.629 100.795 309.82 97.5917 307.686C84.3817 298.886 86.6683 297.265 84.2391 292.122C80.5105 284.232 71.1 284.89 71.2258 290.45Z" fill="#BF5F82"/>
<path fill-rule="evenodd" clip-rule="evenodd" d="M35.0725 113.567C35.0725 113.567 30.5928 91.8772 28.6206 83.8656C26.6485 75.8548 23.6072 56.6639 26.9132 55.2043C30.2184 53.7447 38.1357 50.6384 38.1357 50.6384C38.1357 50.6384 44.4537 50.3707 51.5753 51.8391C57.214 53.0017 57.1482 49.6841 63.9817 50.7685C66.8753 51.227 78.2148 54.6939 80.4209 56.4079C82.6264 58.1212 78.9387 114.444 78.9387 114.444C78.9387 114.444 81.6575 117.203 78.4071 120.824C76.7954 122.52 69.7659 121.994 60.7737 122.075C50.5369 122.166 38.505 123.529 36.2586 121.598C32.0385 117.969 35.0725 113.567 35.0725 113.567Z" fill="#8E8E8E"/>
<path fill-rule="evenodd" clip-rule="evenodd" d="M60.7008 46.8855L54.2051 52.481L61.6024 60.0173L65.2309 50.9366L60.7008 46.8855Z" fill="#8E8E8E"/>
<path fill-rule="evenodd" clip-rule="evenodd" d="M33.9067 117.699L32.9473 127.485C32.9473 127.485 6.94696 113.655 1.7858 105.645C-2.79622 98.5339 8.04822 81.1265 8.04822 81.1265C8.04822 81.1265 18.8817 88.6686 20.908 93.4181L19.1274 98.7664L33.9067 117.699Z" fill="#FFC999"/>
<path fill-rule="evenodd" clip-rule="evenodd" d="M80.5809 100.984C80.5809 100.984 69.7431 82.427 68.9029 71.6206C68.078 61.0233 77.4007 53.0805 82.2248 57.6961C89.2543 64.4214 96.7789 86.9878 96.7789 86.9878C96.7789 86.9878 88.8821 97.1266 80.5809 100.984Z" fill="#8E8E8E"/>
<path d="M93.6412 88.944C93.7543 88.7768 93.9816 88.7329 94.1489 88.846C94.3162 88.9591 94.3601 89.1864 94.2469 89.3537C93.1474 90.9796 91.9262 92.4861 90.604 93.877C88.5041 96.0859 86.2545 97.9021 84.004 99.352C83.2154 99.8601 82.4824 100.286 81.8237 100.634C81.6849 100.707 81.5552 100.774 81.4352 100.834L81.0944 101C81.0453 101.023 81.0083 101.04 80.9838 101.05C80.799 101.132 80.5832 101.048 80.5018 100.863C80.4204 100.678 80.5042 100.463 80.689 100.381L80.8348 100.314L80.8913 100.287C81.0273 100.221 81.1811 100.144 81.3515 100.056L81.4824 99.9873C82.1229 99.6493 82.8376 99.2337 83.6079 98.7373C85.8118 97.3174 88.0165 95.5375 90.074 93.3732C91.369 92.0109 92.5648 90.5357 93.6412 88.944Z" fill="#373737"/>
<path fill-rule="evenodd" clip-rule="evenodd" d="M3.39941 89.8729C3.39941 89.8729 15.9586 62.9892 22.7227 57.7279C29.4875 52.4665 32.5054 55.2321 35.238 58.9798C36.9594 61.3388 40.9184 68.0334 32.1865 82.1545C25.6111 92.7877 22.8551 96.7291 22.0704 98.5031C11.0446 97.7646 3.39941 89.8729 3.39941 89.8729Z" fill="#8E8E8E"/>
<path fill-rule="evenodd" clip-rule="evenodd" d="M54.3441 53.4755L60.6709 47.0501L59.5367 25.114L42.4547 26.0895L41.7637 47.7308L54.3441 53.4755Z" fill="#FFC999"/>
<path fill-rule="evenodd" clip-rule="evenodd" d="M63.9655 23.1114C63.9655 23.1114 66.5929 20.4218 67.6825 22.2478C68.7713 24.073 66.8116 30.5679 63.9794 30.7215C60.1974 30.9255 63.9655 23.1114 63.9655 23.1114Z" fill="#FFC999"/>
<path fill-rule="evenodd" clip-rule="evenodd" d="M47.4024 39.6864C47.4024 39.6864 52.9328 44.2647 60.3141 39.7939C65.6273 36.5756 66.341 24.8303 65.3641 16.2016C64.8113 11.319 62.5751 8.68211 57.8249 7.21449C53.074 5.74687 40.1732 5.63499 40.0204 19.9938C39.85 35.987 47.4024 39.6864 47.4024 39.6864Z" fill="#FFC999"/>
<path d="M57.0977 18.4298C57.2221 18.4619 57.3025 18.5783 57.2934 18.7021L57.2857 18.7487L56.517 21.7234L58.0922 29.8589C58.1205 30.0054 58.0213 30.1425 57.8797 30.1667L57.8361 30.1704L54.3955 30.1829C54.251 30.1834 54.1333 30.0666 54.1328 29.922C54.1323 29.7919 54.2269 29.6836 54.3512 29.6629L54.3937 29.6593L57.5179 29.6477L55.992 21.7648C55.9871 21.7393 55.986 21.7133 55.9887 21.6877L55.9956 21.6495L56.7788 18.6178C56.8109 18.4933 56.9273 18.413 57.0511 18.4221L57.0977 18.4298Z" fill="#DD936F"/>
<path d="M53.7728 17.6188C53.8128 18.0022 53.5344 18.3454 53.151 18.3854L50.5592 18.6682L49.9097 18.7335C48.039 18.9137 46.8598 18.951 46.131 18.803C45.7532 18.7263 45.5092 18.3579 45.5859 17.9801C45.6626 17.6023 46.031 17.3583 46.4088 17.435C47.0186 17.5588 48.3318 17.497 50.4144 17.2798L53.0061 16.997C53.3895 16.957 53.7328 17.2354 53.7728 17.6188Z" fill="#373737"/>
<path d="M51.5448 32.1785C51.5962 31.9832 51.7962 31.8665 51.9914 31.9179L52.1017 31.9441L52.2233 31.9701C52.4221 32.0112 52.6562 32.0524 52.9237 32.091C54.324 32.2932 55.9891 32.3429 57.8539 32.1448C58.0547 32.1235 58.2347 32.269 58.2561 32.4698C58.2774 32.6706 58.1319 32.8507 57.9311 32.872C56.0029 33.0768 54.2773 33.0253 52.8192 32.8147C52.5935 32.7821 52.3892 32.7476 52.2075 32.7126L52.0754 32.6862C51.9454 32.6594 51.8547 32.638 51.8054 32.6251C51.6101 32.5737 51.4935 32.3738 51.5448 32.1785Z" fill="#FF7946"/>
<path fill-rule="evenodd" clip-rule="evenodd" d="M41.6211 26.1576L38.8548 20.6096C38.8548 20.6096 37.129 12.6229 38.9959 9.20356C41.8931 3.89761 48.4502 4.07969 52.3507 2.683C56.2519 1.28632 56.2234 -0.0240849 57.8007 0.203334C59.378 0.430752 65.4657 4.73123 66.1253 9.19405C66.7051 13.1165 65.6463 23.0966 65.6463 23.0966C65.6463 23.0966 64.5984 14.247 63.7597 11.9063C60.6833 10.5995 49.4754 10.4679 44.7881 11.8821C44.7881 11.8821 44.3647 14.8898 44.1176 17.0089C41.6021 18.7859 41.6211 26.1576 41.6211 26.1576Z" fill="#373737"/>
<path d="M60.4221 39.2958C60.5202 39.1896 60.6858 39.183 60.7921 39.2811C60.8983 39.3792 60.9048 39.5449 60.8068 39.6511C60.7368 39.7268 60.6039 39.852 60.4073 40.0101C60.0844 40.2695 59.6962 40.5281 59.2421 40.7688C56.6229 42.1574 53.149 42.3703 48.8125 40.6745C48.6779 40.6218 48.6114 40.47 48.664 40.3353C48.7167 40.2007 48.8685 40.1342 49.0032 40.1869C53.197 41.8269 56.5117 41.6238 58.9969 40.3063C59.4209 40.0815 59.7815 39.8412 60.0793 39.6019L60.1996 39.5026C60.3083 39.41 60.3824 39.3388 60.4221 39.2958Z" fill="#DD936F"/>
<path d="M56.8369 21.2166C57.1259 21.2065 57.3684 21.4326 57.3785 21.7216C57.3879 21.9913 57.1916 22.2205 56.9304 22.2581L56.8735 22.2631L54.3427 22.3516C54.0537 22.3617 53.8112 22.1356 53.8011 21.8467C53.7917 21.5769 53.988 21.3477 54.2492 21.3102L54.3061 21.3051L56.8369 21.2166Z" fill="#373737"/>
<path d="M54.5539 22.9046C55.0653 22.6843 55.5887 22.5669 56.102 22.6141C56.5887 22.6588 57.0288 22.853 57.3879 23.2128C57.5921 23.4175 57.5918 23.749 57.3871 23.9533C57.197 24.1429 56.8976 24.1562 56.6923 23.9932L56.6467 23.9525C56.4671 23.7726 56.257 23.6799 56.0062 23.6568C55.6942 23.6282 55.333 23.7092 54.9681 23.8664C54.8301 23.9258 54.7159 23.9847 54.6351 24.0312L54.5547 24.0803C54.3134 24.2396 53.9886 24.1731 53.8293 23.9318C53.67 23.6904 53.7366 23.3657 53.9779 23.2064C54.0995 23.1261 54.2981 23.0148 54.5539 22.9046Z" fill="#373737"/>
<path d="M58.6306 16.9584C59.8106 16.5211 61.0069 16.2855 62.1501 16.3637C63.0427 16.4248 63.8606 16.6789 64.5741 17.1548C64.8948 17.3687 64.9814 17.802 64.7675 18.1227C64.5536 18.4434 64.1202 18.53 63.7995 18.3161C63.3002 17.9831 62.7162 17.8017 62.0548 17.7564C61.1378 17.6937 60.126 17.8929 59.1158 18.2674C58.8658 18.36 58.6313 18.4579 58.4162 18.5566L58.2586 18.6307C58.108 18.7032 58.0042 18.7579 57.9547 18.7859C57.6193 18.9759 57.1934 18.858 57.0034 18.5226C56.8134 18.1872 56.9313 17.7613 57.2667 17.5713C57.5466 17.4127 58.0198 17.1848 58.6306 16.9584Z" fill="#373737"/>
<path d="M56.3687 34.7374C56.5132 34.7342 56.633 34.8488 56.6362 34.9933C56.639 35.1234 56.5465 35.2334 56.4226 35.2565L56.3802 35.2608L54.3173 35.3061C54.1728 35.3093 54.053 35.1947 54.0499 35.0502C54.047 34.9201 54.1396 34.8101 54.2635 34.7871L54.3058 34.7827L56.3687 34.7374Z" fill="#DD936F"/>
<path d="M44.935 21.4923C45.2241 21.4875 45.4624 21.718 45.4672 22.0071C45.4716 22.277 45.2712 22.5025 45.0093 22.5353L44.9523 22.5393L40.8003 22.608C40.5112 22.6128 40.2729 22.3823 40.2681 22.0932C40.2637 21.8233 40.4642 21.5978 40.726 21.565L40.783 21.561L44.935 21.4923Z" fill="#373737"/>
<path fill-rule="evenodd" clip-rule="evenodd" d="M45.2367 21.1889L53.1627 21.0134C53.7162 21.001 54.1747 21.4383 54.1828 21.9919C54.1981 23.0244 54.1769 24.6814 53.9393 26.1044C53.6607 27.7826 52.1792 28.8393 50.4819 28.9556C48.3606 29.1011 46.4557 29.1449 45.4677 28.0649C43.9636 26.4181 44.2619 23.6474 44.2604 22.1827C44.2604 21.646 44.6992 21.2006 45.2367 21.1889Z" fill="white"/>
<path d="M53.2363 20.84L53.1588 20.8391L45.2328 21.0148C44.6003 21.0285 44.086 21.5516 44.086 22.1829L44.0826 22.5105L44.0668 23.27C44.0534 24.137 44.0732 24.6919 44.1565 25.322C44.313 26.5054 44.6807 27.462 45.339 28.1827C46.2356 29.163 47.5911 29.3288 50.4939 29.1297C52.3472 29.0028 53.8297 27.8298 54.1113 26.1332C54.3132 24.9241 54.3794 23.4827 54.3572 21.9895C54.3481 21.3657 53.852 20.8661 53.2363 20.84ZM45.2405 21.3635L53.1666 21.188C53.6245 21.1777 54.0018 21.539 54.0084 21.9946C54.0303 23.4687 53.965 24.8916 53.7673 26.0759C53.5138 27.6027 52.171 28.6652 50.47 28.7817L49.9076 28.8166C47.5022 28.9477 46.335 28.7548 45.5964 27.9474C44.993 27.2867 44.6502 26.395 44.5023 25.2762C44.4216 24.6663 44.4024 24.1243 44.4157 23.2717L44.4346 22.2964C44.4348 22.259 44.4349 22.2227 44.4349 22.1827C44.4349 21.7416 44.7972 21.3731 45.2405 21.3635Z" fill="#373737"/>
<path d="M50.7039 23.0221C50.8967 23.0179 51.0564 23.1708 51.0606 23.3636C51.0843 24.4591 50.3135 25.3823 49.313 25.4043C48.3118 25.4263 47.5013 24.5381 47.4776 23.4423C47.4735 23.2495 47.6264 23.0898 47.8192 23.0857C48.012 23.0815 48.1716 23.2344 48.1758 23.4272C48.1916 24.1567 48.7048 24.7192 49.2976 24.7061C49.8899 24.6931 50.3782 24.1083 50.3624 23.3787C50.3582 23.1859 50.5111 23.0262 50.7039 23.0221Z" fill="#373737"/>
<path fill-rule="evenodd" clip-rule="evenodd" d="M57.5973 20.8276L66.5704 20.6294C66.9317 21.9332 66.7233 27.011 65.2074 28.132C63.1686 29.2582 58.991 28.8823 58.319 27.7956C57.3004 26.1474 56.8653 22.9694 56.8521 21.5976C56.8485 21.1793 57.179 20.8371 57.5973 20.8276Z" fill="white"/>
<path d="M66.5662 20.4549L57.593 20.6531C57.0795 20.6648 56.6729 21.0852 56.6773 21.599C56.696 23.5422 57.2877 26.4592 58.1703 27.8872C58.9349 29.1237 63.2674 29.4025 65.2913 28.2846C66.6646 27.2709 67.2633 22.4781 66.7381 20.5827C66.7168 20.5058 66.646 20.4532 66.5662 20.4549ZM66.4346 20.8063L66.4539 20.8927C66.8473 22.7997 66.2655 27.1322 65.1033 27.9917C63.2426 29.0177 59.1153 28.7521 58.467 27.7038C57.6243 26.3402 57.0442 23.481 57.0261 21.5958C57.0233 21.2727 57.2782 21.0091 57.6009 21.0018L66.4346 20.8063Z" fill="#373737"/>
<path d="M61.9041 22.7745C62.0969 22.7703 62.2566 22.9232 62.2608 23.116C62.2845 24.2119 61.5142 25.1347 60.5132 25.1567C59.5125 25.1788 58.7015 24.2903 58.6778 23.1948C58.6736 23.002 58.8266 22.8423 59.0194 22.8381C59.2122 22.8339 59.3718 22.9869 59.376 23.1797C59.3918 23.9089 59.9054 24.4716 60.4978 24.4586C61.0905 24.4455 61.5784 23.861 61.5626 23.1311C61.5584 22.9383 61.7113 22.7787 61.9041 22.7745Z" fill="#373737"/>
<path d="M44.3797 20.7388L54.2099 20.779C54.4991 20.7802 54.7325 21.0155 54.7314 21.3047C54.7302 21.5746 54.5251 21.7959 54.2627 21.8233L54.2056 21.8261L44.3754 21.7859C44.0863 21.7847 43.8528 21.5494 43.854 21.2602C43.8551 20.9903 44.0602 20.769 44.3227 20.7416L44.3797 20.7388Z" fill="#373737"/>
<path d="M66.6296 20.3024C66.9186 20.2919 67.1613 20.5177 67.1718 20.8067C67.1815 21.0764 66.9855 21.3058 66.7244 21.3437L66.6675 21.3488L57.042 21.6969C56.753 21.7073 56.5103 21.4816 56.4999 21.1926C56.4901 20.9229 56.6861 20.6934 56.9473 20.6556L57.0042 20.6504L66.6296 20.3024Z" fill="#373737"/>
<path fill-rule="evenodd" clip-rule="evenodd" d="M40.3893 21.6802C39.3948 20.6192 37.8278 20.3025 36.6943 21.4864C34.8691 23.395 36.4033 30.6351 41.2295 31.0227C43.0694 30.8011 41.9425 23.3365 40.3893 21.6802Z" fill="#FFC999"/>
<path fill-rule="evenodd" clip-rule="evenodd" d="M85.6533 105.063C85.6533 105.063 88.7897 116.264 98.7039 114.205C105.474 112.799 112.071 77.4945 112.593 73.3937C112.966 70.4621 104.128 69.9802 104.128 69.9802L85.6533 105.063Z" fill="#FFC999"/>
<path fill-rule="evenodd" clip-rule="evenodd" d="M104.009 70.5071C104.009 70.5071 104.358 68.5334 105.054 64.5854C105.752 60.6381 113.315 52.0437 113.805 51.6094C115.476 50.1301 116.833 52.1966 113.283 57.5193C117.644 56.2411 120.352 54.2141 121.862 51.4273C123.372 48.6412 126.43 50.6039 125.483 55.0814C124.535 59.5588 124.371 63.1843 121.481 66.5086C117.342 71.2683 113.891 72.8398 111.944 73.6697C110.362 74.3447 105.258 73.6244 104.009 70.5071Z" fill="#FFC999"/>
<path fill-rule="evenodd" clip-rule="evenodd" d="M36.5603 295.361L56.7179 158.666L58.0225 158.375L68.7331 294.645C68.7331 294.645 80.0448 297.918 85.9884 294.299C86.0476 267.704 84.5435 181.416 81.6375 141.983C81.1695 135.634 79.1615 127.013 78.7549 124.616C60.6089 121.671 35.911 126.005 35.911 126.005L19.1953 293.394C19.1953 293.394 28.189 298.105 36.5603 295.361Z" fill="#F48FB1"/>
<path d="M67.2302 153.027C67.3597 152.963 67.5168 153.016 67.5811 153.145C67.6383 153.26 67.6029 153.397 67.5034 153.472L67.4632 153.496L56.5726 158.906C56.4432 158.97 56.286 158.918 56.2217 158.788C56.1646 158.673 56.1999 158.536 56.2994 158.462L56.3397 158.437L67.2302 153.027Z" fill="#8E8E8E"/>
<path fill-rule="evenodd" clip-rule="evenodd" d="M36.1478 121.542C36.1478 121.542 59.2071 117.98 78.4163 121.216C78.5852 122.916 78.7629 125.009 78.7629 125.009C78.7629 125.009 63.2143 121.298 36.0732 126.628C36.1178 122.012 36.1478 121.542 36.1478 121.542Z" fill="#F48FB1"/>
<path d="M44.0494 126.335C52.3675 125.618 60.8692 125.315 68.8068 125.663C72.1748 125.811 75.3539 126.075 78.3128 126.465C78.4562 126.484 78.5571 126.615 78.5381 126.759C78.5192 126.902 78.3877 127.003 78.2444 126.984C75.3014 126.596 72.1374 126.333 68.7839 126.186C60.872 125.84 52.3916 126.141 44.0944 126.856C42.351 127.007 40.7318 127.166 39.2612 127.327L38.474 127.414C38.1394 127.452 37.8273 127.489 37.5386 127.523L36.3882 127.668C36.2449 127.687 36.1131 127.586 36.0937 127.443C36.0743 127.3 36.1748 127.168 36.318 127.149L37.0589 127.054L37.9283 126.95L38.4148 126.894C40.0925 126.703 41.9842 126.513 44.0494 126.335Z" fill="#8E8E8E"/>
<path d="M43.9116 120.467C52.2329 119.75 60.7379 119.447 68.6796 119.795C72.0509 119.943 75.2332 120.207 78.1956 120.597C78.3958 120.624 78.5367 120.807 78.5103 121.008C78.4839 121.208 78.3003 121.349 78.1001 121.322C75.16 120.935 71.9987 120.672 68.6476 120.526C61.0345 120.192 52.8937 120.46 44.8965 121.118L43.9744 121.196C42.0732 121.36 40.3197 121.534 38.7457 121.71L37.8714 121.809L36.6993 121.951L36.2721 122.007C36.072 122.034 35.8878 121.893 35.8608 121.693C35.8337 121.493 35.974 121.309 36.1741 121.282L36.7208 121.212C37.039 121.172 37.3949 121.129 37.7864 121.083L38.2734 121.027C39.9522 120.836 41.8451 120.645 43.9116 120.467Z" fill="#373737"/>
<path d="M59.2789 120.862C59.4091 120.862 59.517 120.957 59.5374 121.081L59.5408 121.124L59.5349 123.026C59.5275 124.472 59.514 126.077 59.4931 127.799C59.4336 132.691 59.3261 137.578 59.1586 142.139L59.1072 143.482C58.8952 148.785 58.6098 153.232 58.2413 156.569C58.2254 156.713 58.096 156.817 57.9523 156.801C57.8086 156.785 57.705 156.655 57.7208 156.512L57.8087 155.68C58.1631 152.17 58.4356 147.564 58.6354 142.12C58.7907 137.889 58.8944 133.377 58.9561 128.84L58.985 126.412C58.9943 125.509 59.0014 124.646 59.0067 123.827L59.0172 121.127C59.0172 120.979 59.1343 120.862 59.2789 120.862Z" fill="#8E8E8E"/>
<path fill-rule="evenodd" clip-rule="evenodd" d="M63.7711 122.726C63.7857 123.377 63.3872 123.915 62.8804 123.926C62.3744 123.937 61.9517 123.419 61.9364 122.768C61.9225 122.117 62.321 121.58 62.827 121.568C63.3331 121.556 63.7557 122.076 63.7711 122.726Z" fill="white"/>
<path d="M113.038 57.4265C113.089 57.2913 113.24 57.2232 113.376 57.2744C113.496 57.3199 113.563 57.4443 113.54 57.5664L113.528 57.6119L112.494 60.3408L112.495 60.3571C112.499 60.7121 112.493 61.1743 112.468 61.7096L112.458 61.9137C112.408 62.8547 112.313 63.785 112.16 64.6566C111.749 66.9972 110.998 68.5793 109.766 69.0512C109.631 69.1029 109.479 69.0354 109.428 68.9004C109.376 68.7654 109.443 68.614 109.578 68.5623C110.578 68.1795 111.263 66.7359 111.644 64.566C111.793 63.7173 111.887 62.8074 111.935 61.886L111.953 61.4927C111.966 61.1764 111.971 60.89 111.972 60.642L111.97 60.3009L111.987 60.2023L113.038 57.4265Z" fill="#DD936F"/>
<path d="M123.585 59.0259C123.984 58.9402 124.348 59.089 124.62 59.4774C124.703 59.5959 124.674 59.7592 124.555 59.842C124.437 59.9248 124.273 59.8959 124.191 59.7774C124.038 59.5594 123.885 59.4969 123.694 59.5378C123.475 59.5848 123.212 59.768 122.941 60.0458C122.861 60.1279 122.784 60.2142 122.711 60.302L122.606 60.4344C122.545 60.5136 122.502 60.5743 122.499 60.5735L122.445 60.6798C122.429 60.7105 122.41 60.7458 122.388 60.7854C122.298 60.948 122.189 61.1284 122.061 61.3223C121.695 61.8747 121.246 62.4266 120.71 62.9421C119.755 63.8592 118.629 64.5594 117.322 64.9544C117.184 64.9962 117.037 64.9179 116.996 64.7795C116.954 64.6411 117.032 64.495 117.17 64.4532C118.393 64.0837 119.449 63.4272 120.347 62.5645C120.854 62.0774 121.279 61.5552 121.624 61.0334C121.714 60.8969 121.794 60.7679 121.864 60.6483L121.93 60.532C121.979 60.443 122.011 60.3809 122.044 60.3165L122.118 60.2123C122.139 60.1833 122.163 60.1506 122.191 60.115C122.305 59.9671 122.431 59.8192 122.566 59.6803C122.903 59.3351 123.241 59.0995 123.585 59.0259Z" fill="#DD936F"/>
<path d="M123.688 55.6315C124.405 55.3051 124.981 55.6186 125.185 56.6137C125.214 56.7554 125.123 56.8938 124.981 56.9229C124.84 56.952 124.701 56.8608 124.672 56.7191C124.534 56.0465 124.309 55.9241 123.906 56.108C123.719 56.1929 123.511 56.3424 123.295 56.5376C123.164 56.6564 123.038 56.7844 122.923 56.9124L122.823 57.027C122.806 57.0464 122.794 57.0613 122.787 57.0704C121.433 58.9323 120.147 60.1817 118.967 60.9326C118.243 61.3933 117.706 61.5839 117.396 61.619C117.253 61.6353 117.123 61.5321 117.107 61.3884C117.092 61.2591 117.174 61.1411 117.295 61.1069L117.393 61.0889C117.453 61.076 117.544 61.0509 117.664 61.0082C117.958 60.9042 118.3 60.7367 118.686 60.4909C119.808 59.777 121.047 58.5734 122.37 56.7535L122.419 56.6935C122.449 56.6576 122.488 56.6133 122.534 56.5625C122.66 56.4219 122.798 56.2813 122.944 56.1494C123.196 55.9211 123.445 55.7424 123.688 55.6315Z" fill="#DD936F"/>
<path d="M124.242 52.1102C124.65 52.0379 125.04 52.1816 125.414 52.5384C125.518 52.6383 125.522 52.804 125.422 52.9085C125.323 53.013 125.157 53.0168 125.052 52.917C124.792 52.6684 124.565 52.5848 124.333 52.6258C124.013 52.6825 123.646 52.9707 123.134 53.5557L123.036 53.6688C122.918 53.8074 121.759 55.2584 121.281 55.8094L121.232 55.8649C121.081 56.0361 120.932 56.199 120.782 56.3557C119.841 57.3389 118.901 58.0925 118.003 58.646C117.74 58.8084 117.496 58.9438 117.274 59.0545L117.144 59.1179C116.988 59.1918 116.875 59.2381 116.813 59.2606C116.677 59.3095 116.527 59.2387 116.478 59.1026C116.429 58.9665 116.5 58.8166 116.636 58.7678L116.699 58.7432C116.752 58.7215 116.826 58.689 116.919 58.6447C117.158 58.5319 117.429 58.385 117.728 58.2004C118.589 57.6698 119.495 56.9442 120.403 55.9939C120.5 55.8929 120.596 55.789 120.694 55.6817L120.84 55.5182C121.272 55.0291 122.507 53.4827 122.638 53.3292C123.278 52.5787 123.742 52.1987 124.242 52.1102Z" fill="#DD936F"/>
<path d="M96.2394 84.7035C96.3104 84.5776 96.4701 84.5331 96.596 84.6041C96.708 84.6673 96.7556 84.8004 96.7149 84.9177L96.6954 84.9608L88.9449 98.701C88.8739 98.8269 88.7142 98.8714 88.5883 98.8003C88.4764 98.7372 88.4288 98.604 88.4695 98.4868L88.4889 98.4437L96.2394 84.7035Z" fill="#DD936F"/>
<path fill-rule="evenodd" clip-rule="evenodd" d="M54.2756 53.3461L47.9781 61.7452L38.4155 50.6544L41.8619 46.2866L54.2756 53.3461Z" fill="#8E8E8E"/>
<path d="M54.5634 53.7963C54.7439 53.7285 54.9453 53.8199 55.0131 54.0004L55.0851 54.2102L55.1566 54.4352C55.1944 54.5575 55.2351 54.6946 55.2788 54.8471L55.4146 55.3383C55.5844 55.9725 55.7677 56.7313 55.9616 57.6237C56.6648 60.8597 57.3672 65.1823 58.0224 70.7391C58.6805 76.3198 59.2547 82.8588 59.7213 90.4317L59.7904 91.5924C60.4219 102.565 60.3283 111.988 59.8425 119.111C59.8294 119.304 59.6628 119.449 59.4704 119.436C59.278 119.423 59.1327 119.256 59.1458 119.064L59.1953 118.308C59.6513 111.052 59.7052 101.524 59.0243 90.4746L58.9409 89.1512C58.5048 82.3687 57.9806 76.4421 57.3866 71.3146L57.2281 69.979C56.6214 64.986 55.9773 61.0386 55.3329 58.0212L55.2792 57.7719C55.0355 56.6506 54.8096 55.7458 54.6074 55.0392L54.527 54.7647C54.5015 54.6799 54.4773 54.6018 54.4546 54.5302L54.3889 54.3301C54.3752 54.2897 54.3652 54.2618 54.3593 54.246C54.2915 54.0654 54.3829 53.8641 54.5634 53.7963Z" fill="#373737"/>
<path d="M80.7197 58.0848C80.9215 58.0766 81.0919 58.2333 81.1004 58.435L81.1147 58.9036C81.1611 60.8613 81.1099 63.1028 80.8848 65.2349C80.7444 66.5646 80.5437 67.7469 80.2742 68.7471L80.215 68.9588L80.2355 68.9965L80.2586 69.0452C80.3175 69.1782 80.3717 69.3714 80.4252 69.6297C80.5298 70.1338 80.6328 70.8945 80.7255 71.8599L80.768 72.3249C80.9547 74.4711 81.0798 77.3331 81.1132 80.6289C81.2042 89.6203 80.6325 100.474 79.2638 112.297L79.1933 112.898L79.2874 113.138L79.3173 113.218C79.4368 113.539 79.5561 113.894 79.6674 114.273C79.9348 115.183 80.1144 116.086 80.1652 116.937C80.2501 118.356 79.9704 119.515 79.2173 120.302C79.0778 120.448 78.8463 120.453 78.7004 120.314C78.5544 120.174 78.5492 119.943 78.6888 119.797C79.2758 119.183 79.5092 118.216 79.4353 116.981C79.3881 116.192 79.2189 115.34 78.9658 114.479C78.8808 114.189 78.791 113.915 78.7002 113.66L78.632 113.473C78.5643 113.291 78.5121 113.162 78.4833 113.095C78.458 113.036 78.4486 112.971 78.4561 112.908C79.8526 101.077 80.4513 90.1991 80.3865 81.1656L80.3819 80.6363C80.3488 77.3587 80.2245 74.5156 80.0396 72.3902L79.9976 71.9298C79.9072 70.9885 79.8075 70.2518 79.7092 69.7782C79.6841 69.6573 79.6596 69.5564 79.6371 69.4782L79.614 69.4053C79.4872 69.3307 79.4045 69.1888 79.4349 69.0252L79.4461 68.9802C79.7658 67.9433 80.0002 66.6492 80.1576 65.1582C80.363 63.2123 80.4213 61.1654 80.3919 59.3385L80.3731 58.5531C80.3719 58.5181 80.3708 58.4889 80.3698 58.4658C80.3613 58.2641 80.518 58.0936 80.7197 58.0848Z" fill="#373737"/>
<path d="M62.8702 64.5842L62.7955 64.584C62.5829 64.5833 62.4145 64.7635 62.4297 64.9756L63.3591 77.9963C63.3679 78.1199 63.4388 78.2307 63.5473 78.2905L70.6302 82.1932C70.7517 82.2601 70.9007 82.2525 71.0148 82.1736L76.4414 78.4164C76.5302 78.3549 76.5872 78.2574 76.5973 78.1499L76.6319 77.7042L76.6606 77.2579C76.6733 77.0453 76.6858 76.8138 76.6979 76.5633L76.7292 75.851C76.8244 73.4608 76.8492 70.4405 76.7663 66.7724C76.7631 66.6316 76.6793 66.5052 76.5509 66.4473C74.8021 65.6595 72.0113 65.1482 68.5546 64.8509C67.3108 64.7439 66.0529 64.6717 64.8308 64.628L64.072 64.6044C63.5987 64.592 63.1932 64.5859 62.8702 64.5842ZM64.0742 77.7459L63.187 65.318L63.7769 65.3287C64.0863 65.3356 64.4306 65.3454 64.8047 65.3588C66.0153 65.402 67.2612 65.4736 68.4919 65.5795L68.7973 65.6064L69.397 65.6639C72.1605 65.943 74.4274 66.375 75.9384 66.9814L76.0399 67.0233L76.0518 67.59C76.1163 71.0151 76.0837 73.8405 75.9878 76.0822L75.9585 76.7098C75.9494 76.8884 75.9401 77.0564 75.9307 77.2136L75.8829 77.9131L70.7851 81.4431L64.0742 77.7459Z" fill="#373737"/>
<path fill-rule="evenodd" clip-rule="evenodd" d="M40.4986 113.618C40.4986 113.618 34.6713 108.149 32.7503 108.385C29.7727 108.749 31.9028 114.498 31.9028 114.498C31.9028 114.498 29.3851 116.225 31.1204 119.135C30.1025 122.008 31.7054 123.349 31.7054 123.349C31.7054 123.349 30.0827 125.547 32.4798 127.263C34.8775 128.98 40.2412 128.369 39.3711 124.653C41.4873 122.543 39.6709 120.518 39.6709 120.518C39.6709 120.518 41.1977 118.518 39.3864 116.592C40.9389 115.673 41.1012 114.195 40.4986 113.618Z" fill="#FFC999"/>
<path d="M33.3832 113.254C33.4456 113.141 33.5785 113.093 33.696 113.133L33.7392 113.152L39.5131 116.364C39.6395 116.434 39.6849 116.594 39.6147 116.72C39.5522 116.832 39.4193 116.881 39.3018 116.841L39.2586 116.821L33.4847 113.61C33.3583 113.539 33.3129 113.38 33.3832 113.254Z" fill="#DD936F"/>
<path d="M31.7237 114.307C31.8293 114.208 31.9949 114.213 32.0937 114.319C32.1924 114.425 32.1869 114.59 32.0812 114.689L32.0027 114.768C31.9694 114.803 31.9293 114.846 31.8839 114.897C31.7308 115.07 31.5774 115.268 31.4344 115.486C30.6662 116.656 30.5122 117.855 31.3317 118.981C31.3855 119.055 31.3968 119.152 31.3616 119.236C30.7387 120.73 30.8547 121.849 31.4113 122.659C31.5114 122.805 31.6182 122.927 31.7241 123.026C31.7851 123.083 31.83 123.118 31.8508 123.132C31.9101 123.172 31.9499 123.234 31.9621 123.304L31.9661 123.346L31.996 126.003C31.9977 126.147 31.8818 126.266 31.7372 126.267C31.6071 126.269 31.4981 126.175 31.4764 126.051L31.4725 126.008L31.4438 123.48L31.387 123.43C31.2834 123.336 31.1674 123.211 31.0502 123.054L30.9798 122.955C30.3663 122.063 30.2074 120.865 30.7511 119.361L30.8242 119.169L30.7491 119.053C29.9869 117.829 30.1607 116.537 30.9212 115.316L30.9967 115.199C31.1542 114.959 31.3228 114.741 31.4917 114.55L31.5865 114.446C31.6444 114.384 31.6912 114.337 31.7237 114.307Z" fill="#DD936F"/>
<path d="M34.1997 118.817L39.7367 120.265C39.8766 120.301 39.9603 120.444 39.9237 120.584C39.8912 120.709 39.7746 120.789 39.6508 120.779L39.6042 120.771L34.0672 119.323C33.9273 119.287 33.8436 119.144 33.8802 119.004C33.9127 118.88 34.0293 118.8 34.1531 118.809L34.1997 118.817Z" fill="#DD936F"/>
<path d="M34.0854 123.532L39.4126 124.395C39.5553 124.418 39.6523 124.553 39.6292 124.695C39.6083 124.824 39.4974 124.915 39.3713 124.915L39.3289 124.912L34.0017 124.049C33.859 124.026 33.762 123.891 33.7851 123.749C33.806 123.62 33.9169 123.529 34.043 123.529L34.0854 123.532Z" fill="#DD936F"/>
<path fill-rule="evenodd" clip-rule="evenodd" d="M54.8104 59.6251C54.8258 60.2759 54.3973 60.8141 53.8547 60.8265C53.3121 60.8382 52.8602 60.3205 52.8456 59.6697C52.831 59.0181 53.2587 58.4807 53.8013 58.4682C54.3439 58.4558 54.7958 58.9735 54.8104 59.6251Z" fill="white"/>
<path fill-rule="evenodd" clip-rule="evenodd" d="M56.4566 71.5804C56.472 72.2312 56.0435 72.7694 55.5009 72.7818C54.9583 72.7935 54.5064 72.2758 54.4911 71.625C54.4772 70.9735 54.9049 70.436 55.4475 70.4236C55.9901 70.4111 56.442 70.9296 56.4566 71.5804Z" fill="white"/>
<path fill-rule="evenodd" clip-rule="evenodd" d="M57.5358 84.5313C57.5504 85.1821 57.1226 85.7203 56.5793 85.7328C56.0367 85.7445 55.5855 85.2268 55.5702 84.5759C55.5556 83.9244 55.9841 83.3869 56.5267 83.3745C57.0685 83.3621 57.5204 83.8798 57.5358 84.5313Z" fill="white"/>
<path fill-rule="evenodd" clip-rule="evenodd" d="M58.0069 96.7093C58.0216 97.3609 57.5938 97.8983 57.0505 97.9108C56.5079 97.9225 56.0567 97.4047 56.0413 96.7539C56.0275 96.1024 56.4552 95.5649 56.9978 95.5525C57.5404 95.54 57.9916 96.0585 58.0069 96.7093Z" fill="white"/>
<path fill-rule="evenodd" clip-rule="evenodd" d="M58.1739 112.826C58.1886 113.477 57.7608 114.015 57.2175 114.028C56.6749 114.04 56.2237 113.522 56.2083 112.871C56.1944 112.22 56.6222 111.682 57.1648 111.67C57.7074 111.657 58.1586 112.175 58.1739 112.826Z" fill="white"/>
<path d="M38.312 50.7299C38.445 50.6156 38.6393 50.619 38.7679 50.7304L38.8044 50.7671L47.7801 61.2119L54.0903 53.7735C54.2037 53.6398 54.3961 53.6127 54.5406 53.7026L54.5824 53.7331C54.7161 53.8465 54.7432 54.0389 54.6533 54.1835L54.6228 54.2253L48.0482 61.9758C47.9209 62.1259 47.6982 62.139 47.5542 62.0148L47.5171 61.9775L38.2748 51.2223C38.1491 51.076 38.1658 50.8555 38.312 50.7299Z" fill="#373737"/>
<path d="M64.9033 51.023C64.9641 50.84 65.1617 50.7408 65.3447 50.8016C65.5125 50.8572 65.6098 51.0279 65.578 51.197L65.5661 51.243L62.1914 61.411C62.1144 61.6428 61.8337 61.7217 61.6481 61.5787L61.6099 61.5446L54.3647 54.1063C54.2301 53.9682 54.233 53.7472 54.3712 53.6126C54.4955 53.4915 54.687 53.4817 54.8221 53.5817L54.8649 53.6191L61.7093 60.6457L64.9033 51.023Z" fill="#373737"/>
<path d="M65.0463 125.87C65.1892 125.848 65.323 125.946 65.3453 126.088L65.3707 126.26C65.3908 126.4 65.4131 126.562 65.4371 126.746L65.4957 127.213C65.5444 127.616 65.5924 128.051 65.638 128.515C65.9154 131.335 66.0194 134.233 65.8485 136.942L65.8165 137.405C65.3551 143.523 63.5194 147.4 59.8433 147.925C59.7002 147.946 59.5676 147.846 59.5471 147.703C59.5266 147.56 59.6261 147.428 59.7692 147.407C63.1985 146.917 64.9374 143.068 65.3259 136.909C65.4948 134.232 65.3918 131.361 65.117 128.567L65.0617 128.028C65.0242 127.679 64.9857 127.349 64.947 127.041L64.8837 126.558L64.8279 126.169C64.8057 126.026 64.9034 125.892 65.0463 125.87Z" fill="#8E8E8E"/>
<path d="M22.7279 60.1581C22.8295 59.9835 23.0533 59.9244 23.2279 60.026L23.2954 60.067C23.3615 60.1084 23.4517 60.1678 23.5634 60.2459C23.8196 60.425 24.1037 60.6441 24.4089 60.9049C25.2763 61.6465 26.142 62.5757 26.9491 63.706C30.0924 68.1086 31.4724 74.1735 30.1091 82.1089C30.0749 82.3079 29.8858 82.4415 29.6868 82.4073C29.4878 82.3731 29.3542 82.1841 29.3884 81.985C30.7187 74.2417 29.3837 68.3745 26.3539 64.1309C25.5827 63.0507 24.7574 62.165 23.9337 61.4607C23.6947 61.2565 23.4706 61.0803 23.2653 60.9313L23.1445 60.8452C23.0049 60.7477 22.9078 60.6858 22.86 60.658C22.6854 60.5564 22.6263 60.3326 22.7279 60.1581Z" fill="#373737"/>
<path d="M3.14551 89.6102C3.29059 89.4698 3.52207 89.4736 3.66251 89.6187L3.80129 89.7576C3.86276 89.818 3.93931 89.8921 4.03052 89.9788L4.30552 90.2362C4.54523 90.4573 4.81112 90.6943 5.10201 90.9442C6.267 91.9452 7.58935 92.9466 9.04278 93.8809C13.241 96.5798 17.6554 98.1805 22.0672 98.1376C22.2692 98.1356 22.4344 98.2977 22.4365 98.4996C22.4384 98.7015 22.2763 98.8668 22.0744 98.8688C17.4997 98.9133 12.9554 97.2655 8.64736 94.496C7.16381 93.5423 5.81483 92.5208 4.62546 91.4989L4.2804 91.1983C4.05855 91.0023 3.85314 90.8154 3.66477 90.639L3.44648 90.4322L3.1371 90.1272C2.99666 89.9822 3.00042 89.7507 3.14551 89.6102Z" fill="#DD936F"/>
<path d="M38.0029 22.451C38.0562 22.3166 38.2084 22.2509 38.3428 22.3042L38.4353 22.3443C38.4902 22.3697 38.5576 22.4032 38.6346 22.445C38.8466 22.5601 39.0584 22.6999 39.2572 22.8659C39.9838 23.4728 40.3508 24.2625 40.1337 25.2225C40.0512 25.5866 39.8853 25.7818 39.5756 25.969L39.4417 26.0455C39.1763 26.193 39.1102 26.2658 39.0873 26.4929C39.0429 26.927 39.2418 27.2502 39.6219 27.4969C39.7491 27.5794 39.887 27.6463 40.0251 27.698L40.1131 27.7291C40.1516 27.7417 40.1813 27.7501 40.2 27.7545C40.3407 27.788 40.4276 27.9291 40.3941 28.0698C40.3607 28.2104 40.2195 28.2973 40.0789 28.2639C39.8873 28.2183 39.6136 28.1157 39.3369 27.9361C38.8061 27.5916 38.4996 27.0935 38.5664 26.4399C38.6074 26.0343 38.7645 25.8371 39.1104 25.632L39.2394 25.5589C39.4844 25.4218 39.5726 25.3293 39.623 25.1069C39.7911 24.3635 39.5106 23.7598 38.9215 23.2678C38.7514 23.1257 38.5681 23.0047 38.3848 22.9052L38.2676 22.8444C38.2161 22.819 38.1758 22.8012 38.1497 22.7908C38.0153 22.7375 37.9496 22.5854 38.0029 22.451Z" fill="#DD936F"/>
<path d="M69.9012 157.474C70.0455 157.463 70.1706 157.572 70.1807 157.716C70.1899 157.846 70.1027 157.96 69.9801 157.989L69.9379 157.996L61.3012 158.603C61.1569 158.613 61.0318 158.504 61.0217 158.36C61.0125 158.23 61.0997 158.116 61.2223 158.087L61.2644 158.08L69.9012 157.474Z" fill="#8E8E8E"/>
</g>
<defs>
<clipPath id="clip0_2_1691">
<rect width="126" height="320" fill="white"/>
</clipPath>
</defs>
</svg>
