<svg width="16" height="16" viewBox="0 0 16 16" fill="none" xmlns="http://www.w3.org/2000/svg">
<g id="Group">
<path id="Vector" d="M8 14.25C4.54813 14.25 1.75 11.4519 1.75 8C1.75 4.54813 4.54813 1.75 8 1.75C11.4519 1.75 14.25 4.54813 14.25 8C14.25 11.4519 11.4519 14.25 8 14.25ZM8 13C9.32608 13 10.5979 12.4732 11.5355 11.5355C12.4732 10.5979 13 9.32608 13 8C13 6.67392 12.4732 5.40215 11.5355 4.46447C10.5979 3.52678 9.32608 3 8 3C6.67392 3 5.40215 3.52678 4.46447 4.46447C3.52678 5.40215 3 6.67392 3 8C3 9.32608 3.52678 10.5979 4.46447 11.5355C5.40215 12.4732 6.67392 13 8 13ZM8 7.11625L9.7675 5.34812L10.6519 6.2325L8.88375 8L10.6519 9.7675L9.7675 10.6519L8 8.88375L6.2325 10.6519L5.34812 9.7675L7.11625 8L5.34812 6.2325L6.2325 5.34812L8 7.11625Z" fill="#BF5F82"/>
</g>
</svg>
