<svg width="16" height="16" viewBox="0 0 16 16" fill="none" xmlns="http://www.w3.org/2000/svg">
<g id="Group">
<path id="Vector" d="M4.53437 12.375L1.75 14.5625V3C1.75 2.83424 1.81585 2.67527 1.93306 2.55806C2.05027 2.44085 2.20924 2.375 2.375 2.375H13.625C13.7908 2.375 13.9497 2.44085 14.0669 2.55806C14.1842 2.67527 14.25 2.83424 14.25 3V11.75C14.25 11.9158 14.1842 12.0747 14.0669 12.1919C13.9497 12.3092 13.7908 12.375 13.625 12.375H4.53437ZM4.10188 11.125H13V3.625H3V11.9906L4.10188 11.125ZM7.55813 8.07563L10.21 5.42438L11.0938 6.30813L7.55813 9.84375L5.12687 7.4125L6.01125 6.52875L7.55813 8.07563Z" fill="#F48FB1"/>
</g>
</svg>
