<svg width="15" height="16" viewBox="0 0 15 16" fill="none" xmlns="http://www.w3.org/2000/svg">
<g id="Group">
<path id="Vector" d="M7.5 14.25C4.04813 14.25 1.25 11.4519 1.25 8C1.25 4.54813 4.04813 1.75 7.5 1.75C10.9519 1.75 13.75 4.54813 13.75 8C13.75 11.4519 10.9519 14.25 7.5 14.25ZM7.5 13C8.82608 13 10.0979 12.4732 11.0355 11.5355C11.9732 10.5979 12.5 9.32608 12.5 8C12.5 6.67392 11.9732 5.40215 11.0355 4.46447C10.0979 3.52678 8.82608 3 7.5 3C6.17392 3 4.90215 3.52678 3.96447 4.46447C3.02678 5.40215 2.5 6.67392 2.5 8C2.5 9.32608 3.02678 10.5979 3.96447 11.5355C4.90215 12.4732 6.17392 13 7.5 13ZM5.3125 9.25H8.75C8.83288 9.25 8.91237 9.21708 8.97097 9.15847C9.02958 9.09987 9.0625 9.02038 9.0625 8.9375C9.0625 8.85462 9.02958 8.77513 8.97097 8.71653C8.91237 8.65792 8.83288 8.625 8.75 8.625H6.25C5.8356 8.625 5.43817 8.46038 5.14515 8.16735C4.85212 7.87433 4.6875 7.4769 4.6875 7.0625C4.6875 6.6481 4.85212 6.25067 5.14515 5.95765C5.43817 5.66462 5.8356 5.5 6.25 5.5H6.875V4.25H8.125V5.5H9.6875V6.75H6.25C6.16712 6.75 6.08763 6.78292 6.02903 6.84153C5.97042 6.90013 5.9375 6.97962 5.9375 7.0625C5.9375 7.14538 5.97042 7.22487 6.02903 7.28347C6.08763 7.34208 6.16712 7.375 6.25 7.375H8.75C9.1644 7.375 9.56183 7.53962 9.85485 7.83265C10.1479 8.12567 10.3125 8.5231 10.3125 8.9375C10.3125 9.3519 10.1479 9.74933 9.85485 10.0424C9.56183 10.3354 9.1644 10.5 8.75 10.5H8.125V11.75H6.875V10.5H5.3125V9.25Z" fill="#8E8E8E"/>
</g>
</svg>
