<svg width="16" height="16" viewBox="0 0 16 16" fill="none" xmlns="http://www.w3.org/2000/svg">
<g id="Group">
<path id="Vector" d="M2.375 2.375H13.625C13.7908 2.375 13.9497 2.44085 14.0669 2.55806C14.1842 2.67527 14.25 2.83424 14.25 3V13C14.25 13.1658 14.1842 13.3247 14.0669 13.4419C13.9497 13.5592 13.7908 13.625 13.625 13.625H2.375C2.20924 13.625 2.05027 13.5592 1.93306 13.4419C1.81585 13.3247 1.75 13.1658 1.75 13V3C1.75 2.83424 1.81585 2.67527 1.93306 2.55806C2.05027 2.44085 2.20924 2.375 2.375 2.375ZM13 5.02375L8.045 9.46125L3 5.01V12.375H13V5.02375ZM3.31938 3.625L8.03813 7.78875L12.6888 3.625H3.31938Z" fill="#616161"/>
</g>
</svg>
