<svg width="16" height="16" viewBox="0 0 16 16" fill="none" xmlns="http://www.w3.org/2000/svg">
<g id="Group">
<path id="Vector" d="M8 14.25C4.54813 14.25 1.75 11.4519 1.75 8C1.75 4.54813 4.54813 1.75 8 1.75C11.4519 1.75 14.25 4.54813 14.25 8C14.25 11.4519 11.4519 14.25 8 14.25ZM8 13C9.32608 13 10.5979 12.4732 11.5355 11.5355C12.4732 10.5979 13 9.32608 13 8C13 6.67392 12.4732 5.40215 11.5355 4.46447C10.5979 3.52678 9.32608 3 8 3C6.67392 3 5.40215 3.52678 4.46447 4.46447C3.52678 5.40215 3 6.67392 3 8C3 9.32608 3.52678 10.5979 4.46447 11.5355C5.40215 12.4732 6.67392 13 8 13ZM6.125 6.125H7.375V9.875H6.125V6.125ZM8.625 6.125H9.875V9.875H8.625V6.125Z" fill="#F48FB1"/>
</g>
</svg>
