<svg width="20" height="20" viewBox="0 0 20 20" fill="none" xmlns="http://www.w3.org/2000/svg">
<path d="M9.99996 18.3334C5.39746 18.3334 1.66663 14.6026 1.66663 10.0001C1.66663 5.39758 5.39746 1.66675 9.99996 1.66675C14.6025 1.66675 18.3333 5.39758 18.3333 10.0001C18.3333 14.6026 14.6025 18.3334 9.99996 18.3334ZM7.08329 11.6667V13.3334H9.16663V15.0001H10.8333V13.3334H11.6666C12.2192 13.3334 12.7491 13.1139 13.1398 12.7232C13.5305 12.3325 13.75 11.8026 13.75 11.2501C13.75 10.6975 13.5305 10.1676 13.1398 9.77694C12.7491 9.38624 12.2192 9.16675 11.6666 9.16675H8.33329C8.22279 9.16675 8.11681 9.12285 8.03866 9.04471C7.96052 8.96657 7.91663 8.86059 7.91663 8.75008C7.91663 8.63958 7.96052 8.53359 8.03866 8.45545C8.11681 8.37731 8.22279 8.33342 8.33329 8.33342H12.9166V6.66675H10.8333V5.00008H9.16663V6.66675H8.33329C7.78076 6.66675 7.25085 6.88624 6.86015 7.27694C6.46945 7.66764 6.24996 8.19755 6.24996 8.75008C6.24996 9.30262 6.46945 9.83252 6.86015 10.2232C7.25085 10.6139 7.78076 10.8334 8.33329 10.8334H11.6666C11.7771 10.8334 11.8831 10.8773 11.9613 10.9555C12.0394 11.0336 12.0833 11.1396 12.0833 11.2501C12.0833 11.3606 12.0394 11.4666 11.9613 11.5447C11.8831 11.6229 11.7771 11.6667 11.6666 11.6667H7.08329Z" fill="#8E8E8E"/>
</svg>
